<?xml version="1.0" encoding="utf-8"?>
<!-- Generator: Adobe Illustrator 20.1.0, SVG Export Plug-In . SVG Version: 6.00 Build 0)  -->
<svg version="1.1" id="Layer_1" xmlns="http://www.w3.org/2000/svg" xmlns:xlink="http://www.w3.org/1999/xlink" x="0px" y="0px"
	 viewBox="0 0 200 40" style="enable-background:new 0 0 200 40;" xml:space="preserve">
<style type="text/css">
	.st0{fill:#1C1C1A;}
	.st1{fill:#8E9090;}
</style>
<g>
	<path class="st0" d="M7.5,15.8v-1c0-1.4-0.7-2.2-1.7-2.2c-1.2,0-1.9,1.1-1.9,3.2v9.8c0,1.6,0.8,2.6,1.9,2.6c0.8,0,1.4-0.1,1.7-0.2
		v-5.7H5.7V20h4.5v9.8c-1.1,0.2-2.9,0.5-4.5,0.5c-3.4,0-4.5-1.8-4.5-4.8v-9.9c0-3.6,1.1-5.1,4.6-5.1c2.9,0,4.4,1.1,4.4,3.5v1.8H7.5z
		"/>
	<path class="st0" d="M12.1,20c0-2.3,1.3-3.6,3.6-3.6c1.9,0,3.6,0.9,3.6,3.4v6.9c0,2.3-1.3,3.6-3.6,3.6c-1.9,0-3.6-0.9-3.6-3.4V20z
		 M14.7,26.8c0,1.1,0.3,1.7,1.1,1.7c0.8,0,1.1-0.6,1.1-1.7v-6.9c0-1.1-0.3-1.7-1.1-1.7c-0.8,0-1.1,0.6-1.1,1.7V26.8z"/>
	<path class="st1" d="M21.6,18.3h-1.3v-1.8h1.3v-3.2c0-1.9,0.5-2.8,3.2-2.8h0.9v1.9h-0.5c-0.8,0-1.1,0.4-1.1,1.2v2.8h1.6v1.8h-1.6
		v11.8h-2.5V18.3z"/>
	<path class="st1" d="M26.6,19.3c0-2,1.2-2.9,3.6-2.9c2.3,0,3.6,0.9,3.6,3.3v10.4h-2.4v-1.4c-0.3,0.3-0.5,0.6-0.7,0.8
		c-0.5,0.5-1.2,0.7-1.8,0.7c-1.5,0-2.5-0.5-2.5-3.7c0-2.7,0.2-3.3,0.9-4.1c0.6-0.6,1-0.8,3.9-0.8v-2.2c0-0.8-0.2-1.3-1.1-1.3
		c-0.7,0-1.1,0.3-1.1,1.1v1.2h-2.5V19.3z M30.4,23.4c-1.2,0-1.5,0.6-1.5,2.8c0,2,0.2,2.3,1,2.3c0.9,0,1.3-0.6,1.3-1.6v-3.5H30.4z"/>
	<path class="st1" d="M39.6,20.9v-1.3c0-1.1-0.2-1.5-0.9-1.5s-0.9,0.3-0.9,1.2c0,1.4,0.1,1.5,1.8,2.9c2,1.7,2.3,2.3,2.3,4.3
		c0,2.6-0.9,3.6-3.6,3.6c-1.9,0-3-0.8-3-2.8v-1.9h2.4v1.9c0,0.8,0.4,1.1,0.9,1.1c0.8,0,0.9-0.4,0.9-1.5c0-1.5-0.1-1.7-1.5-2.9
		l-0.6-0.5c-2-1.7-2.1-1.9-2.1-3.8c0-2.6,1.2-3.4,3.5-3.4c1.9,0,2.9,0.8,2.9,2.5v2.1H39.6z"/>
	<path class="st1" d="M44.1,18.3h-1.3v-1.8h1.3V14l2.5-0.9v3.5h1.6v1.8h-1.6v8.8c0,1,0.5,1.2,1.2,1.2c0.3,0,0.5,0,0.6-0.1V30
		c-0.3,0-0.9,0.1-1.6,0.1c-2,0-2.8-0.6-2.8-1.8V18.3z"/>
	<path class="st0" d="M49.8,10.6h4.3c4.4,0,4.7,1.5,4.7,7.1v5.8c0,5-0.9,6.6-5.2,6.6h-3.9V10.6z M52.5,27.8h1.3c2,0,2.4-1.1,2.4-4.4
		v-6.7c0-2.9-0.3-3.9-2.6-3.9h-1.1V27.8z"/>
	<path class="st0" d="M60.6,20c0-2.3,1.3-3.6,3.7-3.6c2,0,3.7,0.9,3.7,3.4v4.4h-4.8V27c0,1.3,0.4,1.6,1.2,1.6c0.9,0,1.2-0.7,1.2-1.8
		v-1.2h2.4v1.9c0,1.4-1,2.7-3.8,2.7c-1.9,0-3.6-0.9-3.6-3.4V20z M63.1,22.4h2.5v-2.6c0-1.2-0.4-1.7-1.2-1.7c-0.9,0-1.2,0.5-1.2,1.5
		V22.4z"/>
	<path class="st0" d="M68.7,16.5h2.6l1.8,11h0.1l1.8-11h2.5l-3,13.5h-3L68.7,16.5z"/>
</g>
</svg>
