<?xml version="1.0" encoding="utf-8"?>
<!-- Generator: Adobe Illustrator 21.0.2, SVG Export Plug-In . SVG Version: 6.00 Build 0)  -->
<svg version="1.1" id="Layer_1" xmlns="http://www.w3.org/2000/svg" xmlns:xlink="http://www.w3.org/1999/xlink" x="0px" y="0px"
	 viewBox="0 0 400 110" style="enable-background:new 0 0 400 110;" xml:space="preserve">
<style type="text/css">
	.st0{fill:#FFFFFF;}
	.st1{fill:#BCBDBD;}
</style>
<g>
	<path class="st0" d="M22.6,41.3v-3c0-4.1-2-6.7-5.2-6.7c-3.8,0-5.6,3.4-5.6,9.7v29.8c0,4.7,2.3,7.7,5.6,7.7c2.3,0,4.1-0.3,5.2-0.6
		V60.9h-5.4V54h13.6v29.7c-3.2,0.7-8.8,1.5-13.5,1.5c-10.4,0-13.7-5.5-13.7-14.6V40.8c0-11,3.4-15.5,13.9-15.5
		c8.8,0,13.3,3.2,13.3,10.7v5.4L22.6,41.3L22.6,41.3z"/>
	<path class="st0" d="M36.5,54.2c0-7,4-11,10.9-11c5.9,0,11,2.6,11,10.2v20.8c0,7-4,11-10.9,11c-5.9,0-11-2.6-11-10.2V54.2z
		 M44.2,74.7c0,3.3,0.8,5.2,3.3,5.2c2.4,0,3.2-1.9,3.2-5.2v-21c0-3.3-0.8-5.2-3.2-5.2c-2.5,0-3.3,1.9-3.3,5.2V74.7z"/>
	<path class="st1" d="M65.3,49.1h-3.8v-5.4h3.8V34c0-5.8,1.6-8.3,9.8-8.3h2.6v5.9h-1.4c-2.4,0-3.4,1.1-3.4,3.5v8.6h4.7v5.4H73v35.6
		h-7.7V49.1L65.3,49.1z"/>
	<path class="st1" d="M80.4,52.1c0-6.1,3.7-8.9,11-8.9c7,0,10.9,2.8,10.9,10v31.6H95v-4.3c-0.9,0.9-1.4,1.7-2.2,2.5
		c-1.4,1.4-3.5,2.2-5.5,2.2c-4.6,0-7.5-1.4-7.5-11.2c0-8.3,0.7-10.1,2.8-12.4c1.8-1.9,3.1-2.5,11.9-2.5v-6.6c0-2.4-0.6-3.9-3.2-3.9
		c-2.1,0-3.3,0.9-3.3,3.4v3.8h-7.7L80.4,52.1L80.4,52.1z M92.1,64.5c-3.6,0-4.6,2-4.6,8.4c0,6.1,0.6,6.8,3,6.8c2.6,0,4-2,4-4.7V64.5
		H92.1L92.1,64.5L92.1,64.5z"/>
	<path class="st1" d="M119.8,56.9V53c0-3.2-0.7-4.4-2.7-4.4s-2.6,0.9-2.6,3.8c0,4.1,0.3,4.4,5.5,8.9c5.9,5.2,7.1,7,7.1,12.9
		c0,8-2.8,11-11,11c-5.9,0-9.2-2.5-9.2-8.4V71h7.2v5.6c0,2.5,1.1,3.2,2.9,3.2c2.5,0,2.9-1.3,2.9-4.6c0-4.4-0.2-5.1-4.7-8.8l-1.7-1.5
		c-6.1-5.2-6.2-5.9-6.2-11.5c0-7.7,3.8-10.2,10.6-10.2c5.7,0,8.8,2.5,8.8,7.4V57L119.8,56.9L119.8,56.9z"/>
	<path class="st1" d="M133.5,49.1h-3.8v-5.4h3.8V36l7.7-2.7v10.4h4.7v5.4h-4.7v26.6c0,3.1,1.4,3.7,3.7,3.7c0.9,0,1.5-0.1,2-0.2v5.4
		c-0.9,0.1-2.9,0.2-5,0.2c-6.1,0-8.3-1.8-8.3-5.5L133.5,49.1L133.5,49.1z"/>
	<path class="st0" d="M150.6,25.7h13.1c13.3,0,14.3,4.4,14.3,21.6v17.6c0,15.1-2.7,19.9-15.6,19.9h-11.8V25.7z M158.7,77.9h3.9
		c6.1,0,7.2-3.2,7.2-13.3V44.3c0-8.8-0.9-11.7-7.9-11.7h-3.3L158.7,77.9L158.7,77.9z"/>
	<path class="st0" d="M183.3,54.2c0-7,4-11,11.1-11c6.1,0,11.2,2.6,11.2,10.2v13.3H191v8.8c0,3.8,1.3,4.9,3.8,4.9
		c2.9,0,3.7-2,3.7-5.3v-3.8h7.2V77c0,4.2-2.9,8.2-11.5,8.2c-5.8,0-10.9-2.6-10.9-10.2V54.2z M190.9,61.2h7.4v-8
		c0-3.7-1.1-5.2-3.7-5.2c-2.9,0-3.8,1.6-3.8,4.5v8.7H190.9z"/>
	<path class="st0" d="M207.9,43.7h7.9l5.3,33.4h0.2l5.3-33.4h7.7l-9.2,41h-9L207.9,43.7z"/>
</g>
</svg>
