<?xml version="1.0" encoding="utf-8"?>
<!-- Generator: Adobe Illustrator 21.0.2, SVG Export Plug-In . SVG Version: 6.00 Build 0)  -->
<svg version="1.1" id="Layer_1" xmlns="http://www.w3.org/2000/svg" xmlns:xlink="http://www.w3.org/1999/xlink" x="0px" y="0px"
	 viewBox="0 0 1062 1116" style="enable-background:new 0 0 1062 1116;" xml:space="preserve">
<style type="text/css">
	.st0{fill:#FFFFFF;stroke:#000000;stroke-miterlimit:10;}
</style>
<rect x="17" y="1053" class="st0" width="1026" height="45"/>
<rect x="17" y="73" class="st0" width="1026" height="36"/>
<rect x="17" y="19" class="st0" width="1026" height="36"/>
<rect x="17" y="127" class="st0" width="1026" height="909"/>
<rect x="52" y="163" class="st0" width="730" height="837"/>
<rect x="89.3" y="199" class="st0" width="657" height="765"/>
<rect x="125" y="235" class="st0" width="153" height="693"/>
<rect x="314.3" y="235" class="st0" width="396" height="693"/>
<rect x="161" y="271" class="st0" width="81" height="297"/>
<rect x="161" y="595" class="st0" width="81" height="297"/>
<polygon class="st0" points="674,559 350,559 349.4,271 673.4,271 "/>
<rect x="350" y="595" class="st0" width="324" height="297"/>
<rect x="385.4" y="307" class="st0" width="252" height="36"/>
<rect x="385.4" y="370" class="st0" width="252" height="36"/>
<rect x="385.4" y="433" class="st0" width="252" height="36"/>
<rect x="385.4" y="496" class="st0" width="252" height="36"/>
<rect x="386" y="631" class="st0" width="252" height="36"/>
<rect x="386" y="694" class="st0" width="252" height="36"/>
<rect x="386" y="757" class="st0" width="252" height="36"/>
<rect x="386" y="820" class="st0" width="252" height="36"/>
<rect x="818" y="163" class="st0" width="189" height="846"/>
<rect x="854" y="208" class="st0" width="117" height="99"/>
<rect x="854" y="343" class="st0" width="117" height="99"/>
<rect x="854" y="478" class="st0" width="117" height="99"/>
<rect x="854" y="613" class="st0" width="117" height="99"/>
<rect x="854" y="748" class="st0" width="117" height="99"/>
<rect x="854" y="874" class="st0" width="117" height="99"/>
<g>
	<path d="M833.7,176.6h-4.2l-1.2,3.4h-1.1l3.9-10.5h1.1L836,180h-1.1L833.7,176.6z M831.6,170.6c0,0-0.2,0.9-0.4,1.4l-1.4,3.8h3.6
		L832,172C831.9,171.4,831.6,170.6,831.6,170.6L831.6,170.6z"/>
	<path d="M842.8,171c0,0-0.2,0.9-0.3,1.6l-2,7.4h-1.2l-2.7-10.5h1.1l2,8.2c0.1,0.5,0.2,1.1,0.2,1.1l0,0c0,0,0.1-0.6,0.2-1.1l2.2-8.2
		h1l2.2,8.2c0.2,0.5,0.2,1.1,0.2,1.1l0,0c0,0,0.1-0.6,0.2-1.1l2.1-8.2h1.1l-2.8,10.5h-1.2l-2-7.4C843,171.9,842.9,171,842.8,171
		L842.8,171z"/>
	<path d="M851.2,178c0,0,1.1,1.2,2.8,1.2c1.2,0,2.1-0.7,2.1-1.8c0-2.7-5.3-2-5.3-5.2c0-1.5,1.3-2.8,3.3-2.8c1.8,0,2.8,1,2.8,1
		l-0.5,0.9c0,0-0.9-0.9-2.3-0.9c-1.4,0-2.2,0.9-2.2,1.8c0,2.5,5.3,1.8,5.3,5.2c0,1.6-1.2,2.9-3.2,2.9c-2.2,0-3.3-1.4-3.3-1.4
		L851.2,178z"/>
	<path d="M863.3,178c0,0,1.1,1.2,2.8,1.2c1.2,0,2.1-0.7,2.1-1.8c0-2.7-5.3-2-5.3-5.2c0-1.5,1.3-2.8,3.3-2.8c1.8,0,2.8,1,2.8,1
		l-0.5,0.9c0,0-0.9-0.9-2.3-0.9c-1.4,0-2.2,0.9-2.2,1.8c0,2.5,5.3,1.8,5.3,5.2c0,1.6-1.2,2.9-3.2,2.9c-2.2,0-3.3-1.4-3.3-1.4
		L863.3,178z"/>
	<path d="M874.4,172.3c2.1,0,3.2,1.6,3.2,3.5c0,0.2,0,0.5,0,0.5h-5.8c0,1.9,1.4,3,2.9,3c1.4,0,2.3-0.9,2.3-0.9l0.5,0.8
		c0,0-1.1,1.1-2.8,1.1c-2.2,0-3.9-1.6-3.9-3.9C870.7,173.8,872.4,172.3,874.4,172.3z M876.5,175.4c-0.1-1.6-1-2.3-2.1-2.3
		c-1.3,0-2.4,0.8-2.6,2.3H876.5z"/>
	<path d="M879.5,172.5h1v1.3c0,0.3,0,0.6,0,0.6l0,0c0.4-1.1,1.2-2,2.4-2c0.2,0,0.4,0,0.4,0v1c0,0-0.2,0-0.4,0
		c-1.1,0-1.9,0.8-2.2,1.9c-0.2,0.5-0.2,1-0.2,1.5v3.2h-1V172.5z"/>
	<path d="M883.8,172.5h1.1l2.1,5.5c0.1,0.4,0.3,0.9,0.3,0.9l0,0c0,0,0.1-0.5,0.3-0.9l2.1-5.5h1.1l-2.9,7.5h-1.1L883.8,172.5z"/>
	<path d="M892.1,169.5h1.1v1.3h-1.1V169.5z M892.1,172.5h1v7.5h-1V172.5z"/>
	<path d="M899,172.3c1.8,0,2.8,1.1,2.8,1.1l-0.5,0.8c0,0-0.8-0.9-2.2-0.9c-1.7,0-2.9,1.2-2.9,3s1.3,3,3,3c1.5,0,2.4-1.1,2.4-1.1
		l0.5,0.8c0,0-1,1.2-2.9,1.2c-2.2,0-4-1.6-4-3.9C895.1,173.9,896.8,172.3,899,172.3z"/>
	<path d="M907,172.3c2.1,0,3.2,1.6,3.2,3.5c0,0.2,0,0.5,0,0.5h-5.8c0,1.9,1.4,3,2.9,3c1.4,0,2.3-0.9,2.3-0.9l0.5,0.8
		c0,0-1.1,1.1-2.8,1.1c-2.2,0-3.9-1.6-3.9-3.9C903.3,173.8,905,172.3,907,172.3z M909.2,175.4c-0.1-1.6-1-2.3-2.1-2.3
		c-1.3,0-2.4,0.8-2.6,2.3H909.2z"/>
	<path d="M912.1,178.4c0,0,0.8,0.9,2.2,0.9c0.8,0,1.5-0.4,1.5-1.2c0-1.6-4.1-1.2-4.1-3.7c0-1.4,1.2-2.1,2.6-2.1
		c1.6,0,2.3,0.8,2.3,0.8l-0.5,0.8c0,0-0.6-0.7-1.9-0.7c-0.8,0-1.5,0.3-1.5,1.2c0,1.7,4.1,1.2,4.1,3.7c0,1.2-1.1,2.1-2.6,2.1
		c-1.8,0-2.8-1.1-2.8-1.1L912.1,178.4z"/>
</g>
<g>
	<path d="M864.5,214.5h5.9v0.9h-4.9v3.8h4v0.9h-4v3.9h5.2v0.9h-6.2V214.5z"/>
	<path d="M872.7,214.5h1v8.5c0,1,0.5,1.1,0.8,1.1c0.1,0,0.3,0,0.3,0v0.9c0,0-0.2,0-0.4,0c-0.6,0-1.7-0.2-1.7-1.8L872.7,214.5
		L872.7,214.5z"/>
	<path d="M880.5,220.3h0.4v-0.2c0-1.5-0.8-1.9-1.9-1.9c-1.2,0-2.1,0.7-2.1,0.7l-0.5-0.8c0,0,1-0.9,2.7-0.9c1.8,0,2.8,1,2.8,2.9v4.8
		h-1v-0.8c0-0.4,0-0.6,0-0.6l0,0c0,0-0.6,1.6-2.5,1.6c-1.3,0-2.6-0.7-2.6-2.2C875.9,220.4,879.2,220.3,880.5,220.3z M878.6,224.3
		c1.4,0,2.3-1.5,2.3-2.8v-0.3h-0.4c-1.2,0-3.6,0-3.6,1.7C876.9,223.6,877.5,224.3,878.6,224.3z"/>
	<path d="M884.2,223.4c0,0,0.8,0.9,2.2,0.9c0.8,0,1.5-0.4,1.5-1.2c0-1.6-4.1-1.2-4.1-3.7c0-1.4,1.2-2.1,2.6-2.1
		c1.6,0,2.3,0.8,2.3,0.8l-0.5,0.8c0,0-0.6-0.7-1.9-0.7c-0.8,0-1.5,0.3-1.5,1.2c0,1.7,4.1,1.2,4.1,3.7c0,1.2-1.1,2.1-2.6,2.1
		c-1.8,0-2.8-1.1-2.8-1.1L884.2,223.4z"/>
	<path d="M891.2,218.4h-1v-0.9h1v-2.2h1v2.2h1.9v0.9h-1.9v3.7c0,1.8,1.1,2,1.7,2c0.2,0,0.3,0,0.3,0v0.9c0,0-0.2,0-0.4,0
		c-0.9,0-2.6-0.3-2.6-2.8V218.4z"/>
	<path d="M895.9,214.5h1.1v1.3h-1.1V214.5z M896,217.5h1v7.5h-1V217.5z"/>
	<path d="M902.9,217.3c1.8,0,2.8,1.1,2.8,1.1l-0.5,0.8c0,0-0.8-0.9-2.2-0.9c-1.6,0-2.9,1.2-2.9,3s1.3,3,3,3c1.5,0,2.4-1.1,2.4-1.1
		l0.5,0.8c0,0-1,1.2-2.9,1.2c-2.2,0-4-1.6-4-3.9C898.9,218.9,900.7,217.3,902.9,217.3z"/>
	<path d="M907.6,223.4c0,0,0.8,0.9,2.2,0.9c0.8,0,1.5-0.4,1.5-1.2c0-1.6-4.1-1.2-4.1-3.7c0-1.4,1.2-2.1,2.6-2.1
		c1.6,0,2.3,0.8,2.3,0.8l-0.5,0.8c0,0-0.6-0.7-1.9-0.7c-0.8,0-1.5,0.3-1.5,1.2c0,1.7,4.1,1.2,4.1,3.7c0,1.2-1.1,2.1-2.6,2.1
		c-1.8,0-2.8-1.1-2.8-1.1L907.6,223.4z"/>
	<path d="M917.5,217.3c2.1,0,3.1,1.6,3.1,3.5c0,0.2,0,0.5,0,0.5h-5.8c0,1.9,1.4,3,2.9,3c1.4,0,2.3-0.9,2.3-0.9l0.5,0.8
		c0,0-1.1,1.1-2.8,1.1c-2.2,0-3.9-1.6-3.9-3.9C913.8,218.8,915.5,217.3,917.5,217.3z M919.6,220.4c-0.1-1.6-1-2.3-2.1-2.3
		c-1.3,0-2.4,0.8-2.6,2.3H919.6z"/>
	<path d="M926.6,220.3h0.4v-0.2c0-1.5-0.8-1.9-1.9-1.9c-1.2,0-2.1,0.7-2.1,0.7l-0.5-0.8c0,0,1-0.9,2.7-0.9c1.8,0,2.8,1,2.8,2.9v4.8
		h-1v-0.8c0-0.4,0-0.6,0-0.6l0,0c0,0-0.6,1.6-2.5,1.6c-1.3,0-2.6-0.7-2.6-2.2C922,220.4,925.3,220.3,926.6,220.3z M924.7,224.3
		c1.4,0,2.3-1.5,2.3-2.8v-0.3h-0.4c-1.2,0-3.6,0-3.6,1.7C923.1,223.6,923.6,224.3,924.7,224.3z"/>
	<path d="M930.4,217.5h1v1.3c0,0.3,0,0.6,0,0.6l0,0c0.4-1.1,1.2-2,2.4-2c0.2,0,0.4,0,0.4,0v1c0,0-0.2,0-0.4,0
		c-1.1,0-1.9,0.8-2.2,1.9c-0.2,0.5-0.2,1-0.2,1.5v3.2h-1V217.5z"/>
	<path d="M939.1,217.3c1.8,0,2.8,1.1,2.8,1.1l-0.5,0.8c0,0-0.8-0.9-2.2-0.9c-1.6,0-2.9,1.2-2.9,3s1.3,3,3,3c1.5,0,2.4-1.1,2.4-1.1
		l0.5,0.8c0,0-1,1.2-2.9,1.2c-2.2,0-4-1.6-4-3.9C935.2,218.9,936.9,217.3,939.1,217.3z"/>
	<path d="M943.9,214.5h1v4.1c0,0.3,0,0.6,0,0.6l0,0c0.3-0.7,1.3-1.9,3-1.9c1.9,0,2.5,1.1,2.5,2.9v4.8h-1v-4.5c0-1.2-0.2-2.2-1.6-2.2
		c-1.3,0-2.4,0.9-2.7,2.1c-0.1,0.3-0.1,0.6-0.1,1v3.6h-1v-10.5H943.9z"/>
</g>
<g>
	<path d="M864.5,349.5h3.6c1.9,0,3.3,1.2,3.3,3.2s-1.4,3.2-3.3,3.2h-2.6v4.1h-1V349.5z M868,354.9c1.4,0,2.3-0.9,2.3-2.3
		s-0.9-2.2-2.3-2.2h-2.5v4.5H868z"/>
	<path d="M876.6,352.3c2.2,0,4,1.7,4,3.9c0,2.3-1.8,4-4,4s-4-1.7-4-4C872.6,354,874.4,352.3,876.6,352.3z M876.6,359.3
		c1.6,0,2.9-1.3,2.9-3.1c0-1.7-1.3-3-2.9-3s-2.9,1.3-2.9,3C873.7,357.9,875,359.3,876.6,359.3z"/>
	<path d="M882.5,358.4c0,0,0.8,0.9,2.2,0.9c0.8,0,1.5-0.4,1.5-1.2c0-1.6-4.1-1.2-4.1-3.7c0-1.4,1.2-2.1,2.6-2.1
		c1.6,0,2.3,0.8,2.3,0.8l-0.5,0.8c0,0-0.6-0.7-1.9-0.7c-0.8,0-1.5,0.3-1.5,1.2c0,1.7,4.1,1.2,4.1,3.7c0,1.2-1.1,2.1-2.6,2.1
		c-1.8,0-2.8-1.1-2.8-1.1L882.5,358.4z"/>
	<path d="M889.5,353.4h-1v-0.9h1v-2.2h1v2.2h1.9v0.9h-1.9v3.7c0,1.8,1.1,2,1.7,2c0.2,0,0.3,0,0.3,0v0.9c0,0-0.2,0-0.4,0
		c-0.9,0-2.6-0.3-2.6-2.8V353.4z"/>
	<path d="M896.8,362.2c1.5,0,2.6-0.7,2.6-2.4v-0.7c0-0.3,0-0.5,0-0.5l0,0c-0.5,0.8-1.2,1.3-2.4,1.3c-2,0-3.4-1.6-3.4-3.9
		s1.2-3.8,3.3-3.8c2,0,2.5,1.3,2.5,1.3l0,0c0,0,0-0.1,0-0.3v-0.8h1v7.4c0,2.4-1.8,3.3-3.6,3.3c-0.9,0-1.7-0.2-2.5-0.6l0.4-0.8
		C894.8,361.7,895.7,362.2,896.8,362.2z M899.5,356.1c0-2.2-1.1-2.9-2.4-2.9c-1.5,0-2.3,1.1-2.3,2.9s1,3,2.5,3
		C898.4,359,899.5,358.3,899.5,356.1z"/>
	<path d="M902.9,352.5h1v1.3c0,0.3,0,0.6,0,0.6l0,0c0.4-1.1,1.2-2,2.4-2c0.2,0,0.4,0,0.4,0v1c0,0-0.2,0-0.4,0
		c-1.1,0-1.9,0.8-2.2,1.9c-0.2,0.5-0.2,1-0.2,1.5v3.2h-1V352.5z"/>
	<path d="M911.4,352.3c2.1,0,3.1,1.6,3.1,3.5c0,0.2,0,0.5,0,0.5h-5.8c0,1.9,1.4,3,2.9,3c1.4,0,2.3-0.9,2.3-0.9l0.5,0.8
		c0,0-1.1,1.1-2.8,1.1c-2.2,0-3.9-1.6-3.9-3.9C907.7,353.8,909.3,352.3,911.4,352.3z M913.5,355.4c-0.1-1.6-1-2.3-2.1-2.3
		c-1.3,0-2.4,0.8-2.6,2.3H913.5z"/>
	<path d="M916.4,358.4c0,0,0.8,0.9,2.2,0.9c0.8,0,1.5-0.4,1.5-1.2c0-1.6-4.1-1.2-4.1-3.7c0-1.4,1.2-2.1,2.6-2.1
		c1.6,0,2.3,0.8,2.3,0.8l-0.5,0.8c0,0-0.6-0.7-1.9-0.7c-0.8,0-1.5,0.3-1.5,1.2c0,1.7,4.1,1.2,4.1,3.7c0,1.2-1.1,2.1-2.6,2.1
		c-1.8,0-2.8-1.1-2.8-1.1L916.4,358.4z"/>
	<path d="M926.3,348.9h0.9l-3.8,11.8h-1L926.3,348.9z"/>
	<path d="M929.3,349.5h3.1c1.1,0,1.6,0.1,2,0.3c1,0.4,1.6,1.4,1.6,2.7c0,1.4-0.8,2.5-2,2.9l0,0c0,0,0.1,0.1,0.3,0.4l2.3,4.2h-1.2
		l-2.4-4.4h-2.7v4.4h-1L929.3,349.5L929.3,349.5z M932.8,354.6c1.3,0,2.1-0.8,2.1-2.1c0-0.9-0.3-1.5-1-1.8c-0.3-0.2-0.7-0.3-1.5-0.3
		h-2.1v4.2L932.8,354.6L932.8,354.6z"/>
	<path d="M938.7,349.5h3.4c3.2,0,5.3,1.9,5.3,5.3s-2.1,5.3-5.3,5.3h-3.4V349.5z M942,359.1c2.6,0,4.3-1.5,4.3-4.3s-1.7-4.3-4.3-4.3
		h-2.3v8.7h2.3V359.1z"/>
	<path d="M949.7,358c0,0,1.1,1.2,2.8,1.2c1.2,0,2.1-0.7,2.1-1.8c0-2.7-5.3-2-5.3-5.2c0-1.5,1.3-2.8,3.3-2.8c1.8,0,2.8,1,2.8,1
		l-0.5,0.9c0,0-0.9-0.9-2.3-0.9c-1.4,0-2.2,0.9-2.2,1.8c0,2.5,5.3,1.8,5.3,5.2c0,1.6-1.2,2.9-3.2,2.9c-2.2,0-3.3-1.4-3.3-1.4
		L949.7,358z"/>
</g>
<g>
	<path d="M864.5,484.5h3.1c1.1,0,1.6,0.1,2,0.3c1,0.4,1.6,1.4,1.6,2.7c0,1.4-0.8,2.5-2,2.9l0,0c0,0,0.1,0.1,0.3,0.4l2.3,4.2h-1.2
		l-2.4-4.4h-2.7v4.4h-1L864.5,484.5L864.5,484.5z M868.1,489.6c1.3,0,2.1-0.8,2.1-2.1c0-0.9-0.3-1.5-1-1.8c-0.3-0.2-0.7-0.3-1.5-0.3
		h-2.1v4.2L868.1,489.6L868.1,489.6z"/>
	<path d="M876.8,487.3c2.1,0,3.1,1.6,3.1,3.5c0,0.2,0,0.5,0,0.5h-5.8c0,1.9,1.4,3,2.9,3c1.4,0,2.3-0.9,2.3-0.9l0.5,0.8
		c0,0-1.1,1.1-2.8,1.1c-2.2,0-3.9-1.6-3.9-3.9C873.1,488.8,874.8,487.3,876.8,487.3z M879,490.4c-0.1-1.6-1-2.3-2.1-2.3
		c-1.3,0-2.4,0.8-2.6,2.3H879z"/>
	<path d="M884.8,487.3c1.8,0,2.5,1.4,2.5,1.4l0,0c0,0,0-0.3,0-0.6v-3.7h1V495h-1v-0.8c0-0.3,0-0.5,0-0.5l0,0c0,0-0.6,1.5-2.6,1.5
		s-3.3-1.6-3.3-4C881.5,488.8,882.9,487.3,884.8,487.3z M884.9,494.3c1.3,0,2.4-0.9,2.4-3c0-1.5-0.8-3-2.4-3c-1.3,0-2.4,1.1-2.4,3
		C882.5,493.1,883.5,494.3,884.9,494.3z"/>
	<path d="M890.8,484.5h1.1v1.3h-1.1V484.5z M890.8,487.5h1v7.5h-1V487.5z"/>
	<path d="M894.2,493.4c0,0,0.8,0.9,2.2,0.9c0.8,0,1.5-0.4,1.5-1.2c0-1.6-4.1-1.2-4.1-3.7c0-1.4,1.2-2.1,2.6-2.1
		c1.6,0,2.3,0.8,2.3,0.8l-0.5,0.8c0,0-0.6-0.7-1.9-0.7c-0.8,0-1.5,0.3-1.5,1.2c0,1.7,4.1,1.2,4.1,3.7c0,1.2-1.1,2.1-2.6,2.1
		c-1.8,0-2.8-1.1-2.8-1.1L894.2,493.4z"/>
</g>
<g>
	<path d="M864.4,628c0,0,1.1,1.2,2.8,1.2c1.2,0,2.1-0.7,2.1-1.8c0-2.7-5.3-2-5.3-5.2c0-1.5,1.3-2.8,3.3-2.8c1.8,0,2.8,1,2.8,1
		l-0.5,0.9c0,0-0.9-0.9-2.3-0.9c-1.4,0-2.2,0.9-2.2,1.8c0,2.5,5.3,1.8,5.3,5.2c0,1.6-1.2,2.8-3.2,2.8c-2.2,0-3.3-1.3-3.3-1.3
		L864.4,628z"/>
	<path d="M872.4,627.9c0,0,1.1,1.2,2.7,1.2c1.3,0,2.4-0.9,2.4-2.3c0-1.5-1.3-2.2-2.7-2.2h-0.7l-0.3-0.6l2.6-3.1
		c0.3-0.3,0.6-0.6,0.6-0.6l0,0c0,0-0.3,0-0.9,0h-4v-0.9h6.2v0.7l-3.2,3.6c1.3,0.1,3.3,0.8,3.3,3.1c0,1.8-1.5,3.3-3.5,3.3
		c-2.1,0-3.3-1.4-3.3-1.4L872.4,627.9z"/>
</g>
<g>
	<path d="M864.4,763c0,0,1.1,1.2,2.8,1.2c1.2,0,2.1-0.7,2.1-1.8c0-2.7-5.3-2-5.3-5.2c0-1.5,1.3-2.8,3.3-2.8c1.8,0,2.8,1,2.8,1
		l-0.5,0.9c0,0-0.9-0.9-2.3-0.9c-1.4,0-2.2,0.9-2.2,1.8c0,2.5,5.3,1.8,5.3,5.2c0,1.6-1.2,2.8-3.2,2.8c-2.2,0-3.3-1.3-3.3-1.3
		L864.4,763z"/>
	<path d="M872.6,754.5h1l5.4,7.6c0.4,0.5,0.9,1.4,0.9,1.4l0,0c0,0-0.1-0.9-0.1-1.4v-7.6h1V765h-1l-5.4-7.6c-0.4-0.5-0.9-1.4-0.9-1.4
		l0,0c0,0,0.1,0.9,0.1,1.4v7.6h-1V754.5z"/>
	<path d="M883.7,763c0,0,1.1,1.2,2.8,1.2c1.2,0,2.1-0.7,2.1-1.8c0-2.7-5.3-2-5.3-5.2c0-1.5,1.3-2.8,3.3-2.8c1.8,0,2.8,1,2.8,1
		l-0.5,0.9c0,0-0.9-0.9-2.3-0.9c-1.4,0-2.2,0.9-2.2,1.8c0,2.5,5.3,1.8,5.3,5.2c0,1.6-1.2,2.8-3.2,2.8c-2.2,0-3.3-1.3-3.3-1.3
		L883.7,763z"/>
</g>
<g>
	<path d="M864.4,889c0,0,1.1,1.2,2.8,1.2c1.2,0,2.1-0.7,2.1-1.8c0-2.7-5.3-2-5.3-5.2c0-1.5,1.3-2.8,3.3-2.8c1.8,0,2.8,1,2.8,1
		l-0.5,0.9c0,0-0.9-0.9-2.3-0.9c-1.4,0-2.2,0.9-2.2,1.8c0,2.5,5.3,1.8,5.3,5.2c0,1.6-1.2,2.8-3.2,2.8c-2.2,0-3.3-1.3-3.3-1.3
		L864.4,889z"/>
	<path d="M877.2,880.3c3,0,5.4,2.4,5.4,5.4c0,1.4-0.5,2.7-1.3,3.6l1.3,1.3l-0.6,0.6l-1.3-1.3c-0.9,0.8-2.1,1.2-3.5,1.2
		c-3,0-5.3-2.4-5.3-5.5C871.9,882.6,874.2,880.3,877.2,880.3z M877.2,890.2c1,0,2-0.4,2.7-1l-1.3-1.3l0.6-0.6l1.3,1.3
		c0.6-0.8,1-1.8,1-2.9c0-2.5-1.9-4.4-4.3-4.4c-2.4,0-4.3,1.9-4.3,4.4C873,888.2,874.8,890.2,877.2,890.2z"/>
	<path d="M885,889c0,0,1.1,1.2,2.8,1.2c1.2,0,2.1-0.7,2.1-1.8c0-2.7-5.3-2-5.3-5.2c0-1.5,1.3-2.8,3.3-2.8c1.8,0,2.8,1,2.8,1
		l-0.5,0.9c0,0-0.9-0.9-2.3-0.9c-1.4,0-2.2,0.9-2.2,1.8c0,2.5,5.3,1.8,5.3,5.2c0,1.6-1.2,2.8-3.2,2.8c-2.2,0-3.3-1.3-3.3-1.3
		L885,889z"/>
</g>
<g>
	<path d="M167.5,476.5v-1h9.6v-4.9h0.9v5.9H167.5z"/>
	<path d="M170.3,465.6c0-2.2,1.7-4,3.9-4c2.3,0,4,1.8,4,4s-1.7,4-4,4C172,469.6,170.3,467.8,170.3,465.6z M177.3,465.6
		c0-1.6-1.3-2.9-3.1-2.9c-1.7,0-3,1.3-3,2.9s1.3,2.9,3,2.9S177.3,467.2,177.3,465.6z"/>
	<path d="M173.3,455.7v-0.4h-0.2c-1.5,0-1.9,0.8-1.9,1.9c0,1.2,0.7,2.1,0.7,2.1l-0.8,0.5c0,0-0.9-1-0.9-2.7c0-1.8,1-2.8,2.9-2.8h4.8
		v1h-0.8c-0.4,0-0.6,0-0.6,0l0,0c0,0,1.6,0.6,1.6,2.5c0,1.3-0.7,2.6-2.2,2.6C173.4,460.3,173.3,457,173.3,455.7z M177.3,457.6
		c0-1.4-1.5-2.3-2.8-2.3h-0.3v0.4c0,1.2,0,3.6,1.7,3.6C176.6,459.2,177.3,458.7,177.3,457.6z"/>
	<path d="M170.3,449c0-1.8,1.4-2.5,1.4-2.5l0,0c0,0-0.3,0-0.6,0h-3.7v-1H178v1h-0.8c-0.3,0-0.5,0-0.5,0l0,0c0,0,1.5,0.6,1.5,2.6
		s-1.6,3.3-4,3.3S170.3,451,170.3,449z M177.3,448.9c0-1.3-0.9-2.4-3-2.4c-1.5,0-3,0.8-3,2.4c0,1.3,1.1,2.4,3,2.4
		C176.1,451.3,177.3,450.3,177.3,448.9z"/>
	<path d="M167.5,438.7v-3.6c0-1.7,1-2.8,2.7-2.8c1.1,0,1.9,0.5,2.3,1.3l0,0c0.3-1.1,1.3-1.8,2.6-1.8c1.9,0,3,1.4,3,3.2v3.7
		L167.5,438.7L167.5,438.7z M172,435.1c0-1.1-0.8-1.8-1.8-1.8c-1.1,0-1.8,0.7-1.8,1.8v2.6h3.6V435.1z M177.1,435
		c0-1.3-0.8-2.1-2.1-2.1s-2.1,0.9-2.1,2.1v2.7h4.1V435H177.1z"/>
	<path d="M173.3,425.6v-0.4h-0.2c-1.5,0-1.9,0.8-1.9,1.9c0,1.2,0.7,2.1,0.7,2.1l-0.8,0.5c0,0-0.9-1-0.9-2.7c0-1.8,1-2.8,2.9-2.8h4.8
		v1h-0.8c-0.4,0-0.6,0-0.6,0l0,0c0,0,1.6,0.6,1.6,2.5c0,1.3-0.7,2.6-2.2,2.6C173.4,430.2,173.3,426.9,173.3,425.6z M177.3,427.5
		c0-1.4-1.5-2.3-2.8-2.3h-0.3v0.4c0,1.2,0,3.6,1.7,3.6C176.6,429.2,177.3,428.6,177.3,427.5z"/>
	<path d="M167.5,421.9v-1h8.5c1,0,1.1-0.5,1.1-0.8c0-0.1,0-0.3,0-0.3h0.9c0,0,0,0.2,0,0.4c0,0.6-0.2,1.7-1.8,1.7L167.5,421.9
		L167.5,421.9z"/>
	<path d="M173.3,414.1v-0.4h-0.2c-1.5,0-1.9,0.8-1.9,1.9c0,1.2,0.7,2.1,0.7,2.1l-0.8,0.5c0,0-0.9-1-0.9-2.7c0-1.8,1-2.8,2.9-2.8h4.8
		v1h-0.8c-0.4,0-0.6,0-0.6,0l0,0c0,0,1.6,0.6,1.6,2.5c0,1.3-0.7,2.6-2.2,2.6C173.4,418.7,173.3,415.4,173.3,414.1z M177.3,416
		c0-1.4-1.5-2.3-2.8-2.3h-0.3v0.4c0,1.2,0,3.6,1.7,3.6C176.6,417.7,177.3,417.1,177.3,416z"/>
	<path d="M170.5,410.3v-1h1.1c0.3,0,0.6,0,0.6,0l0,0c-0.7-0.3-1.9-1.2-1.9-3c0-1.9,1.1-2.5,2.9-2.5h4.8v1h-4.5
		c-1.2,0-2.2,0.2-2.2,1.6c0,1.3,0.9,2.4,2.1,2.7c0.3,0.1,0.7,0.1,1,0.1h3.6v1L170.5,410.3L170.5,410.3z"/>
	<path d="M170.3,398c0-1.8,1.1-2.8,1.1-2.8l0.8,0.5c0,0-0.9,0.8-0.9,2.2c0,1.6,1.2,2.9,3,2.9s3-1.3,3-3c0-1.5-1.1-2.4-1.1-2.4
		l0.8-0.5c0,0,1.2,1,1.2,2.9c0,2.2-1.6,4-3.9,4C171.9,401.9,170.3,400.2,170.3,398z"/>
	<path d="M170.3,390c0-2.1,1.6-3.1,3.5-3.1c0.2,0,0.5,0,0.5,0v5.8c1.9,0,3-1.4,3-2.9c0-1.4-0.9-2.3-0.9-2.3l0.8-0.5
		c0,0,1.1,1.1,1.1,2.8c0,2.2-1.6,3.9-3.9,3.9C171.8,393.7,170.3,392,170.3,390z M173.4,387.9c-1.6,0.1-2.3,1-2.3,2.1
		c0,1.3,0.8,2.4,2.3,2.6V387.9z"/>
	<path d="M170.5,384.9v-1h1.3c0.3,0,0.6,0,0.6,0l0,0c-1.1-0.4-2-1.2-2-2.4c0-0.2,0-0.4,0-0.4h1c0,0,0,0.2,0,0.4
		c0,1.1,0.8,1.9,1.9,2.2c0.5,0.1,1,0.2,1.5,0.2h3.2v1L170.5,384.9L170.5,384.9z"/>
	<path d="M176.4,379.6c0,0,0.9-0.8,0.9-2.2c0-0.8-0.4-1.5-1.2-1.5c-1.6,0-1.2,4.1-3.7,4.1c-1.4,0-2.1-1.2-2.1-2.6
		c0-1.6,0.8-2.3,0.8-2.3l0.8,0.5c0,0-0.7,0.6-0.7,1.9c0,0.8,0.3,1.5,1.2,1.5c1.7,0,1.2-4.1,3.7-4.1c1.2,0,2.1,1.1,2.1,2.6
		c0,1.8-1.1,2.8-1.1,2.8L176.4,379.6z"/>
</g>
<g>
	<path d="M167.5,881.5v-1l7.6-5.4c0.5-0.4,1.4-0.9,1.4-0.9l0,0c0,0-0.9,0.1-1.4,0.1h-7.6v-1H178v1l-7.6,5.4
		c-0.5,0.4-1.4,0.9-1.4,0.9l0,0c0,0,0.9-0.1,1.4-0.1h7.6v1H167.5z"/>
	<path d="M174.6,865v4.2l3.4,1.2v1.1l-10.5-3.9v-1.1l10.5-3.9v1.1L174.6,865z M168.6,867.1c0,0,0.9,0.2,1.4,0.4l3.8,1.4v-3.6
		l-3.8,1.4C169.4,866.8,168.6,867.1,168.6,867.1L168.6,867.1z"/>
	<path d="M168.4,859.2v3.8h-0.9v-8.6h0.9v3.8h9.6v1H168.4z"/>
	<path d="M167.3,844.2c0-2.4,1.2-3.8,1.2-3.8l0.8,0.6c0,0-1,1.2-1,3.2c0,2.5,2,4.3,4.5,4.3c2.6,0,4.5-1.8,4.5-4.2
		c0-2.1-1.5-3.3-1.5-3.3H174v1.8h-1V840h5v1h-0.8c-0.2,0-0.5,0-0.5,0l0,0c0,0,1.4,1.2,1.4,3.4c0,2.9-2.3,5.2-5.5,5.2
		C169.7,849.5,167.3,847.2,167.3,844.2z"/>
	<path d="M173.3,833.7v-0.4h-0.2c-1.5,0-1.9,0.8-1.9,1.9c0,1.2,0.7,2.1,0.7,2.1l-0.8,0.5c0,0-0.9-1-0.9-2.7c0-1.8,1-2.8,2.9-2.8h4.8
		v1h-0.8c-0.4,0-0.6,0-0.6,0l0,0c0,0,1.6,0.6,1.6,2.5c0,1.3-0.7,2.6-2.2,2.6C173.4,838.3,173.3,835,173.3,833.7z M177.3,835.6
		c0-1.4-1.5-2.3-2.8-2.3h-0.3v0.4c0,1.2,0,3.6,1.7,3.6C176.6,837.2,177.3,836.7,177.3,835.6z"/>
	<path d="M171.4,829.6v1h-0.9v-1h-2.2v-1h2.2v-1.9h0.9v1.9h3.7c1.8,0,2-1.1,2-1.7c0-0.2,0-0.3,0-0.3h0.9c0,0,0,0.2,0,0.4
		c0,0.9-0.3,2.6-2.8,2.6H171.4z"/>
	<path d="M170.3,821.7c0-2.1,1.6-3.1,3.5-3.1c0.2,0,0.5,0,0.5,0v5.8c1.9,0,3-1.4,3-2.9c0-1.4-0.9-2.3-0.9-2.3l0.8-0.5
		c0,0,1.1,1.1,1.1,2.8c0,2.2-1.6,3.9-3.9,3.9C171.8,825.4,170.3,823.8,170.3,821.7z M173.4,819.6c-1.6,0.1-2.3,1-2.3,2.1
		c0,1.3,0.8,2.4,2.3,2.6V819.6z"/>
	<path d="M170.5,817.6v-1.1l5.6-1.8c0.4-0.1,0.8-0.2,0.8-0.2l0,0c0,0-0.5-0.1-0.8-0.2l-5.6-1.9v-1l5.6-1.9c0.4-0.1,0.8-0.2,0.8-0.2
		l0,0c0,0-0.4-0.1-0.8-0.2l-5.6-1.8v-1.1l7.5,2.5v1.1l-5.4,1.8c-0.4,0.1-0.8,0.2-0.8,0.2l0,0c0,0,0.4,0.1,0.8,0.2l5.4,1.8v1.1
		L170.5,817.6z"/>
	<path d="M173.3,800.6v-0.4h-0.2c-1.5,0-1.9,0.8-1.9,1.9c0,1.2,0.7,2.1,0.7,2.1l-0.8,0.5c0,0-0.9-1-0.9-2.7c0-1.8,1-2.8,2.9-2.8h4.8
		v1h-0.8c-0.4,0-0.6,0-0.6,0l0,0c0,0,1.6,0.6,1.6,2.5c0,1.3-0.7,2.6-2.2,2.6C173.4,805.2,173.3,801.9,173.3,800.6z M177.3,802.5
		c0-1.4-1.5-2.3-2.8-2.3h-0.3v0.4c0,1.2,0,3.6,1.7,3.6C176.6,804.2,177.3,803.6,177.3,802.5z"/>
	<path d="M179.9,797.5c0,0,0.3-0.4,0.3-0.9c0-0.7-0.5-1.1-1.2-1.4l-1.1-0.5l-7.5,3.2v-1.1l5.5-2.2c0.4-0.2,0.8-0.3,0.8-0.3l0,0
		c0,0-0.4-0.1-0.8-0.3l-5.5-2.2v-1.1l9.1,3.7c1,0.4,1.6,1.2,1.6,2.2c0,0.8-0.5,1.3-0.5,1.3L179.9,797.5z"/>
	<path d="M176.4,789.4c0,0,0.9-0.8,0.9-2.2c0-0.8-0.4-1.5-1.2-1.5c-1.6,0-1.2,4.1-3.7,4.1c-1.4,0-2.1-1.2-2.1-2.6
		c0-1.6,0.8-2.3,0.8-2.3l0.8,0.5c0,0-0.7,0.6-0.7,1.9c0,0.8,0.3,1.5,1.2,1.5c1.7,0,1.2-4.1,3.7-4.1c1.2,0,2.1,1.1,2.1,2.6
		c0,1.8-1.1,2.8-1.1,2.8L176.4,789.4z"/>
</g>
<g>
	<path d="M135.5,241.5h3.6c1.9,0,3.3,1.2,3.3,3.2s-1.4,3.2-3.3,3.2h-2.6v4.1h-1V241.5z M139,246.9c1.4,0,2.3-0.9,2.3-2.3
		c0-1.4-0.9-2.2-2.3-2.2h-2.5v4.5H139z"/>
	<path d="M144.1,244.5h1v4.5c0,1.2,0.2,2.2,1.6,2.2c1.7,0,2.8-1.5,2.8-3.1v-3.6h1v7.5h-1v-1.1c0-0.3,0-0.6,0-0.6l0,0
		c-0.3,0.7-1.3,1.9-3,1.9c-1.8,0-2.5-1-2.5-2.9L144.1,244.5L144.1,244.5z"/>
	<path d="M153,241.5h1v3.7c0,0.3,0,0.6,0,0.6l0,0c0,0,0.6-1.5,2.6-1.5s3.3,1.6,3.3,4s-1.4,3.9-3.4,3.9c-1.8,0-2.5-1.5-2.5-1.5l0,0
		c0,0,0,0.3,0,0.6v0.7h-1L153,241.5L153,241.5z M156.4,251.3c1.3,0,2.4-1.1,2.4-3c0-1.8-1-3-2.4-3c-1.3,0-2.4,0.9-2.4,3
		C154,249.8,154.8,251.3,156.4,251.3z"/>
	<path d="M161.8,241.5h1v8.5c0,1,0.5,1.1,0.8,1.1c0.1,0,0.3,0,0.3,0v0.9c0,0-0.2,0-0.4,0c-0.6,0-1.7-0.2-1.7-1.8L161.8,241.5
		L161.8,241.5z"/>
	<path d="M165.5,241.5h1.1v1.3h-1.1V241.5z M165.6,244.5h1v7.5h-1V244.5z"/>
	<path d="M172.5,244.3c1.8,0,2.8,1.1,2.8,1.1l-0.5,0.8c0,0-0.8-0.9-2.2-0.9c-1.6,0-2.9,1.2-2.9,3s1.3,3,3,3c1.5,0,2.4-1.1,2.4-1.1
		l0.5,0.8c0,0-1,1.2-2.9,1.2c-2.2,0-4-1.6-4-3.9C168.5,245.9,170.3,244.3,172.5,244.3z"/>
	<path d="M181.4,250c0,0,1.1,1.2,2.8,1.2c1.2,0,2.1-0.7,2.1-1.8c0-2.7-5.3-2-5.3-5.2c0-1.5,1.3-2.8,3.3-2.8c1.8,0,2.8,1,2.8,1
		l-0.5,0.9c0,0-0.9-0.9-2.3-0.9c-1.3,0-2.2,0.9-2.2,1.8c0,2.5,5.3,1.8,5.3,5.2c0,1.6-1.2,2.9-3.2,2.9c-2.2,0-3.3-1.4-3.3-1.4
		L181.4,250z"/>
	<path d="M189.3,244.5h1v4.5c0,1.2,0.2,2.2,1.6,2.2c1.7,0,2.8-1.5,2.8-3.1v-3.6h1v7.5h-1v-1.1c0-0.3,0-0.6,0-0.6l0,0
		c-0.3,0.7-1.3,1.9-3,1.9c-1.8,0-2.5-1-2.5-2.9L189.3,244.5L189.3,244.5z"/>
	<path d="M198.2,241.5h1v3.7c0,0.3,0,0.6,0,0.6l0,0c0,0,0.6-1.5,2.6-1.5s3.3,1.6,3.3,4s-1.4,3.9-3.4,3.9c-1.8,0-2.5-1.5-2.5-1.5l0,0
		c0,0,0,0.3,0,0.6v0.7h-1L198.2,241.5L198.2,241.5z M201.6,251.3c1.3,0,2.4-1.1,2.4-3c0-1.8-1-3-2.4-3c-1.3,0-2.4,0.9-2.4,3
		C199.2,249.8,200,251.3,201.6,251.3z"/>
	<path d="M207,244.5h1v1.1c0,0.3,0,0.6,0,0.6l0,0c0.3-0.7,1.2-1.9,3-1.9c1.9,0,2.5,1.1,2.5,2.9v4.8h-1v-4.5c0-1.2-0.2-2.2-1.6-2.2
		c-1.3,0-2.4,0.9-2.7,2.1c-0.1,0.3-0.1,0.7-0.1,1v3.6h-1L207,244.5L207,244.5z"/>
	<path d="M219.1,244.3c2.1,0,3.1,1.6,3.1,3.5c0,0.2,0,0.5,0,0.5h-5.8c0,1.9,1.4,3,2.9,3c1.4,0,2.3-0.9,2.3-0.9l0.5,0.8
		c0,0-1.1,1.1-2.8,1.1c-2.2,0-3.9-1.6-3.9-3.9C215.4,245.8,217.1,244.3,219.1,244.3z M221.2,247.4c-0.1-1.6-1-2.3-2.1-2.3
		c-1.3,0-2.4,0.8-2.6,2.3H221.2z"/>
	<path d="M224.5,245.4h-1v-0.9h1v-2.2h1v2.2h1.9v0.9h-1.9v3.7c0,1.8,1.1,2,1.7,2c0.2,0,0.3,0,0.3,0v0.9c0,0-0.2,0-0.4,0
		c-0.9,0-2.6-0.3-2.6-2.8V245.4z"/>
	<path d="M229.2,250.4c0,0,0.8,0.9,2.2,0.9c0.8,0,1.5-0.4,1.5-1.2c0-1.6-4.1-1.2-4.1-3.7c0-1.4,1.2-2.1,2.6-2.1
		c1.6,0,2.3,0.8,2.3,0.8l-0.5,0.8c0,0-0.6-0.7-1.9-0.7c-0.8,0-1.5,0.3-1.5,1.2c0,1.7,4.1,1.2,4.1,3.7c0,1.2-1.1,2.1-2.6,2.1
		c-1.8,0-2.8-1.1-2.8-1.1L229.2,250.4z"/>
</g>
<g>
	<path d="M324.5,241.5h3.6c1.9,0,3.3,1.2,3.3,3.2s-1.4,3.2-3.3,3.2h-2.6v4.1h-1V241.5z M328,246.9c1.4,0,2.3-0.9,2.3-2.3
		c0-1.4-0.9-2.2-2.3-2.2h-2.5v4.5H328z"/>
	<path d="M333.2,244.5h1v1.3c0,0.3,0,0.6,0,0.6l0,0c0.4-1.1,1.2-2,2.4-2c0.2,0,0.4,0,0.4,0v1c0,0-0.2,0-0.4,0
		c-1.1,0-1.9,0.8-2.2,1.9c-0.1,0.5-0.2,1-0.2,1.5v3.2h-1L333.2,244.5L333.2,244.5z"/>
	<path d="M338.5,241.5h1.1v1.3h-1.1V241.5z M338.5,244.5h1v7.5h-1V244.5z"/>
	<path d="M341,244.5h1.1l2.1,5.5c0.1,0.4,0.3,0.9,0.3,0.9l0,0c0,0,0.1-0.5,0.3-0.9l2.1-5.5h1.1l-3,7.5h-1.1L341,244.5z"/>
	<path d="M353.3,247.3h0.4v-0.2c0-1.5-0.8-1.9-1.9-1.9c-1.2,0-2.1,0.7-2.1,0.7l-0.5-0.8c0,0,1-0.9,2.7-0.9c1.8,0,2.8,1,2.8,2.9v4.8
		h-1v-0.8c0-0.4,0-0.6,0-0.6l0,0c0,0-0.6,1.6-2.5,1.6c-1.3,0-2.6-0.7-2.6-2.2C348.7,247.4,352,247.3,353.3,247.3z M351.4,251.3
		c1.4,0,2.3-1.5,2.3-2.8v-0.3h-0.4c-1.2,0-3.6,0-3.6,1.7C349.7,250.6,350.3,251.3,351.4,251.3z"/>
	<path d="M357.3,245.4h-1v-0.9h1v-2.2h1v2.2h1.9v0.9h-1.9v3.7c0,1.8,1.1,2,1.7,2c0.2,0,0.3,0,0.3,0v0.9c0,0-0.2,0-0.4,0
		c-0.9,0-2.6-0.3-2.6-2.8V245.4z"/>
	<path d="M365.3,244.3c2.1,0,3.1,1.6,3.1,3.5c0,0.2,0,0.5,0,0.5h-5.8c0,1.9,1.4,3,2.9,3c1.4,0,2.3-0.9,2.3-0.9l0.5,0.8
		c0,0-1.1,1.1-2.8,1.1c-2.2,0-3.9-1.6-3.9-3.9C361.5,245.8,363.2,244.3,365.3,244.3z M367.4,247.4c-0.1-1.6-1-2.3-2.1-2.3
		c-1.3,0-2.4,0.8-2.6,2.3H367.4z"/>
	<path d="M374.5,250c0,0,1.1,1.2,2.8,1.2c1.2,0,2.1-0.7,2.1-1.8c0-2.7-5.3-2-5.3-5.2c0-1.5,1.3-2.8,3.3-2.8c1.8,0,2.8,1,2.8,1
		l-0.5,0.9c0,0-0.9-0.9-2.3-0.9c-1.3,0-2.2,0.9-2.2,1.8c0,2.5,5.3,1.8,5.3,5.2c0,1.6-1.2,2.9-3.2,2.9c-2.2,0-3.3-1.4-3.3-1.4
		L374.5,250z"/>
	<path d="M382.4,244.5h1v4.5c0,1.2,0.2,2.2,1.6,2.2c1.7,0,2.8-1.5,2.8-3.1v-3.6h1v7.5h-1v-1.1c0-0.3,0-0.6,0-0.6l0,0
		c-0.3,0.7-1.3,1.9-3,1.9c-1.8,0-2.5-1-2.5-2.9v-4.8H382.4z"/>
	<path d="M391.3,241.5h1v3.7c0,0.3,0,0.6,0,0.6l0,0c0,0,0.6-1.5,2.6-1.5s3.3,1.6,3.3,4s-1.4,3.9-3.4,3.9c-1.8,0-2.5-1.5-2.5-1.5l0,0
		c0,0,0,0.3,0,0.6v0.7h-1V241.5z M394.7,251.3c1.3,0,2.4-1.1,2.4-3c0-1.8-1-3-2.4-3c-1.3,0-2.4,0.9-2.4,3
		C392.3,249.8,393.1,251.3,394.7,251.3z"/>
	<path d="M400.1,244.5h1v1.1c0,0.3,0,0.6,0,0.6l0,0c0.3-0.7,1.2-1.9,3-1.9c1.9,0,2.5,1.1,2.5,2.9v4.8h-1v-4.5c0-1.2-0.2-2.2-1.6-2.2
		c-1.3,0-2.4,0.9-2.7,2.1c-0.1,0.3-0.1,0.7-0.1,1v3.6h-1L400.1,244.5L400.1,244.5z"/>
	<path d="M412.2,244.3c2.1,0,3.1,1.6,3.1,3.5c0,0.2,0,0.5,0,0.5h-5.8c0,1.9,1.4,3,2.9,3c1.4,0,2.3-0.9,2.3-0.9l0.5,0.8
		c0,0-1.1,1.1-2.8,1.1c-2.2,0-3.9-1.6-3.9-3.9C408.5,245.8,410.2,244.3,412.2,244.3z M414.3,247.4c-0.1-1.6-1-2.3-2.1-2.3
		c-1.3,0-2.4,0.8-2.6,2.3H414.3z"/>
	<path d="M417.6,245.4h-1v-0.9h1v-2.2h1v2.2h1.9v0.9h-1.9v3.7c0,1.8,1.1,2,1.7,2c0.2,0,0.3,0,0.3,0v0.9c0,0-0.2,0-0.4,0
		c-0.9,0-2.6-0.3-2.6-2.8V245.4z"/>
	<path d="M422.3,250.4c0,0,0.8,0.9,2.2,0.9c0.8,0,1.5-0.4,1.5-1.2c0-1.6-4.1-1.2-4.1-3.7c0-1.4,1.2-2.1,2.6-2.1
		c1.6,0,2.3,0.8,2.3,0.8l-0.5,0.8c0,0-0.6-0.7-1.9-0.7c-0.8,0-1.5,0.3-1.5,1.2c0,1.7,4.1,1.2,4.1,3.7c0,1.2-1.1,2.1-2.6,2.1
		c-1.8,0-2.8-1.1-2.8-1.1L422.3,250.4z"/>
</g>
<g>
	<path d="M365.9,605c0,0-0.2,0.9-0.3,1.6l-2,7.4h-1.2l-2.7-10.5h1.1l2,8.2c0.1,0.5,0.2,1.1,0.2,1.1l0,0c0,0,0.1-0.6,0.2-1.1l2.2-8.2
		h1l2.2,8.2c0.1,0.5,0.2,1.1,0.2,1.1l0,0c0,0,0.1-0.6,0.2-1.1l2.1-8.2h1.1l-2.8,10.5h-1.2l-2-7.4C366.1,605.9,365.9,605,365.9,605
		L365.9,605z"/>
	<path d="M374.1,603.5h1.1v1.3h-1.1V603.5z M374.1,606.5h1v7.5h-1V606.5z"/>
	<path d="M377.6,606.5h1v1.1c0,0.3,0,0.6,0,0.6l0,0c0.3-0.7,1.2-1.9,3-1.9c1.9,0,2.5,1.1,2.5,2.9v4.8h-1v-4.5c0-1.2-0.2-2.2-1.6-2.2
		c-1.3,0-2.4,0.9-2.7,2.1c-0.1,0.3-0.1,0.7-0.1,1v3.6h-1L377.6,606.5L377.6,606.5z"/>
	<path d="M389.4,606.3c1.8,0,2.5,1.4,2.5,1.4l0,0c0,0,0-0.3,0-0.6v-3.7h1V614h-1v-0.8c0-0.3,0-0.5,0-0.5l0,0c0,0-0.6,1.5-2.6,1.5
		s-3.3-1.6-3.3-4C386,607.9,387.4,606.3,389.4,606.3z M389.4,613.3c1.3,0,2.4-0.9,2.4-3c0-1.5-0.8-3-2.4-3c-1.3,0-2.4,1.1-2.4,3
		C387.1,612.1,388,613.3,389.4,613.3z"/>
	<path d="M398.8,606.3c2.2,0,4,1.7,4,3.9c0,2.3-1.8,4-4,4s-4-1.7-4-4C394.8,608,396.6,606.3,398.8,606.3z M398.8,613.3
		c1.6,0,2.9-1.3,2.9-3.1c0-1.7-1.3-3-2.9-3s-2.9,1.3-2.9,3C395.8,612,397.2,613.3,398.8,613.3z"/>
	<path d="M403.7,606.5h1.1l1.8,5.6c0.1,0.4,0.2,0.8,0.2,0.8l0,0c0,0,0.1-0.4,0.2-0.8l1.9-5.6h1l1.9,5.6c0.1,0.4,0.2,0.8,0.2,0.8l0,0
		c0,0,0.1-0.4,0.2-0.8l1.8-5.6h1.1l-2.6,7.5h-1.1l-1.8-5.4c-0.1-0.4-0.2-0.8-0.2-0.8l0,0c0,0-0.1,0.4-0.2,0.8l-1.8,5.4h-1.1
		L403.7,606.5z"/>
	<path d="M416.6,612.4c0,0,0.8,0.9,2.2,0.9c0.8,0,1.5-0.4,1.5-1.2c0-1.7-4.1-1.2-4.1-3.7c0-1.3,1.2-2.1,2.6-2.1
		c1.6,0,2.3,0.8,2.3,0.8l-0.5,0.8c0,0-0.6-0.7-1.9-0.7c-0.8,0-1.5,0.3-1.5,1.2c0,1.7,4.1,1.2,4.1,3.7c0,1.2-1.1,2.1-2.6,2.1
		c-1.8,0-2.8-1.1-2.8-1.1L416.6,612.4z"/>
	<path d="M427.7,603.5h1V614h-1V603.5z"/>
	<path d="M431.5,606.5h1v1.1c0,0.3,0,0.6,0,0.6l0,0c0.3-0.7,1.2-1.9,3-1.9c1.9,0,2.5,1.1,2.5,2.9v4.8h-1v-4.5c0-1.2-0.2-2.2-1.6-2.2
		c-1.3,0-2.4,0.9-2.7,2.1c-0.1,0.3-0.1,0.7-0.1,1v3.6h-1L431.5,606.5L431.5,606.5z"/>
	<path d="M440.3,612.4c0,0,0.8,0.9,2.2,0.9c0.8,0,1.5-0.4,1.5-1.2c0-1.7-4.1-1.2-4.1-3.7c0-1.3,1.2-2.1,2.6-2.1
		c1.6,0,2.3,0.8,2.3,0.8l-0.5,0.8c0,0-0.6-0.7-1.9-0.7c-0.8,0-1.5,0.3-1.5,1.2c0,1.7,4.1,1.2,4.1,3.7c0,1.2-1.1,2.1-2.6,2.1
		c-1.8,0-2.8-1.1-2.8-1.1L440.3,612.4z"/>
	<path d="M447.3,607.4h-1v-0.9h1v-2.2h1v2.2h1.9v0.9h-1.9v3.8c0,1.8,1.1,2,1.7,2c0.2,0,0.3,0,0.3,0v0.9c0,0-0.2,0-0.4,0
		c-0.9,0-2.6-0.3-2.6-2.8V607.4z"/>
	<path d="M456,609.4h0.4v-0.2c0-1.5-0.8-2-1.9-2c-1.2,0-2.1,0.7-2.1,0.7l-0.5-0.8c0,0,1-0.9,2.7-0.9c1.8,0,2.8,1,2.8,2.9v4.8h-1
		v-0.8c0-0.4,0-0.6,0-0.6l0,0c0,0-0.6,1.6-2.5,1.6c-1.3,0-2.6-0.7-2.6-2.2C451.4,609.4,454.7,609.4,456,609.4z M454.1,613.3
		c1.4,0,2.3-1.5,2.3-2.8v-0.3H456c-1.2,0-3.6,0-3.6,1.7C452.5,612.6,453,613.3,454.1,613.3z"/>
	<path d="M459.8,606.5h1v1.1c0,0.3,0,0.6,0,0.6l0,0c0.3-0.7,1.2-1.9,3-1.9c1.9,0,2.5,1.1,2.5,2.9v4.8h-1v-4.5c0-1.2-0.2-2.2-1.6-2.2
		c-1.3,0-2.4,0.9-2.7,2.1c-0.1,0.3-0.1,0.7-0.1,1v3.6h-1L459.8,606.5L459.8,606.5z"/>
	<path d="M472.2,606.3c1.8,0,2.8,1.1,2.8,1.1l-0.5,0.8c0,0-0.8-0.9-2.2-0.9c-1.6,0-2.9,1.2-2.9,3s1.3,3,3,3c1.5,0,2.4-1.1,2.4-1.1
		l0.5,0.8c0,0-1,1.2-2.9,1.2c-2.2,0-4-1.6-4-3.9C468.2,607.9,469.9,606.3,472.2,606.3z"/>
	<path d="M480.2,606.3c2.1,0,3.1,1.6,3.1,3.5c0,0.2,0,0.5,0,0.5h-5.8c0,1.9,1.4,3,2.9,3c1.4,0,2.3-0.9,2.3-0.9l0.5,0.8
		c0,0-1.1,1-2.8,1c-2.2,0-3.9-1.6-3.9-3.9C476.4,607.8,478.1,606.3,480.2,606.3z M482.3,609.5c-0.1-1.6-1-2.3-2.1-2.3
		c-1.3,0-2.4,0.8-2.6,2.3H482.3z"/>
	<path d="M485.2,612.4c0,0,0.8,0.9,2.2,0.9c0.8,0,1.5-0.4,1.5-1.2c0-1.7-4.1-1.2-4.1-3.7c0-1.3,1.2-2.1,2.6-2.1
		c1.6,0,2.3,0.8,2.3,0.8l-0.5,0.8c0,0-0.6-0.7-1.9-0.7c-0.8,0-1.5,0.3-1.5,1.2c0,1.7,4.1,1.2,4.1,3.7c0,1.2-1.1,2.1-2.6,2.1
		c-1.8,0-2.8-1.1-2.8-1.1L485.2,612.4z"/>
</g>
<g>
	<path d="M359.9,277.5h1v9.6h4.9v0.9h-5.9V277.5z"/>
	<path d="M367.3,277.5h1.1v1.3h-1.1V277.5z M367.4,280.5h1v7.5h-1V280.5z"/>
	<path d="M370.9,280.5h1v1.1c0,0.3,0,0.6,0,0.6l0,0c0.3-0.7,1.2-1.9,3-1.9c1.9,0,2.5,1.1,2.5,2.9v4.8h-1v-4.5c0-1.2-0.2-2.2-1.6-2.2
		c-1.3,0-2.4,0.9-2.7,2.1c-0.1,0.3-0.1,0.7-0.1,1v3.6h-1L370.9,280.5L370.9,280.5z"/>
	<path d="M379.6,280.5h1v4.5c0,1.2,0.2,2.2,1.6,2.2c1.7,0,2.8-1.5,2.8-3.1v-3.6h1v7.5h-1v-1.1c0-0.3,0-0.6,0-0.6l0,0
		c-0.3,0.7-1.3,1.9-3,1.9c-1.8,0-2.5-1-2.5-2.9v-4.8H379.6z"/>
	<path d="M391,284.7c0,0-0.1,0.2-0.3,0.4l-1.8,2.8h-1.2l2.7-3.9l-2.4-3.6h1.2l1.6,2.5c0.1,0.2,0.3,0.4,0.3,0.4l0,0
		c0,0,0.1-0.2,0.3-0.4l1.6-2.5h1.2l-2.4,3.6l2.7,3.9h-1.2l-1.8-2.8C391.2,285,391,284.7,391,284.7L391,284.7L391,284.7z"/>
	<path d="M400.3,277.5h1V288h-1V277.5z"/>
	<path d="M404.1,280.5h1v1.1c0,0.3,0,0.6,0,0.6l0,0c0.3-0.7,1.2-1.9,3-1.9c1.9,0,2.5,1.1,2.5,2.9v4.8h-1v-4.5c0-1.2-0.2-2.2-1.6-2.2
		c-1.3,0-2.4,0.9-2.7,2.1c-0.1,0.3-0.1,0.7-0.1,1v3.6h-1L404.1,280.5L404.1,280.5z"/>
	<path d="M412.9,286.4c0,0,0.8,0.9,2.2,0.9c0.8,0,1.5-0.4,1.5-1.2c0-1.6-4.1-1.2-4.1-3.7c0-1.4,1.2-2.1,2.6-2.1
		c1.6,0,2.3,0.8,2.3,0.8l-0.5,0.8c0,0-0.6-0.7-1.9-0.7c-0.8,0-1.5,0.3-1.5,1.2c0,1.7,4.1,1.2,4.1,3.7c0,1.2-1.1,2.1-2.6,2.1
		c-1.8,0-2.8-1.1-2.8-1.1L412.9,286.4z"/>
	<path d="M419.9,281.4h-1v-0.9h1v-2.2h1v2.2h1.9v0.9h-1.9v3.7c0,1.8,1.1,2,1.7,2c0.2,0,0.3,0,0.3,0v0.9c0,0-0.2,0-0.4,0
		c-0.9,0-2.6-0.3-2.6-2.8V281.4z"/>
	<path d="M428.6,283.3h0.4v-0.2c0-1.5-0.8-1.9-1.9-1.9c-1.2,0-2.1,0.7-2.1,0.7l-0.5-0.8c0,0,1-0.9,2.7-0.9c1.8,0,2.8,1,2.8,2.9v4.8
		h-1v-0.8c0-0.4,0-0.6,0-0.6l0,0c0,0-0.6,1.6-2.5,1.6c-1.3,0-2.6-0.7-2.6-2.2C424,283.4,427.3,283.3,428.6,283.3z M426.7,287.3
		c1.4,0,2.3-1.5,2.3-2.8v-0.3h-0.4c-1.2,0-3.6,0-3.6,1.7C425.1,286.6,425.6,287.3,426.7,287.3z"/>
	<path d="M432.4,280.5h1v1.1c0,0.3,0,0.6,0,0.6l0,0c0.3-0.7,1.2-1.9,3-1.9c1.9,0,2.5,1.1,2.5,2.9v4.8h-1v-4.5c0-1.2-0.2-2.2-1.6-2.2
		c-1.3,0-2.4,0.9-2.7,2.1c-0.1,0.3-0.1,0.7-0.1,1v3.6h-1L432.4,280.5L432.4,280.5z"/>
	<path d="M444.8,280.3c1.8,0,2.8,1.1,2.8,1.1l-0.5,0.8c0,0-0.8-0.9-2.2-0.9c-1.6,0-2.9,1.2-2.9,3s1.3,3,3,3c1.5,0,2.4-1.1,2.4-1.1
		l0.5,0.8c0,0-1,1.2-2.9,1.2c-2.2,0-4-1.6-4-3.9C440.8,281.9,442.5,280.3,444.8,280.3z"/>
	<path d="M452.8,280.3c2.1,0,3.1,1.6,3.1,3.5c0,0.2,0,0.5,0,0.5h-5.8c0,1.9,1.4,3,2.9,3c1.4,0,2.3-0.9,2.3-0.9l0.5,0.8
		c0,0-1.1,1.1-2.8,1.1c-2.2,0-3.9-1.6-3.9-3.9C449,281.8,450.7,280.3,452.8,280.3z M454.9,283.4c-0.1-1.6-1-2.3-2.1-2.3
		c-1.3,0-2.4,0.8-2.6,2.3H454.9z"/>
	<path d="M457.8,286.4c0,0,0.8,0.9,2.2,0.9c0.8,0,1.5-0.4,1.5-1.2c0-1.6-4.1-1.2-4.1-3.7c0-1.4,1.2-2.1,2.6-2.1
		c1.6,0,2.3,0.8,2.3,0.8l-0.5,0.8c0,0-0.6-0.7-1.9-0.7c-0.8,0-1.5,0.3-1.5,1.2c0,1.7,4.1,1.2,4.1,3.7c0,1.2-1.1,2.1-2.6,2.1
		c-1.8,0-2.8-1.1-2.8-1.1L457.8,286.4z"/>
</g>
<g>
	<path d="M396.5,313.5h3.4c3.2,0,5.3,1.9,5.3,5.3s-2.1,5.3-5.3,5.3h-3.4V313.5z M399.8,323.1c2.6,0,4.3-1.5,4.3-4.3
		s-1.7-4.3-4.3-4.3h-2.3v8.7h2.3V323.1z"/>
	<path d="M410.8,316.3c2.2,0,4,1.7,4,3.9c0,2.3-1.8,4-4,4s-4-1.7-4-4C406.8,318,408.6,316.3,410.8,316.3z M410.8,323.3
		c1.6,0,2.9-1.3,2.9-3.1c0-1.7-1.3-3-2.9-3s-2.9,1.3-2.9,3C407.8,321.9,409.1,323.3,410.8,323.3z"/>
	<path d="M420.1,316.3c1.8,0,2.8,1.1,2.8,1.1l-0.5,0.8c0,0-0.8-0.9-2.2-0.9c-1.6,0-2.9,1.2-2.9,3s1.3,3,3,3c1.5,0,2.4-1.1,2.4-1.1
		l0.5,0.8c0,0-1,1.2-2.9,1.2c-2.2,0-4-1.6-4-3.9C416.1,317.9,417.9,316.3,420.1,316.3z"/>
	<path d="M424.9,313.5h1v5.9h1.2l2.3-2.9h1.2l-2.6,3.3l0,0l2.9,4.2h-1.2l-2.5-3.8H426v3.8h-1L424.9,313.5L424.9,313.5z"/>
	<path d="M435.5,316.3c2.1,0,3.1,1.6,3.1,3.5c0,0.2,0,0.5,0,0.5h-5.8c0,1.9,1.4,3,2.9,3c1.4,0,2.3-0.9,2.3-0.9l0.5,0.8
		c0,0-1.1,1.1-2.8,1.1c-2.2,0-3.9-1.6-3.9-3.9C431.8,317.8,433.5,316.3,435.5,316.3z M437.6,319.4c-0.1-1.6-1-2.3-2.1-2.3
		c-1.3,0-2.4,0.8-2.6,2.3H437.6z"/>
	<path d="M440.6,316.5h1v1.3c0,0.3,0,0.6,0,0.6l0,0c0.4-1.1,1.2-2,2.4-2c0.2,0,0.4,0,0.4,0v1c0,0-0.2,0-0.4,0
		c-1.1,0-1.9,0.8-2.2,1.9c-0.1,0.5-0.2,1-0.2,1.5v3.2h-1L440.6,316.5L440.6,316.5z"/>
	<path d="M450.8,313.5h1.1l2.8,6.2c0.2,0.5,0.5,1.3,0.5,1.3l0,0c0,0,0.3-0.8,0.5-1.3l2.8-6.2h1.1l0.8,10.5h-1l-0.6-7.4
		c0-0.6,0-1.5,0-1.5l0,0c0,0-0.3,0.9-0.6,1.5l-2.5,5.4h-1l-2.5-5.4c-0.2-0.5-0.6-1.5-0.6-1.5l0,0c0,0,0,0.9,0,1.5L451,324h-1
		L450.8,313.5z"/>
	<path d="M462.8,313.5h1.1v1.3h-1.1V313.5z M462.8,316.5h1v7.5h-1V316.5z"/>
	<path d="M469.7,316.3c1.8,0,2.8,1.1,2.8,1.1l-0.5,0.8c0,0-0.8-0.9-2.2-0.9c-1.6,0-2.9,1.2-2.9,3s1.3,3,3,3c1.5,0,2.4-1.1,2.4-1.1
		l0.5,0.8c0,0-1,1.2-2.9,1.2c-2.2,0-4-1.6-4-3.9C465.7,317.9,467.5,316.3,469.7,316.3z"/>
	<path d="M474.5,316.5h1v1.3c0,0.3,0,0.6,0,0.6l0,0c0.4-1.1,1.2-2,2.4-2c0.2,0,0.4,0,0.4,0v1c0,0-0.2,0-0.4,0
		c-1.1,0-1.9,0.8-2.2,1.9c-0.1,0.5-0.2,1-0.2,1.5v3.2h-1L474.5,316.5L474.5,316.5z"/>
	<path d="M483.2,316.3c2.2,0,4,1.7,4,3.9c0,2.3-1.8,4-4,4s-4-1.7-4-4C479.2,318,481,316.3,483.2,316.3z M483.2,323.3
		c1.6,0,2.9-1.3,2.9-3.1c0-1.7-1.3-3-2.9-3s-2.9,1.3-2.9,3C480.2,321.9,481.6,323.3,483.2,323.3z"/>
	<path d="M489,322.4c0,0,0.8,0.9,2.2,0.9c0.8,0,1.5-0.4,1.5-1.2c0-1.6-4.1-1.2-4.1-3.7c0-1.4,1.2-2.1,2.6-2.1c1.6,0,2.3,0.8,2.3,0.8
		l-0.5,0.8c0,0-0.6-0.7-1.9-0.7c-0.8,0-1.5,0.3-1.5,1.2c0,1.7,4.1,1.2,4.1,3.7c0,1.2-1.1,2.1-2.6,2.1c-1.8,0-2.8-1.1-2.8-1.1
		L489,322.4z"/>
	<path d="M498.9,316.3c2.1,0,3.1,1.6,3.1,3.5c0,0.2,0,0.5,0,0.5h-5.8c0,1.9,1.4,3,2.9,3c1.4,0,2.3-0.9,2.3-0.9l0.5,0.8
		c0,0-1.1,1.1-2.8,1.1c-2.2,0-3.9-1.6-3.9-3.9C495.2,317.8,496.9,316.3,498.9,316.3z M501,319.4c-0.1-1.6-1-2.3-2.1-2.3
		c-1.3,0-2.4,0.8-2.6,2.3H501z"/>
	<path d="M504,316.5h1v1.3c0,0.3,0,0.6,0,0.6l0,0c0.4-1.1,1.2-2,2.4-2c0.2,0,0.4,0,0.4,0v1c0,0-0.2,0-0.4,0c-1.1,0-1.9,0.8-2.2,1.9
		c-0.1,0.5-0.2,1-0.2,1.5v3.2h-1L504,316.5L504,316.5z"/>
	<path d="M508.3,316.5h1.1l2.1,5.5c0.1,0.4,0.3,0.9,0.3,0.9l0,0c0,0,0.1-0.5,0.3-0.9l2.1-5.5h1.1l-2.9,7.5h-1.1L508.3,316.5z"/>
	<path d="M516.6,313.5h1.1v1.3h-1.1V313.5z M516.6,316.5h1v7.5h-1V316.5z"/>
	<path d="M523.5,316.3c1.8,0,2.8,1.1,2.8,1.1l-0.5,0.8c0,0-0.8-0.9-2.2-0.9c-1.6,0-2.9,1.2-2.9,3s1.3,3,3,3c1.5,0,2.4-1.1,2.4-1.1
		l0.5,0.8c0,0-1,1.2-2.9,1.2c-2.2,0-4-1.6-4-3.9C519.6,317.9,521.3,316.3,523.5,316.3z"/>
	<path d="M531.5,316.3c2.1,0,3.1,1.6,3.1,3.5c0,0.2,0,0.5,0,0.5h-5.8c0,1.9,1.4,3,2.9,3c1.4,0,2.3-0.9,2.3-0.9l0.5,0.8
		c0,0-1.1,1.1-2.8,1.1c-2.2,0-3.9-1.6-3.9-3.9C527.8,317.8,529.5,316.3,531.5,316.3z M533.7,319.4c-0.1-1.6-1-2.3-2.1-2.3
		c-1.3,0-2.4,0.8-2.6,2.3H533.7z"/>
	<path d="M545.6,313.3c2.5,0,3.8,1.4,3.8,1.4l-0.6,0.8c0,0-1.2-1.2-3.2-1.2c-2.5,0-4.2,1.9-4.2,4.4s1.8,4.6,4.3,4.6
		c2.1,0,3.4-1.4,3.4-1.4l0.6,0.7c0,0-1.4,1.6-4,1.6c-3.1,0-5.3-2.4-5.3-5.5C540.3,315.6,542.6,313.3,545.6,313.3z"/>
	<path d="M555,316.3c2.2,0,4,1.7,4,3.9c0,2.3-1.8,4-4,4s-4-1.7-4-4C551,318,552.8,316.3,555,316.3z M555,323.3
		c1.6,0,2.9-1.3,2.9-3.1c0-1.7-1.3-3-2.9-3c-1.6,0-2.9,1.3-2.9,3S553.4,323.3,555,323.3z"/>
	<path d="M560.9,316.5h1v1.1c0,0.3,0,0.6,0,0.6l0,0c0.3-0.7,1.2-1.9,3-1.9c1.9,0,2.5,1.1,2.5,2.9v4.8h-1v-4.5c0-1.2-0.2-2.2-1.6-2.2
		c-1.3,0-2.4,0.9-2.7,2.1c-0.1,0.3-0.1,0.7-0.1,1v3.6h-1v-7.5H560.9z"/>
	<path d="M570.1,317.4h-1v-0.9h1v-2.2h1v2.2h1.9v0.9h-1.9v3.7c0,1.8,1.1,2,1.7,2c0.2,0,0.3,0,0.3,0v0.9c0,0-0.2,0-0.4,0
		c-0.9,0-2.6-0.3-2.6-2.8V317.4z"/>
	<path d="M578.9,319.3h0.4v-0.2c0-1.5-0.8-1.9-1.9-1.9c-1.2,0-2.1,0.7-2.1,0.7l-0.5-0.8c0,0,1-0.9,2.7-0.9c1.8,0,2.8,1,2.8,2.9v4.8
		h-1v-0.8c0-0.4,0-0.6,0-0.6l0,0c0,0-0.6,1.6-2.5,1.6c-1.3,0-2.6-0.7-2.6-2.2C574.2,319.4,577.5,319.3,578.9,319.3z M577,323.3
		c1.4,0,2.3-1.5,2.3-2.8v-0.3h-0.4c-1.2,0-3.6,0-3.6,1.7C575.3,322.6,575.8,323.3,577,323.3z"/>
	<path d="M582.6,313.5h1.1v1.3h-1.1V313.5z M582.6,316.5h1v7.5h-1V316.5z"/>
	<path d="M586.1,316.5h1v1.1c0,0.3,0,0.6,0,0.6l0,0c0.3-0.7,1.2-1.9,3-1.9c1.9,0,2.5,1.1,2.5,2.9v4.8h-1v-4.5c0-1.2-0.2-2.2-1.6-2.2
		c-1.3,0-2.4,0.9-2.7,2.1c-0.1,0.3-0.1,0.7-0.1,1v3.6h-1v-7.5H586.1z"/>
	<path d="M598.2,316.3c2.1,0,3.1,1.6,3.1,3.5c0,0.2,0,0.5,0,0.5h-5.8c0,1.9,1.4,3,2.9,3c1.4,0,2.3-0.9,2.3-0.9l0.5,0.8
		c0,0-1.1,1.1-2.8,1.1c-2.2,0-3.9-1.6-3.9-3.9C594.5,317.8,596.2,316.3,598.2,316.3z M600.3,319.4c-0.1-1.6-1-2.3-2.1-2.3
		c-1.3,0-2.4,0.8-2.6,2.3H600.3z"/>
	<path d="M603.3,316.5h1v1.3c0,0.3,0,0.6,0,0.6l0,0c0.4-1.1,1.2-2,2.4-2c0.2,0,0.4,0,0.4,0v1c0,0-0.2,0-0.4,0
		c-1.1,0-1.9,0.8-2.2,1.9c-0.2,0.5-0.2,1-0.2,1.5v3.2h-1V316.5z"/>
	<path d="M608.6,322.4c0,0,0.8,0.9,2.2,0.9c0.8,0,1.5-0.4,1.5-1.2c0-1.6-4.1-1.2-4.1-3.7c0-1.4,1.2-2.1,2.6-2.1
		c1.6,0,2.3,0.8,2.3,0.8l-0.5,0.8c0,0-0.6-0.7-1.9-0.7c-0.8,0-1.5,0.3-1.5,1.2c0,1.7,4.1,1.2,4.1,3.7c0,1.2-1.1,2.1-2.6,2.1
		c-1.8,0-2.8-1.1-2.8-1.1L608.6,322.4z"/>
</g>
<g>
	<path d="M396.5,376.5h3.4c3.2,0,5.3,1.9,5.3,5.3s-2.1,5.3-5.3,5.3h-3.4V376.5z M399.8,386.1c2.6,0,4.3-1.5,4.3-4.3
		s-1.7-4.3-4.3-4.3h-2.3v8.7h2.3V386.1z"/>
	<path d="M410.8,379.3c2.2,0,4,1.7,4,3.9c0,2.3-1.8,4-4,4s-4-1.7-4-4C406.8,381,408.6,379.3,410.8,379.3z M410.8,386.3
		c1.6,0,2.9-1.3,2.9-3.1c0-1.7-1.3-3-2.9-3s-2.9,1.3-2.9,3C407.8,384.9,409.1,386.3,410.8,386.3z"/>
	<path d="M420.1,379.3c1.8,0,2.8,1.1,2.8,1.1l-0.5,0.8c0,0-0.8-0.9-2.2-0.9c-1.6,0-2.9,1.2-2.9,3s1.3,3,3,3c1.5,0,2.4-1.1,2.4-1.1
		l0.5,0.8c0,0-1,1.2-2.9,1.2c-2.2,0-4-1.6-4-3.9C416.1,380.9,417.9,379.3,420.1,379.3z"/>
	<path d="M424.9,376.5h1v5.9h1.2l2.3-2.9h1.2l-2.6,3.3l0,0l2.9,4.2h-1.2l-2.5-3.8H426v3.8h-1L424.9,376.5L424.9,376.5z"/>
	<path d="M435.5,379.3c2.1,0,3.1,1.6,3.1,3.5c0,0.2,0,0.5,0,0.5h-5.8c0,1.9,1.4,3,2.9,3c1.4,0,2.3-0.9,2.3-0.9l0.5,0.8
		c0,0-1.1,1.1-2.8,1.1c-2.2,0-3.9-1.6-3.9-3.9C431.8,380.8,433.5,379.3,435.5,379.3z M437.6,382.4c-0.1-1.6-1-2.3-2.1-2.3
		c-1.3,0-2.4,0.8-2.6,2.3H437.6z"/>
	<path d="M440.6,379.5h1v1.3c0,0.3,0,0.6,0,0.6l0,0c0.4-1.1,1.2-2,2.4-2c0.2,0,0.4,0,0.4,0v1c0,0-0.2,0-0.4,0
		c-1.1,0-1.9,0.8-2.2,1.9c-0.1,0.5-0.2,1-0.2,1.5v3.2h-1L440.6,379.5L440.6,379.5z"/>
	<path d="M450.8,376.5h1.1l2.8,6.2c0.2,0.5,0.5,1.3,0.5,1.3l0,0c0,0,0.3-0.8,0.5-1.3l2.8-6.2h1.1l0.8,10.5h-1l-0.6-7.4
		c0-0.6,0-1.5,0-1.5l0,0c0,0-0.3,0.9-0.6,1.5l-2.5,5.4h-1l-2.5-5.4c-0.2-0.5-0.6-1.5-0.6-1.5l0,0c0,0,0,0.9,0,1.5L451,387h-1
		L450.8,376.5z"/>
	<path d="M462.8,376.5h1.1v1.3h-1.1V376.5z M462.8,379.5h1v7.5h-1V379.5z"/>
	<path d="M469.7,379.3c1.8,0,2.8,1.1,2.8,1.1l-0.5,0.8c0,0-0.8-0.9-2.2-0.9c-1.6,0-2.9,1.2-2.9,3s1.3,3,3,3c1.5,0,2.4-1.1,2.4-1.1
		l0.5,0.8c0,0-1,1.2-2.9,1.2c-2.2,0-4-1.6-4-3.9C465.7,380.9,467.5,379.3,469.7,379.3z"/>
	<path d="M474.5,379.5h1v1.3c0,0.3,0,0.6,0,0.6l0,0c0.4-1.1,1.2-2,2.4-2c0.2,0,0.4,0,0.4,0v1c0,0-0.2,0-0.4,0
		c-1.1,0-1.9,0.8-2.2,1.9c-0.1,0.5-0.2,1-0.2,1.5v3.2h-1L474.5,379.5L474.5,379.5z"/>
	<path d="M483.2,379.3c2.2,0,4,1.7,4,3.9c0,2.3-1.8,4-4,4s-4-1.7-4-4C479.2,381,481,379.3,483.2,379.3z M483.2,386.3
		c1.6,0,2.9-1.3,2.9-3.1c0-1.7-1.3-3-2.9-3s-2.9,1.3-2.9,3C480.2,384.9,481.6,386.3,483.2,386.3z"/>
	<path d="M489,385.4c0,0,0.8,0.9,2.2,0.9c0.8,0,1.5-0.4,1.5-1.2c0-1.6-4.1-1.2-4.1-3.7c0-1.4,1.2-2.1,2.6-2.1c1.6,0,2.3,0.8,2.3,0.8
		l-0.5,0.8c0,0-0.6-0.7-1.9-0.7c-0.8,0-1.5,0.3-1.5,1.2c0,1.7,4.1,1.2,4.1,3.7c0,1.2-1.1,2.1-2.6,2.1c-1.8,0-2.8-1.1-2.8-1.1
		L489,385.4z"/>
	<path d="M498.9,379.3c2.1,0,3.1,1.6,3.1,3.5c0,0.2,0,0.5,0,0.5h-5.8c0,1.9,1.4,3,2.9,3c1.4,0,2.3-0.9,2.3-0.9l0.5,0.8
		c0,0-1.1,1.1-2.8,1.1c-2.2,0-3.9-1.6-3.9-3.9C495.2,380.8,496.9,379.3,498.9,379.3z M501,382.4c-0.1-1.6-1-2.3-2.1-2.3
		c-1.3,0-2.4,0.8-2.6,2.3H501z"/>
	<path d="M504,379.5h1v1.3c0,0.3,0,0.6,0,0.6l0,0c0.4-1.1,1.2-2,2.4-2c0.2,0,0.4,0,0.4,0v1c0,0-0.2,0-0.4,0c-1.1,0-1.9,0.8-2.2,1.9
		c-0.1,0.5-0.2,1-0.2,1.5v3.2h-1L504,379.5L504,379.5z"/>
	<path d="M508.3,379.5h1.1l2.1,5.5c0.1,0.4,0.3,0.9,0.3,0.9l0,0c0,0,0.1-0.5,0.3-0.9l2.1-5.5h1.1l-2.9,7.5h-1.1L508.3,379.5z"/>
	<path d="M516.6,376.5h1.1v1.3h-1.1V376.5z M516.6,379.5h1v7.5h-1V379.5z"/>
	<path d="M523.5,379.3c1.8,0,2.8,1.1,2.8,1.1l-0.5,0.8c0,0-0.8-0.9-2.2-0.9c-1.6,0-2.9,1.2-2.9,3s1.3,3,3,3c1.5,0,2.4-1.1,2.4-1.1
		l0.5,0.8c0,0-1,1.2-2.9,1.2c-2.2,0-4-1.6-4-3.9C519.6,380.9,521.3,379.3,523.5,379.3z"/>
	<path d="M531.5,379.3c2.1,0,3.1,1.6,3.1,3.5c0,0.2,0,0.5,0,0.5h-5.8c0,1.9,1.4,3,2.9,3c1.4,0,2.3-0.9,2.3-0.9l0.5,0.8
		c0,0-1.1,1.1-2.8,1.1c-2.2,0-3.9-1.6-3.9-3.9C527.8,380.8,529.5,379.3,531.5,379.3z M533.7,382.4c-0.1-1.6-1-2.3-2.1-2.3
		c-1.3,0-2.4,0.8-2.6,2.3H533.7z"/>
	<path d="M545.6,376.3c2.5,0,3.8,1.4,3.8,1.4l-0.6,0.8c0,0-1.2-1.2-3.2-1.2c-2.5,0-4.2,1.9-4.2,4.4s1.8,4.6,4.3,4.6
		c2.1,0,3.4-1.4,3.4-1.4l0.6,0.7c0,0-1.4,1.6-4,1.6c-3.1,0-5.3-2.4-5.3-5.5C540.3,378.6,542.6,376.3,545.6,376.3z"/>
	<path d="M555,379.3c2.2,0,4,1.7,4,3.9c0,2.3-1.8,4-4,4s-4-1.7-4-4C551,381,552.8,379.3,555,379.3z M555,386.3
		c1.6,0,2.9-1.3,2.9-3.1c0-1.7-1.3-3-2.9-3c-1.6,0-2.9,1.3-2.9,3S553.4,386.3,555,386.3z"/>
	<path d="M560.9,379.5h1v1.1c0,0.3,0,0.6,0,0.6l0,0c0.3-0.7,1.2-1.9,3-1.9c1.9,0,2.5,1.1,2.5,2.9v4.8h-1v-4.5c0-1.2-0.2-2.2-1.6-2.2
		c-1.3,0-2.4,0.9-2.7,2.1c-0.1,0.3-0.1,0.7-0.1,1v3.6h-1v-7.5H560.9z"/>
	<path d="M570.1,380.4h-1v-0.9h1v-2.2h1v2.2h1.9v0.9h-1.9v3.7c0,1.8,1.1,2,1.7,2c0.2,0,0.3,0,0.3,0v0.9c0,0-0.2,0-0.4,0
		c-0.9,0-2.6-0.3-2.6-2.8V380.4z"/>
	<path d="M578.9,382.3h0.4v-0.2c0-1.5-0.8-1.9-1.9-1.9c-1.2,0-2.1,0.7-2.1,0.7l-0.5-0.8c0,0,1-0.9,2.7-0.9c1.8,0,2.8,1,2.8,2.9v4.8
		h-1v-0.8c0-0.4,0-0.6,0-0.6l0,0c0,0-0.6,1.6-2.5,1.6c-1.3,0-2.6-0.7-2.6-2.2C574.2,382.4,577.5,382.3,578.9,382.3z M577,386.3
		c1.4,0,2.3-1.5,2.3-2.8v-0.3h-0.4c-1.2,0-3.6,0-3.6,1.7C575.3,385.6,575.8,386.3,577,386.3z"/>
	<path d="M582.6,376.5h1.1v1.3h-1.1V376.5z M582.6,379.5h1v7.5h-1V379.5z"/>
	<path d="M586.1,379.5h1v1.1c0,0.3,0,0.6,0,0.6l0,0c0.3-0.7,1.2-1.9,3-1.9c1.9,0,2.5,1.1,2.5,2.9v4.8h-1v-4.5c0-1.2-0.2-2.2-1.6-2.2
		c-1.3,0-2.4,0.9-2.7,2.1c-0.1,0.3-0.1,0.7-0.1,1v3.6h-1v-7.5H586.1z"/>
	<path d="M598.2,379.3c2.1,0,3.1,1.6,3.1,3.5c0,0.2,0,0.5,0,0.5h-5.8c0,1.9,1.4,3,2.9,3c1.4,0,2.3-0.9,2.3-0.9l0.5,0.8
		c0,0-1.1,1.1-2.8,1.1c-2.2,0-3.9-1.6-3.9-3.9C594.5,380.8,596.2,379.3,598.2,379.3z M600.3,382.4c-0.1-1.6-1-2.3-2.1-2.3
		c-1.3,0-2.4,0.8-2.6,2.3H600.3z"/>
	<path d="M603.3,379.5h1v1.3c0,0.3,0,0.6,0,0.6l0,0c0.4-1.1,1.2-2,2.4-2c0.2,0,0.4,0,0.4,0v1c0,0-0.2,0-0.4,0
		c-1.1,0-1.9,0.8-2.2,1.9c-0.2,0.5-0.2,1-0.2,1.5v3.2h-1V379.5z"/>
	<path d="M608.6,385.4c0,0,0.8,0.9,2.2,0.9c0.8,0,1.5-0.4,1.5-1.2c0-1.6-4.1-1.2-4.1-3.7c0-1.4,1.2-2.1,2.6-2.1
		c1.6,0,2.3,0.8,2.3,0.8l-0.5,0.8c0,0-0.6-0.7-1.9-0.7c-0.8,0-1.5,0.3-1.5,1.2c0,1.7,4.1,1.2,4.1,3.7c0,1.2-1.1,2.1-2.6,2.1
		c-1.8,0-2.8-1.1-2.8-1.1L608.6,385.4z"/>
</g>
<g>
	<path d="M396.5,439.5h3.4c3.2,0,5.3,1.9,5.3,5.3s-2.1,5.3-5.3,5.3h-3.4V439.5z M399.8,449.1c2.6,0,4.3-1.5,4.3-4.3
		s-1.7-4.3-4.3-4.3h-2.3v8.7h2.3V449.1z"/>
	<path d="M410.8,442.3c2.2,0,4,1.7,4,3.9c0,2.3-1.8,4-4,4s-4-1.7-4-4C406.8,444,408.6,442.3,410.8,442.3z M410.8,449.3
		c1.6,0,2.9-1.3,2.9-3.1c0-1.7-1.3-3-2.9-3s-2.9,1.3-2.9,3C407.8,447.9,409.1,449.3,410.8,449.3z"/>
	<path d="M420.1,442.3c1.8,0,2.8,1.1,2.8,1.1l-0.5,0.8c0,0-0.8-0.9-2.2-0.9c-1.6,0-2.9,1.2-2.9,3s1.3,3,3,3c1.5,0,2.4-1.1,2.4-1.1
		l0.5,0.8c0,0-1,1.2-2.9,1.2c-2.2,0-4-1.6-4-3.9C416.1,443.9,417.9,442.3,420.1,442.3z"/>
	<path d="M424.9,439.5h1v5.9h1.2l2.3-2.9h1.2l-2.6,3.3l0,0l2.9,4.2h-1.2l-2.5-3.8H426v3.8h-1L424.9,439.5L424.9,439.5z"/>
	<path d="M435.5,442.3c2.1,0,3.1,1.6,3.1,3.5c0,0.2,0,0.5,0,0.5h-5.8c0,1.9,1.4,3,2.9,3c1.4,0,2.3-0.9,2.3-0.9l0.5,0.8
		c0,0-1.1,1.1-2.8,1.1c-2.2,0-3.9-1.6-3.9-3.9C431.8,443.8,433.5,442.3,435.5,442.3z M437.6,445.4c-0.1-1.6-1-2.3-2.1-2.3
		c-1.3,0-2.4,0.8-2.6,2.3H437.6z"/>
	<path d="M440.6,442.5h1v1.3c0,0.3,0,0.6,0,0.6l0,0c0.4-1.1,1.2-2,2.4-2c0.2,0,0.4,0,0.4,0v1c0,0-0.2,0-0.4,0
		c-1.1,0-1.9,0.8-2.2,1.9c-0.1,0.5-0.2,1-0.2,1.5v3.2h-1L440.6,442.5L440.6,442.5z"/>
	<path d="M450.8,439.5h1.1l2.8,6.2c0.2,0.5,0.5,1.3,0.5,1.3l0,0c0,0,0.3-0.8,0.5-1.3l2.8-6.2h1.1l0.8,10.5h-1l-0.6-7.4
		c0-0.6,0-1.5,0-1.5l0,0c0,0-0.3,0.9-0.6,1.5l-2.5,5.4h-1l-2.5-5.4c-0.2-0.5-0.6-1.5-0.6-1.5l0,0c0,0,0,0.9,0,1.5L451,450h-1
		L450.8,439.5z"/>
	<path d="M462.8,439.5h1.1v1.3h-1.1V439.5z M462.8,442.5h1v7.5h-1V442.5z"/>
	<path d="M469.7,442.3c1.8,0,2.8,1.1,2.8,1.1l-0.5,0.8c0,0-0.8-0.9-2.2-0.9c-1.6,0-2.9,1.2-2.9,3s1.3,3,3,3c1.5,0,2.4-1.1,2.4-1.1
		l0.5,0.8c0,0-1,1.2-2.9,1.2c-2.2,0-4-1.6-4-3.9C465.7,443.9,467.5,442.3,469.7,442.3z"/>
	<path d="M474.5,442.5h1v1.3c0,0.3,0,0.6,0,0.6l0,0c0.4-1.1,1.2-2,2.4-2c0.2,0,0.4,0,0.4,0v1c0,0-0.2,0-0.4,0
		c-1.1,0-1.9,0.8-2.2,1.9c-0.1,0.5-0.2,1-0.2,1.5v3.2h-1L474.5,442.5L474.5,442.5z"/>
	<path d="M483.2,442.3c2.2,0,4,1.7,4,3.9c0,2.3-1.8,4-4,4s-4-1.7-4-4C479.2,444,481,442.3,483.2,442.3z M483.2,449.3
		c1.6,0,2.9-1.3,2.9-3.1c0-1.7-1.3-3-2.9-3s-2.9,1.3-2.9,3C480.2,447.9,481.6,449.3,483.2,449.3z"/>
	<path d="M489,448.4c0,0,0.8,0.9,2.2,0.9c0.8,0,1.5-0.4,1.5-1.2c0-1.6-4.1-1.2-4.1-3.7c0-1.4,1.2-2.1,2.6-2.1c1.6,0,2.3,0.8,2.3,0.8
		l-0.5,0.8c0,0-0.6-0.7-1.9-0.7c-0.8,0-1.5,0.3-1.5,1.2c0,1.7,4.1,1.2,4.1,3.7c0,1.2-1.1,2.1-2.6,2.1c-1.8,0-2.8-1.1-2.8-1.1
		L489,448.4z"/>
	<path d="M498.9,442.3c2.1,0,3.1,1.6,3.1,3.5c0,0.2,0,0.5,0,0.5h-5.8c0,1.9,1.4,3,2.9,3c1.4,0,2.3-0.9,2.3-0.9l0.5,0.8
		c0,0-1.1,1.1-2.8,1.1c-2.2,0-3.9-1.6-3.9-3.9C495.2,443.8,496.9,442.3,498.9,442.3z M501,445.4c-0.1-1.6-1-2.3-2.1-2.3
		c-1.3,0-2.4,0.8-2.6,2.3H501z"/>
	<path d="M504,442.5h1v1.3c0,0.3,0,0.6,0,0.6l0,0c0.4-1.1,1.2-2,2.4-2c0.2,0,0.4,0,0.4,0v1c0,0-0.2,0-0.4,0c-1.1,0-1.9,0.8-2.2,1.9
		c-0.1,0.5-0.2,1-0.2,1.5v3.2h-1L504,442.5L504,442.5z"/>
	<path d="M508.3,442.5h1.1l2.1,5.5c0.1,0.4,0.3,0.9,0.3,0.9l0,0c0,0,0.1-0.5,0.3-0.9l2.1-5.5h1.1l-2.9,7.5h-1.1L508.3,442.5z"/>
	<path d="M516.6,439.5h1.1v1.3h-1.1V439.5z M516.6,442.5h1v7.5h-1V442.5z"/>
	<path d="M523.5,442.3c1.8,0,2.8,1.1,2.8,1.1l-0.5,0.8c0,0-0.8-0.9-2.2-0.9c-1.6,0-2.9,1.2-2.9,3s1.3,3,3,3c1.5,0,2.4-1.1,2.4-1.1
		l0.5,0.8c0,0-1,1.2-2.9,1.2c-2.2,0-4-1.6-4-3.9C519.6,443.9,521.3,442.3,523.5,442.3z"/>
	<path d="M531.5,442.3c2.1,0,3.1,1.6,3.1,3.5c0,0.2,0,0.5,0,0.5h-5.8c0,1.9,1.4,3,2.9,3c1.4,0,2.3-0.9,2.3-0.9l0.5,0.8
		c0,0-1.1,1.1-2.8,1.1c-2.2,0-3.9-1.6-3.9-3.9C527.8,443.8,529.5,442.3,531.5,442.3z M533.7,445.4c-0.1-1.6-1-2.3-2.1-2.3
		c-1.3,0-2.4,0.8-2.6,2.3H533.7z"/>
	<path d="M545.6,439.3c2.5,0,3.8,1.4,3.8,1.4l-0.6,0.8c0,0-1.2-1.2-3.2-1.2c-2.5,0-4.2,1.9-4.2,4.4s1.8,4.6,4.3,4.6
		c2.1,0,3.4-1.4,3.4-1.4l0.6,0.7c0,0-1.4,1.6-4,1.6c-3.1,0-5.3-2.4-5.3-5.5C540.3,441.6,542.6,439.3,545.6,439.3z"/>
	<path d="M555,442.3c2.2,0,4,1.7,4,3.9c0,2.3-1.8,4-4,4s-4-1.7-4-4C551,444,552.8,442.3,555,442.3z M555,449.3
		c1.6,0,2.9-1.3,2.9-3.1c0-1.7-1.3-3-2.9-3c-1.6,0-2.9,1.3-2.9,3S553.4,449.3,555,449.3z"/>
	<path d="M560.9,442.5h1v1.1c0,0.3,0,0.6,0,0.6l0,0c0.3-0.7,1.2-1.9,3-1.9c1.9,0,2.5,1.1,2.5,2.9v4.8h-1v-4.5c0-1.2-0.2-2.2-1.6-2.2
		c-1.3,0-2.4,0.9-2.7,2.1c-0.1,0.3-0.1,0.7-0.1,1v3.6h-1v-7.5H560.9z"/>
	<path d="M570.1,443.4h-1v-0.9h1v-2.2h1v2.2h1.9v0.9h-1.9v3.7c0,1.8,1.1,2,1.7,2c0.2,0,0.3,0,0.3,0v0.9c0,0-0.2,0-0.4,0
		c-0.9,0-2.6-0.3-2.6-2.8V443.4z"/>
	<path d="M578.9,445.3h0.4v-0.2c0-1.5-0.8-1.9-1.9-1.9c-1.2,0-2.1,0.7-2.1,0.7l-0.5-0.8c0,0,1-0.9,2.7-0.9c1.8,0,2.8,1,2.8,2.9v4.8
		h-1v-0.8c0-0.4,0-0.6,0-0.6l0,0c0,0-0.6,1.6-2.5,1.6c-1.3,0-2.6-0.7-2.6-2.2C574.2,445.4,577.5,445.3,578.9,445.3z M577,449.3
		c1.4,0,2.3-1.5,2.3-2.8v-0.3h-0.4c-1.2,0-3.6,0-3.6,1.7C575.3,448.6,575.8,449.3,577,449.3z"/>
	<path d="M582.6,439.5h1.1v1.3h-1.1V439.5z M582.6,442.5h1v7.5h-1V442.5z"/>
	<path d="M586.1,442.5h1v1.1c0,0.3,0,0.6,0,0.6l0,0c0.3-0.7,1.2-1.9,3-1.9c1.9,0,2.5,1.1,2.5,2.9v4.8h-1v-4.5c0-1.2-0.2-2.2-1.6-2.2
		c-1.3,0-2.4,0.9-2.7,2.1c-0.1,0.3-0.1,0.7-0.1,1v3.6h-1v-7.5H586.1z"/>
	<path d="M598.2,442.3c2.1,0,3.1,1.6,3.1,3.5c0,0.2,0,0.5,0,0.5h-5.8c0,1.9,1.4,3,2.9,3c1.4,0,2.3-0.9,2.3-0.9l0.5,0.8
		c0,0-1.1,1.1-2.8,1.1c-2.2,0-3.9-1.6-3.9-3.9C594.5,443.8,596.2,442.3,598.2,442.3z M600.3,445.4c-0.1-1.6-1-2.3-2.1-2.3
		c-1.3,0-2.4,0.8-2.6,2.3H600.3z"/>
	<path d="M603.3,442.5h1v1.3c0,0.3,0,0.6,0,0.6l0,0c0.4-1.1,1.2-2,2.4-2c0.2,0,0.4,0,0.4,0v1c0,0-0.2,0-0.4,0
		c-1.1,0-1.9,0.8-2.2,1.9c-0.2,0.5-0.2,1-0.2,1.5v3.2h-1V442.5z"/>
	<path d="M608.6,448.4c0,0,0.8,0.9,2.2,0.9c0.8,0,1.5-0.4,1.5-1.2c0-1.6-4.1-1.2-4.1-3.7c0-1.4,1.2-2.1,2.6-2.1
		c1.6,0,2.3,0.8,2.3,0.8l-0.5,0.8c0,0-0.6-0.7-1.9-0.7c-0.8,0-1.5,0.3-1.5,1.2c0,1.7,4.1,1.2,4.1,3.7c0,1.2-1.1,2.1-2.6,2.1
		c-1.8,0-2.8-1.1-2.8-1.1L608.6,448.4z"/>
</g>
<g>
	<path d="M396.5,502.5h3.4c3.2,0,5.3,1.9,5.3,5.3s-2.1,5.3-5.3,5.3h-3.4V502.5z M399.8,512.1c2.6,0,4.3-1.5,4.3-4.3
		s-1.7-4.3-4.3-4.3h-2.3v8.7h2.3V512.1z"/>
	<path d="M410.8,505.3c2.2,0,4,1.7,4,3.9c0,2.3-1.8,4-4,4s-4-1.7-4-4C406.8,507,408.6,505.3,410.8,505.3z M410.8,512.3
		c1.6,0,2.9-1.3,2.9-3.1c0-1.7-1.3-3-2.9-3s-2.9,1.3-2.9,3C407.8,510.9,409.1,512.3,410.8,512.3z"/>
	<path d="M420.1,505.3c1.8,0,2.8,1.1,2.8,1.1l-0.5,0.8c0,0-0.8-0.9-2.2-0.9c-1.6,0-2.9,1.2-2.9,3s1.3,3,3,3c1.5,0,2.4-1.1,2.4-1.1
		l0.5,0.8c0,0-1,1.2-2.9,1.2c-2.2,0-4-1.6-4-3.9C416.1,506.9,417.9,505.3,420.1,505.3z"/>
	<path d="M424.9,502.5h1v5.9h1.2l2.3-2.9h1.2l-2.6,3.3l0,0l2.9,4.2h-1.2l-2.5-3.8H426v3.8h-1L424.9,502.5L424.9,502.5z"/>
	<path d="M435.5,505.3c2.1,0,3.1,1.6,3.1,3.5c0,0.2,0,0.5,0,0.5h-5.8c0,1.9,1.4,3,2.9,3c1.4,0,2.3-0.9,2.3-0.9l0.5,0.8
		c0,0-1.1,1-2.8,1c-2.2,0-3.9-1.6-3.9-3.9C431.8,506.8,433.5,505.3,435.5,505.3z M437.6,508.4c-0.1-1.6-1-2.3-2.1-2.3
		c-1.3,0-2.4,0.8-2.6,2.3H437.6z"/>
	<path d="M440.6,505.5h1v1.3c0,0.3,0,0.6,0,0.6l0,0c0.4-1.1,1.2-2,2.4-2c0.2,0,0.4,0,0.4,0v1c0,0-0.2,0-0.4,0c-1.1,0-1.9,0.8-2.2,2
		c-0.1,0.5-0.2,1-0.2,1.5v3.2h-1L440.6,505.5L440.6,505.5z"/>
	<path d="M450.8,502.5h1.1l2.8,6.2c0.2,0.5,0.5,1.3,0.5,1.3l0,0c0,0,0.3-0.8,0.5-1.3l2.8-6.2h1.1l0.8,10.5h-1l-0.6-7.4
		c0-0.6,0-1.5,0-1.5l0,0c0,0-0.3,0.9-0.6,1.5l-2.5,5.4h-1l-2.5-5.4c-0.2-0.5-0.6-1.5-0.6-1.5l0,0c0,0,0,0.9,0,1.5L451,513h-1
		L450.8,502.5z"/>
	<path d="M462.8,502.5h1.1v1.3h-1.1V502.5z M462.8,505.5h1v7.5h-1V505.5z"/>
	<path d="M469.7,505.3c1.8,0,2.8,1.1,2.8,1.1l-0.5,0.8c0,0-0.8-0.9-2.2-0.9c-1.6,0-2.9,1.2-2.9,3s1.3,3,3,3c1.5,0,2.4-1.1,2.4-1.1
		l0.5,0.8c0,0-1,1.2-2.9,1.2c-2.2,0-4-1.6-4-3.9C465.7,506.9,467.5,505.3,469.7,505.3z"/>
	<path d="M474.5,505.5h1v1.3c0,0.3,0,0.6,0,0.6l0,0c0.4-1.1,1.2-2,2.4-2c0.2,0,0.4,0,0.4,0v1c0,0-0.2,0-0.4,0c-1.1,0-1.9,0.8-2.2,2
		c-0.1,0.5-0.2,1-0.2,1.5v3.2h-1L474.5,505.5L474.5,505.5z"/>
	<path d="M483.2,505.3c2.2,0,4,1.7,4,3.9c0,2.3-1.8,4-4,4s-4-1.7-4-4C479.2,507,481,505.3,483.2,505.3z M483.2,512.3
		c1.6,0,2.9-1.3,2.9-3.1c0-1.7-1.3-3-2.9-3s-2.9,1.3-2.9,3C480.2,510.9,481.6,512.3,483.2,512.3z"/>
	<path d="M489,511.3c0,0,0.8,0.9,2.2,0.9c0.8,0,1.5-0.4,1.5-1.2c0-1.7-4.1-1.2-4.1-3.7c0-1.3,1.2-2.1,2.6-2.1c1.6,0,2.3,0.8,2.3,0.8
		l-0.5,0.8c0,0-0.6-0.7-1.9-0.7c-0.8,0-1.5,0.3-1.5,1.2c0,1.7,4.1,1.2,4.1,3.7c0,1.2-1.1,2.1-2.6,2.1c-1.8,0-2.8-1.1-2.8-1.1
		L489,511.3z"/>
	<path d="M498.9,505.3c2.1,0,3.1,1.6,3.1,3.5c0,0.2,0,0.5,0,0.5h-5.8c0,1.9,1.4,3,2.9,3c1.4,0,2.3-0.9,2.3-0.9l0.5,0.8
		c0,0-1.1,1-2.8,1c-2.2,0-3.9-1.6-3.9-3.9C495.2,506.8,496.9,505.3,498.9,505.3z M501,508.4c-0.1-1.6-1-2.3-2.1-2.3
		c-1.3,0-2.4,0.8-2.6,2.3H501z"/>
	<path d="M504,505.5h1v1.3c0,0.3,0,0.6,0,0.6l0,0c0.4-1.1,1.2-2,2.4-2c0.2,0,0.4,0,0.4,0v1c0,0-0.2,0-0.4,0c-1.1,0-1.9,0.8-2.2,2
		c-0.1,0.5-0.2,1-0.2,1.5v3.2h-1L504,505.5L504,505.5z"/>
	<path d="M508.3,505.5h1.1l2.1,5.5c0.1,0.4,0.3,0.9,0.3,0.9l0,0c0,0,0.1-0.5,0.3-0.9l2.1-5.5h1.1l-2.9,7.5h-1.1L508.3,505.5z"/>
	<path d="M516.6,502.5h1.1v1.3h-1.1V502.5z M516.6,505.5h1v7.5h-1V505.5z"/>
	<path d="M523.5,505.3c1.8,0,2.8,1.1,2.8,1.1l-0.5,0.8c0,0-0.8-0.9-2.2-0.9c-1.6,0-2.9,1.2-2.9,3s1.3,3,3,3c1.5,0,2.4-1.1,2.4-1.1
		l0.5,0.8c0,0-1,1.2-2.9,1.2c-2.2,0-4-1.6-4-3.9C519.6,506.9,521.3,505.3,523.5,505.3z"/>
	<path d="M531.5,505.3c2.1,0,3.1,1.6,3.1,3.5c0,0.2,0,0.5,0,0.5h-5.8c0,1.9,1.4,3,2.9,3c1.4,0,2.3-0.9,2.3-0.9l0.5,0.8
		c0,0-1.1,1-2.8,1c-2.2,0-3.9-1.6-3.9-3.9C527.8,506.8,529.5,505.3,531.5,505.3z M533.7,508.4c-0.1-1.6-1-2.3-2.1-2.3
		c-1.3,0-2.4,0.8-2.6,2.3H533.7z"/>
	<path d="M545.6,502.3c2.5,0,3.8,1.4,3.8,1.4l-0.6,0.8c0,0-1.2-1.2-3.2-1.2c-2.5,0-4.2,1.9-4.2,4.4s1.8,4.6,4.3,4.6
		c2.1,0,3.4-1.4,3.4-1.4l0.6,0.7c0,0-1.4,1.6-4,1.6c-3.1,0-5.3-2.4-5.3-5.5C540.3,504.6,542.6,502.3,545.6,502.3z"/>
	<path d="M555,505.3c2.2,0,4,1.7,4,3.9c0,2.3-1.8,4-4,4s-4-1.7-4-4C551,507,552.8,505.3,555,505.3z M555,512.3
		c1.6,0,2.9-1.3,2.9-3.1c0-1.7-1.3-3-2.9-3c-1.6,0-2.9,1.3-2.9,3S553.4,512.3,555,512.3z"/>
	<path d="M560.9,505.5h1v1.1c0,0.3,0,0.6,0,0.6l0,0c0.3-0.7,1.2-1.9,3-1.9c1.9,0,2.5,1.1,2.5,2.9v4.8h-1v-4.5c0-1.2-0.2-2.2-1.6-2.2
		c-1.3,0-2.4,0.9-2.7,2.1c-0.1,0.3-0.1,0.7-0.1,1v3.6h-1v-7.5H560.9z"/>
	<path d="M570.1,506.4h-1v-0.9h1v-2.2h1v2.2h1.9v0.9h-1.9v3.8c0,1.8,1.1,2,1.7,2c0.2,0,0.3,0,0.3,0v0.9c0,0-0.2,0-0.4,0
		c-0.9,0-2.6-0.3-2.6-2.8V506.4z"/>
	<path d="M578.9,508.3h0.4v-0.2c0-1.5-0.8-2-1.9-2c-1.2,0-2.1,0.7-2.1,0.7l-0.5-0.8c0,0,1-0.9,2.7-0.9c1.8,0,2.8,1,2.8,2.9v4.8h-1
		V512c0-0.4,0-0.6,0-0.6l0,0c0,0-0.6,1.6-2.5,1.6c-1.3,0-2.6-0.7-2.6-2.2C574.2,508.4,577.5,508.3,578.9,508.3z M577,512.3
		c1.4,0,2.3-1.5,2.3-2.8v-0.3h-0.4c-1.2,0-3.6,0-3.6,1.7C575.3,511.6,575.8,512.3,577,512.3z"/>
	<path d="M582.6,502.5h1.1v1.3h-1.1V502.5z M582.6,505.5h1v7.5h-1V505.5z"/>
	<path d="M586.1,505.5h1v1.1c0,0.3,0,0.6,0,0.6l0,0c0.3-0.7,1.2-1.9,3-1.9c1.9,0,2.5,1.1,2.5,2.9v4.8h-1v-4.5c0-1.2-0.2-2.2-1.6-2.2
		c-1.3,0-2.4,0.9-2.7,2.1c-0.1,0.3-0.1,0.7-0.1,1v3.6h-1v-7.5H586.1z"/>
	<path d="M598.2,505.3c2.1,0,3.1,1.6,3.1,3.5c0,0.2,0,0.5,0,0.5h-5.8c0,1.9,1.4,3,2.9,3c1.4,0,2.3-0.9,2.3-0.9l0.5,0.8
		c0,0-1.1,1-2.8,1c-2.2,0-3.9-1.6-3.9-3.9C594.5,506.8,596.2,505.3,598.2,505.3z M600.3,508.4c-0.1-1.6-1-2.3-2.1-2.3
		c-1.3,0-2.4,0.8-2.6,2.3H600.3z"/>
	<path d="M603.3,505.5h1v1.3c0,0.3,0,0.6,0,0.6l0,0c0.4-1.1,1.2-2,2.4-2c0.2,0,0.4,0,0.4,0v1c0,0-0.2,0-0.4,0c-1.1,0-1.9,0.8-2.2,2
		c-0.2,0.5-0.2,1-0.2,1.5v3.2h-1V505.5z"/>
	<path d="M608.6,511.3c0,0,0.8,0.9,2.2,0.9c0.8,0,1.5-0.4,1.5-1.2c0-1.7-4.1-1.2-4.1-3.7c0-1.3,1.2-2.1,2.6-2.1
		c1.6,0,2.3,0.8,2.3,0.8l-0.5,0.8c0,0-0.6-0.7-1.9-0.7c-0.8,0-1.5,0.3-1.5,1.2c0,1.7,4.1,1.2,4.1,3.7c0,1.2-1.1,2.1-2.6,2.1
		c-1.8,0-2.8-1.1-2.8-1.1L608.6,511.3z"/>
</g>
<g>
	<path d="M396.5,637.5h3.4c3.2,0,5.3,1.9,5.3,5.3c0,3.4-2.1,5.3-5.3,5.3h-3.4V637.5z M399.8,647.1c2.6,0,4.3-1.5,4.3-4.3
		s-1.7-4.3-4.3-4.3h-2.3v8.7h2.3V647.1z"/>
	<path d="M410.8,640.3c2.2,0,4,1.7,4,3.9c0,2.3-1.8,4-4,4s-4-1.7-4-4C406.8,642,408.6,640.3,410.8,640.3z M410.8,647.3
		c1.6,0,2.9-1.3,2.9-3.1c0-1.7-1.3-3-2.9-3s-2.9,1.3-2.9,3C407.8,645.9,409.1,647.3,410.8,647.3z"/>
	<path d="M420.1,640.3c1.8,0,2.8,1.1,2.8,1.1l-0.5,0.8c0,0-0.8-0.9-2.2-0.9c-1.6,0-2.9,1.2-2.9,3s1.3,3,3,3c1.5,0,2.4-1.1,2.4-1.1
		l0.5,0.8c0,0-1,1.2-2.9,1.2c-2.2,0-4-1.6-4-3.9C416.1,641.9,417.9,640.3,420.1,640.3z"/>
	<path d="M424.9,637.5h1v5.9h1.2l2.3-2.9h1.2l-2.6,3.3l0,0l2.9,4.2h-1.2l-2.5-3.8H426v3.8h-1L424.9,637.5L424.9,637.5z"/>
	<path d="M435.5,640.3c2.1,0,3.1,1.6,3.1,3.5c0,0.2,0,0.5,0,0.5h-5.8c0,1.9,1.4,3,2.9,3c1.4,0,2.3-0.9,2.3-0.9l0.5,0.8
		c0,0-1.1,1-2.8,1c-2.2,0-3.9-1.6-3.9-3.9C431.8,641.8,433.5,640.3,435.5,640.3z M437.6,643.4c-0.1-1.6-1-2.3-2.1-2.3
		c-1.3,0-2.4,0.8-2.6,2.3H437.6z"/>
	<path d="M440.6,640.5h1v1.3c0,0.3,0,0.6,0,0.6l0,0c0.4-1.1,1.2-2,2.4-2c0.2,0,0.4,0,0.4,0v1c0,0-0.2,0-0.4,0c-1.1,0-1.9,0.8-2.2,2
		c-0.1,0.5-0.2,1-0.2,1.5v3.2h-1L440.6,640.5L440.6,640.5z"/>
	<path d="M454.9,637.3c2.5,0,3.8,1.4,3.8,1.4l-0.6,0.8c0,0-1.2-1.2-3.2-1.2c-2.5,0-4.2,1.9-4.2,4.4s1.8,4.6,4.3,4.6
		c2.1,0,3.4-1.4,3.4-1.4l0.6,0.7c0,0-1.4,1.6-4,1.6c-3.1,0-5.3-2.4-5.3-5.5C449.6,639.6,451.9,637.3,454.9,637.3z"/>
	<path d="M466.4,644.6h-4.2L461,648h-1.1l3.9-10.5h1.1l3.9,10.5h-1.1L466.4,644.6z M464.3,638.6c0,0-0.2,0.9-0.4,1.4l-1.4,3.8h3.6
		l-1.4-3.8C464.5,639.4,464.3,638.6,464.3,638.6L464.3,638.6z"/>
	<path d="M470.4,637.5h3.4c3.2,0,5.3,1.9,5.3,5.3c0,3.4-2.1,5.3-5.3,5.3h-3.4V637.5z M473.7,647.1c2.6,0,4.3-1.5,4.3-4.3
		s-1.7-4.3-4.3-4.3h-2.3v8.7h2.3V647.1z"/>
	<path d="M490.8,644.6h-4.2l-1.2,3.4h-1.1l3.9-10.5h1.1l3.9,10.5H492L490.8,644.6z M488.6,638.6c0,0-0.2,0.9-0.4,1.4l-1.4,3.8h3.6
		L489,640C488.9,639.4,488.7,638.6,488.6,638.6L488.6,638.6z"/>
	<path d="M494.5,640.5h1v0.7c0,0.3,0,0.6,0,0.6l0,0c0,0,0.6-1.5,2.6-1.5s3.3,1.6,3.3,4s-1.4,3.9-3.4,3.9c-1.8,0-2.5-1.4-2.5-1.4l0,0
		c0,0,0,0.3,0,0.7v3.6h-1V640.5z M497.9,647.3c1.3,0,2.4-1.1,2.4-3c0-1.8-1-3-2.4-3c-1.3,0-2.4,0.9-2.4,3
		C495.5,645.8,496.3,647.3,497.9,647.3z"/>
	<path d="M503.3,640.5h1v0.7c0,0.3,0,0.6,0,0.6l0,0c0,0,0.6-1.5,2.6-1.5s3.3,1.6,3.3,4s-1.4,3.9-3.4,3.9c-1.8,0-2.5-1.4-2.5-1.4l0,0
		c0,0,0,0.3,0,0.7v3.6h-1V640.5z M506.7,647.3c1.3,0,2.4-1.1,2.4-3c0-1.8-1-3-2.4-3c-1.3,0-2.4,0.9-2.4,3
		C504.3,645.8,505.2,647.3,506.7,647.3z"/>
	<path d="M512.1,637.5h1v8.5c0,1,0.5,1.1,0.8,1.1c0.1,0,0.3,0,0.3,0v0.9c0,0-0.2,0-0.4,0c-0.6,0-1.7-0.2-1.7-1.8L512.1,637.5
		L512.1,637.5z"/>
	<path d="M515.9,637.5h1.1v1.3h-1.1V637.5z M515.9,640.5h1v7.5h-1V640.5z"/>
	<path d="M522.8,640.3c1.8,0,2.8,1.1,2.8,1.1l-0.5,0.8c0,0-0.8-0.9-2.2-0.9c-1.6,0-2.9,1.2-2.9,3s1.3,3,3,3c1.5,0,2.4-1.1,2.4-1.1
		l0.5,0.8c0,0-1,1.2-2.9,1.2c-2.2,0-4-1.6-4-3.9C518.8,641.9,520.6,640.3,522.8,640.3z"/>
	<path d="M531.6,643.3h0.4v-0.2c0-1.5-0.8-2-1.9-2c-1.2,0-2.1,0.7-2.1,0.7l-0.5-0.8c0,0,1-0.9,2.7-0.9c1.8,0,2.8,1,2.8,2.9v4.8h-1
		V647c0-0.4,0-0.6,0-0.6l0,0c0,0-0.6,1.6-2.5,1.6c-1.3,0-2.6-0.7-2.6-2.2C527,643.4,530.3,643.3,531.6,643.3z M529.7,647.3
		c1.4,0,2.3-1.5,2.3-2.8v-0.3h-0.4c-1.2,0-3.6,0-3.6,1.7C528,646.6,528.6,647.3,529.7,647.3z"/>
	<path d="M535.6,641.4h-1v-0.9h1v-2.2h1v2.2h1.9v0.9h-1.9v3.8c0,1.8,1.1,2,1.7,2c0.2,0,0.3,0,0.3,0v0.9c0,0-0.2,0-0.4,0
		c-0.9,0-2.6-0.3-2.6-2.8V641.4z"/>
	<path d="M540.3,637.5h1.1v1.3h-1.1V637.5z M540.4,640.5h1v7.5h-1V640.5z"/>
	<path d="M547.3,640.3c2.2,0,4,1.7,4,3.9c0,2.3-1.8,4-4,4s-4-1.7-4-4C543.3,642,545.1,640.3,547.3,640.3z M547.3,647.3
		c1.6,0,2.9-1.3,2.9-3.1c0-1.7-1.3-3-2.9-3c-1.6,0-2.9,1.3-2.9,3C544.4,645.9,545.7,647.3,547.3,647.3z"/>
	<path d="M553.2,640.5h1v1.1c0,0.3,0,0.6,0,0.6l0,0c0.3-0.7,1.2-1.9,3-1.9c1.9,0,2.5,1.1,2.5,2.9v4.8h-1v-4.5c0-1.2-0.2-2.2-1.6-2.2
		c-1.3,0-2.4,0.9-2.7,2.1c-0.1,0.3-0.1,0.7-0.1,1v3.6h-1v-7.5H553.2z"/>
</g>
<g>
	<path d="M396.5,700.5h3.4c3.2,0,5.3,1.9,5.3,5.3c0,3.4-2.1,5.3-5.3,5.3h-3.4V700.5z M399.8,710.1c2.6,0,4.3-1.5,4.3-4.3
		s-1.7-4.3-4.3-4.3h-2.3v8.7h2.3V710.1z"/>
	<path d="M410.8,703.3c2.2,0,4,1.7,4,3.9c0,2.3-1.8,4-4,4s-4-1.7-4-4C406.8,705,408.6,703.3,410.8,703.3z M410.8,710.3
		c1.6,0,2.9-1.3,2.9-3.1c0-1.7-1.3-3-2.9-3s-2.9,1.3-2.9,3C407.8,708.9,409.1,710.3,410.8,710.3z"/>
	<path d="M420.1,703.3c1.8,0,2.8,1.1,2.8,1.1l-0.5,0.8c0,0-0.8-0.9-2.2-0.9c-1.6,0-2.9,1.2-2.9,3s1.3,3,3,3c1.5,0,2.4-1.1,2.4-1.1
		l0.5,0.8c0,0-1,1.2-2.9,1.2c-2.2,0-4-1.6-4-3.9C416.1,704.9,417.9,703.3,420.1,703.3z"/>
	<path d="M424.9,700.5h1v5.9h1.2l2.3-2.9h1.2l-2.6,3.3l0,0l2.9,4.2h-1.2l-2.5-3.8H426v3.8h-1L424.9,700.5L424.9,700.5z"/>
	<path d="M435.5,703.3c2.1,0,3.1,1.6,3.1,3.5c0,0.2,0,0.5,0,0.5h-5.8c0,1.9,1.4,3,2.9,3c1.4,0,2.3-0.9,2.3-0.9l0.5,0.8
		c0,0-1.1,1-2.8,1c-2.2,0-3.9-1.6-3.9-3.9C431.8,704.8,433.5,703.3,435.5,703.3z M437.6,706.4c-0.1-1.6-1-2.3-2.1-2.3
		c-1.3,0-2.4,0.8-2.6,2.3H437.6z"/>
	<path d="M440.6,703.5h1v1.3c0,0.3,0,0.6,0,0.6l0,0c0.4-1.1,1.2-2,2.4-2c0.2,0,0.4,0,0.4,0v1c0,0-0.2,0-0.4,0c-1.1,0-1.9,0.8-2.2,2
		c-0.1,0.5-0.2,1-0.2,1.5v3.2h-1L440.6,703.5L440.6,703.5z"/>
	<path d="M454.9,700.3c2.5,0,3.8,1.4,3.8,1.4l-0.6,0.8c0,0-1.2-1.2-3.2-1.2c-2.5,0-4.2,1.9-4.2,4.4s1.8,4.6,4.3,4.6
		c2.1,0,3.4-1.4,3.4-1.4l0.6,0.7c0,0-1.4,1.6-4,1.6c-3.1,0-5.3-2.4-5.3-5.5C449.6,702.6,451.9,700.3,454.9,700.3z"/>
	<path d="M466.4,707.6h-4.2L461,711h-1.1l3.9-10.5h1.1l3.9,10.5h-1.1L466.4,707.6z M464.3,701.6c0,0-0.2,0.9-0.4,1.4l-1.4,3.8h3.6
		l-1.4-3.8C464.5,702.4,464.3,701.6,464.3,701.6L464.3,701.6z"/>
	<path d="M470.4,700.5h3.4c3.2,0,5.3,1.9,5.3,5.3c0,3.4-2.1,5.3-5.3,5.3h-3.4V700.5z M473.7,710.1c2.6,0,4.3-1.5,4.3-4.3
		s-1.7-4.3-4.3-4.3h-2.3v8.7h2.3V710.1z"/>
	<path d="M490.8,707.6h-4.2l-1.2,3.4h-1.1l3.9-10.5h1.1l3.9,10.5H492L490.8,707.6z M488.6,701.6c0,0-0.2,0.9-0.4,1.4l-1.4,3.8h3.6
		L489,703C488.9,702.4,488.7,701.6,488.6,701.6L488.6,701.6z"/>
	<path d="M494.5,703.5h1v0.7c0,0.3,0,0.6,0,0.6l0,0c0,0,0.6-1.5,2.6-1.5s3.3,1.6,3.3,4s-1.4,3.9-3.4,3.9c-1.8,0-2.5-1.4-2.5-1.4l0,0
		c0,0,0,0.3,0,0.7v3.6h-1V703.5z M497.9,710.3c1.3,0,2.4-1.1,2.4-3c0-1.8-1-3-2.4-3c-1.3,0-2.4,0.9-2.4,3
		C495.5,708.8,496.3,710.3,497.9,710.3z"/>
	<path d="M503.3,703.5h1v0.7c0,0.3,0,0.6,0,0.6l0,0c0,0,0.6-1.5,2.6-1.5s3.3,1.6,3.3,4s-1.4,3.9-3.4,3.9c-1.8,0-2.5-1.4-2.5-1.4l0,0
		c0,0,0,0.3,0,0.7v3.6h-1V703.5z M506.7,710.3c1.3,0,2.4-1.1,2.4-3c0-1.8-1-3-2.4-3c-1.3,0-2.4,0.9-2.4,3
		C504.3,708.8,505.2,710.3,506.7,710.3z"/>
	<path d="M512.1,700.5h1v8.5c0,1,0.5,1.1,0.8,1.1c0.1,0,0.3,0,0.3,0v0.9c0,0-0.2,0-0.4,0c-0.6,0-1.7-0.2-1.7-1.8L512.1,700.5
		L512.1,700.5z"/>
	<path d="M515.9,700.5h1.1v1.3h-1.1V700.5z M515.9,703.5h1v7.5h-1V703.5z"/>
	<path d="M522.8,703.3c1.8,0,2.8,1.1,2.8,1.1l-0.5,0.8c0,0-0.8-0.9-2.2-0.9c-1.6,0-2.9,1.2-2.9,3s1.3,3,3,3c1.5,0,2.4-1.1,2.4-1.1
		l0.5,0.8c0,0-1,1.2-2.9,1.2c-2.2,0-4-1.6-4-3.9C518.8,704.9,520.6,703.3,522.8,703.3z"/>
	<path d="M531.6,706.3h0.4v-0.2c0-1.5-0.8-2-1.9-2c-1.2,0-2.1,0.7-2.1,0.7l-0.5-0.8c0,0,1-0.9,2.7-0.9c1.8,0,2.8,1,2.8,2.9v4.8h-1
		V710c0-0.4,0-0.6,0-0.6l0,0c0,0-0.6,1.6-2.5,1.6c-1.3,0-2.6-0.7-2.6-2.2C527,706.4,530.3,706.3,531.6,706.3z M529.7,710.3
		c1.4,0,2.3-1.5,2.3-2.8v-0.3h-0.4c-1.2,0-3.6,0-3.6,1.7C528,709.6,528.6,710.3,529.7,710.3z"/>
	<path d="M535.6,704.4h-1v-0.9h1v-2.2h1v2.2h1.9v0.9h-1.9v3.8c0,1.8,1.1,2,1.7,2c0.2,0,0.3,0,0.3,0v0.9c0,0-0.2,0-0.4,0
		c-0.9,0-2.6-0.3-2.6-2.8V704.4z"/>
	<path d="M540.3,700.5h1.1v1.3h-1.1V700.5z M540.4,703.5h1v7.5h-1V703.5z"/>
	<path d="M547.3,703.3c2.2,0,4,1.7,4,3.9c0,2.3-1.8,4-4,4s-4-1.7-4-4C543.3,705,545.1,703.3,547.3,703.3z M547.3,710.3
		c1.6,0,2.9-1.3,2.9-3.1c0-1.7-1.3-3-2.9-3c-1.6,0-2.9,1.3-2.9,3C544.4,708.9,545.7,710.3,547.3,710.3z"/>
	<path d="M553.2,703.5h1v1.1c0,0.3,0,0.6,0,0.6l0,0c0.3-0.7,1.2-1.9,3-1.9c1.9,0,2.5,1.1,2.5,2.9v4.8h-1v-4.5c0-1.2-0.2-2.2-1.6-2.2
		c-1.3,0-2.4,0.9-2.7,2.1c-0.1,0.3-0.1,0.7-0.1,1v3.6h-1v-7.5H553.2z"/>
</g>
<g>
	<path d="M396.5,763.5h3.4c3.2,0,5.3,1.9,5.3,5.3c0,3.4-2.1,5.3-5.3,5.3h-3.4V763.5z M399.8,773.1c2.6,0,4.3-1.5,4.3-4.3
		s-1.7-4.3-4.3-4.3h-2.3v8.7h2.3V773.1z"/>
	<path d="M410.8,766.3c2.2,0,4,1.7,4,3.9c0,2.3-1.8,4-4,4s-4-1.7-4-4C406.8,768,408.6,766.3,410.8,766.3z M410.8,773.3
		c1.6,0,2.9-1.3,2.9-3.1c0-1.7-1.3-3-2.9-3s-2.9,1.3-2.9,3C407.8,771.9,409.1,773.3,410.8,773.3z"/>
	<path d="M420.1,766.3c1.8,0,2.8,1.1,2.8,1.1l-0.5,0.8c0,0-0.8-0.9-2.2-0.9c-1.6,0-2.9,1.2-2.9,3s1.3,3,3,3c1.5,0,2.4-1.1,2.4-1.1
		l0.5,0.8c0,0-1,1.2-2.9,1.2c-2.2,0-4-1.6-4-3.9C416.1,767.9,417.9,766.3,420.1,766.3z"/>
	<path d="M424.9,763.5h1v5.9h1.2l2.3-2.9h1.2l-2.6,3.3l0,0l2.9,4.2h-1.2l-2.5-3.8H426v3.8h-1L424.9,763.5L424.9,763.5z"/>
	<path d="M435.5,766.3c2.1,0,3.1,1.6,3.1,3.5c0,0.2,0,0.5,0,0.5h-5.8c0,1.9,1.4,3,2.9,3c1.4,0,2.3-0.9,2.3-0.9l0.5,0.8
		c0,0-1.1,1-2.8,1c-2.2,0-3.9-1.6-3.9-3.9C431.8,767.8,433.5,766.3,435.5,766.3z M437.6,769.4c-0.1-1.6-1-2.3-2.1-2.3
		c-1.3,0-2.4,0.8-2.6,2.3H437.6z"/>
	<path d="M440.6,766.5h1v1.3c0,0.3,0,0.6,0,0.6l0,0c0.4-1.1,1.2-2,2.4-2c0.2,0,0.4,0,0.4,0v1c0,0-0.2,0-0.4,0c-1.1,0-1.9,0.8-2.2,2
		c-0.1,0.5-0.2,1-0.2,1.5v3.2h-1L440.6,766.5L440.6,766.5z"/>
	<path d="M454.9,763.3c2.5,0,3.8,1.4,3.8,1.4l-0.6,0.8c0,0-1.2-1.2-3.2-1.2c-2.5,0-4.2,1.9-4.2,4.4s1.8,4.6,4.3,4.6
		c2.1,0,3.4-1.4,3.4-1.4l0.6,0.7c0,0-1.4,1.6-4,1.6c-3.1,0-5.3-2.4-5.3-5.5C449.6,765.6,451.9,763.3,454.9,763.3z"/>
	<path d="M466.4,770.6h-4.2L461,774h-1.1l3.9-10.5h1.1l3.9,10.5h-1.1L466.4,770.6z M464.3,764.6c0,0-0.2,0.9-0.4,1.4l-1.4,3.8h3.6
		l-1.4-3.8C464.5,765.4,464.3,764.6,464.3,764.6L464.3,764.6z"/>
	<path d="M470.4,763.5h3.4c3.2,0,5.3,1.9,5.3,5.3c0,3.4-2.1,5.3-5.3,5.3h-3.4V763.5z M473.7,773.1c2.6,0,4.3-1.5,4.3-4.3
		s-1.7-4.3-4.3-4.3h-2.3v8.7h2.3V773.1z"/>
	<path d="M490.8,770.6h-4.2l-1.2,3.4h-1.1l3.9-10.5h1.1l3.9,10.5H492L490.8,770.6z M488.6,764.6c0,0-0.2,0.9-0.4,1.4l-1.4,3.8h3.6
		L489,766C488.9,765.4,488.7,764.6,488.6,764.6L488.6,764.6z"/>
	<path d="M494.5,766.5h1v0.7c0,0.3,0,0.6,0,0.6l0,0c0,0,0.6-1.5,2.6-1.5s3.3,1.6,3.3,4s-1.4,3.9-3.4,3.9c-1.8,0-2.5-1.4-2.5-1.4l0,0
		c0,0,0,0.3,0,0.7v3.6h-1V766.5z M497.9,773.3c1.3,0,2.4-1.1,2.4-3c0-1.8-1-3-2.4-3c-1.3,0-2.4,0.9-2.4,3
		C495.5,771.8,496.3,773.3,497.9,773.3z"/>
	<path d="M503.3,766.5h1v0.7c0,0.3,0,0.6,0,0.6l0,0c0,0,0.6-1.5,2.6-1.5s3.3,1.6,3.3,4s-1.4,3.9-3.4,3.9c-1.8,0-2.5-1.4-2.5-1.4l0,0
		c0,0,0,0.3,0,0.7v3.6h-1V766.5z M506.7,773.3c1.3,0,2.4-1.1,2.4-3c0-1.8-1-3-2.4-3c-1.3,0-2.4,0.9-2.4,3
		C504.3,771.8,505.2,773.3,506.7,773.3z"/>
	<path d="M512.1,763.5h1v8.5c0,1,0.5,1.1,0.8,1.1c0.1,0,0.3,0,0.3,0v0.9c0,0-0.2,0-0.4,0c-0.6,0-1.7-0.2-1.7-1.8L512.1,763.5
		L512.1,763.5z"/>
	<path d="M515.9,763.5h1.1v1.3h-1.1V763.5z M515.9,766.5h1v7.5h-1V766.5z"/>
	<path d="M522.8,766.3c1.8,0,2.8,1.1,2.8,1.1l-0.5,0.8c0,0-0.8-0.9-2.2-0.9c-1.6,0-2.9,1.2-2.9,3s1.3,3,3,3c1.5,0,2.4-1.1,2.4-1.1
		l0.5,0.8c0,0-1,1.2-2.9,1.2c-2.2,0-4-1.6-4-3.9C518.8,767.9,520.6,766.3,522.8,766.3z"/>
	<path d="M531.6,769.3h0.4v-0.2c0-1.5-0.8-2-1.9-2c-1.2,0-2.1,0.7-2.1,0.7l-0.5-0.8c0,0,1-0.9,2.7-0.9c1.8,0,2.8,1,2.8,2.9v4.8h-1
		V773c0-0.4,0-0.6,0-0.6l0,0c0,0-0.6,1.6-2.5,1.6c-1.3,0-2.6-0.7-2.6-2.2C527,769.4,530.3,769.3,531.6,769.3z M529.7,773.3
		c1.4,0,2.3-1.5,2.3-2.8v-0.3h-0.4c-1.2,0-3.6,0-3.6,1.7C528,772.6,528.6,773.3,529.7,773.3z"/>
	<path d="M535.6,767.4h-1v-0.9h1v-2.2h1v2.2h1.9v0.9h-1.9v3.8c0,1.8,1.1,2,1.7,2c0.2,0,0.3,0,0.3,0v0.9c0,0-0.2,0-0.4,0
		c-0.9,0-2.6-0.3-2.6-2.8V767.4z"/>
	<path d="M540.3,763.5h1.1v1.3h-1.1V763.5z M540.4,766.5h1v7.5h-1V766.5z"/>
	<path d="M547.3,766.3c2.2,0,4,1.7,4,3.9c0,2.3-1.8,4-4,4s-4-1.7-4-4C543.3,768,545.1,766.3,547.3,766.3z M547.3,773.3
		c1.6,0,2.9-1.3,2.9-3.1c0-1.7-1.3-3-2.9-3c-1.6,0-2.9,1.3-2.9,3C544.4,771.9,545.7,773.3,547.3,773.3z"/>
	<path d="M553.2,766.5h1v1.1c0,0.3,0,0.6,0,0.6l0,0c0.3-0.7,1.2-1.9,3-1.9c1.9,0,2.5,1.1,2.5,2.9v4.8h-1v-4.5c0-1.2-0.2-2.2-1.6-2.2
		c-1.3,0-2.4,0.9-2.7,2.1c-0.1,0.3-0.1,0.7-0.1,1v3.6h-1v-7.5H553.2z"/>
</g>
<g>
	<path d="M396.5,826.5h3.4c3.2,0,5.3,1.9,5.3,5.3c0,3.4-2.1,5.3-5.3,5.3h-3.4V826.5z M399.8,836.1c2.6,0,4.3-1.5,4.3-4.3
		s-1.7-4.3-4.3-4.3h-2.3v8.7h2.3V836.1z"/>
	<path d="M410.8,829.3c2.2,0,4,1.7,4,3.9c0,2.3-1.8,4-4,4s-4-1.7-4-4C406.8,831,408.6,829.3,410.8,829.3z M410.8,836.3
		c1.6,0,2.9-1.3,2.9-3.1c0-1.7-1.3-3-2.9-3s-2.9,1.3-2.9,3C407.8,834.9,409.1,836.3,410.8,836.3z"/>
	<path d="M420.1,829.3c1.8,0,2.8,1.1,2.8,1.1l-0.5,0.8c0,0-0.8-0.9-2.2-0.9c-1.6,0-2.9,1.2-2.9,3s1.3,3,3,3c1.5,0,2.4-1.1,2.4-1.1
		l0.5,0.8c0,0-1,1.2-2.9,1.2c-2.2,0-4-1.6-4-3.9C416.1,830.9,417.9,829.3,420.1,829.3z"/>
	<path d="M424.9,826.5h1v5.9h1.2l2.3-2.9h1.2l-2.6,3.3l0,0l2.9,4.2h-1.2l-2.5-3.8H426v3.8h-1L424.9,826.5L424.9,826.5z"/>
	<path d="M435.5,829.3c2.1,0,3.1,1.6,3.1,3.5c0,0.2,0,0.5,0,0.5h-5.8c0,1.9,1.4,3,2.9,3c1.4,0,2.3-0.9,2.3-0.9l0.5,0.8
		c0,0-1.1,1-2.8,1c-2.2,0-3.9-1.6-3.9-3.9C431.8,830.8,433.5,829.3,435.5,829.3z M437.6,832.4c-0.1-1.6-1-2.3-2.1-2.3
		c-1.3,0-2.4,0.8-2.6,2.3H437.6z"/>
	<path d="M440.6,829.5h1v1.3c0,0.3,0,0.6,0,0.6l0,0c0.4-1.1,1.2-2,2.4-2c0.2,0,0.4,0,0.4,0v1c0,0-0.2,0-0.4,0c-1.1,0-1.9,0.8-2.2,2
		c-0.1,0.5-0.2,1-0.2,1.5v3.2h-1L440.6,829.5L440.6,829.5z"/>
	<path d="M454.9,826.3c2.5,0,3.8,1.4,3.8,1.4l-0.6,0.8c0,0-1.2-1.2-3.2-1.2c-2.5,0-4.2,1.9-4.2,4.4s1.8,4.6,4.3,4.6
		c2.1,0,3.4-1.4,3.4-1.4l0.6,0.7c0,0-1.4,1.6-4,1.6c-3.1,0-5.3-2.4-5.3-5.5C449.6,828.6,451.9,826.3,454.9,826.3z"/>
	<path d="M466.4,833.6h-4.2L461,837h-1.1l3.9-10.5h1.1l3.9,10.5h-1.1L466.4,833.6z M464.3,827.6c0,0-0.2,0.9-0.4,1.4l-1.4,3.8h3.6
		l-1.4-3.8C464.5,828.4,464.3,827.6,464.3,827.6L464.3,827.6z"/>
	<path d="M470.4,826.5h3.4c3.2,0,5.3,1.9,5.3,5.3c0,3.4-2.1,5.3-5.3,5.3h-3.4V826.5z M473.7,836.1c2.6,0,4.3-1.5,4.3-4.3
		s-1.7-4.3-4.3-4.3h-2.3v8.7h2.3V836.1z"/>
	<path d="M490.8,833.6h-4.2l-1.2,3.4h-1.1l3.9-10.5h1.1l3.9,10.5H492L490.8,833.6z M488.6,827.6c0,0-0.2,0.9-0.4,1.4l-1.4,3.8h3.6
		L489,829C488.9,828.4,488.7,827.6,488.6,827.6L488.6,827.6z"/>
	<path d="M494.5,829.5h1v0.7c0,0.3,0,0.6,0,0.6l0,0c0,0,0.6-1.5,2.6-1.5s3.3,1.6,3.3,4s-1.4,3.9-3.4,3.9c-1.8,0-2.5-1.4-2.5-1.4l0,0
		c0,0,0,0.3,0,0.7v3.6h-1V829.5z M497.9,836.3c1.3,0,2.4-1.1,2.4-3c0-1.8-1-3-2.4-3c-1.3,0-2.4,0.9-2.4,3
		C495.5,834.8,496.3,836.3,497.9,836.3z"/>
	<path d="M503.3,829.5h1v0.7c0,0.3,0,0.6,0,0.6l0,0c0,0,0.6-1.5,2.6-1.5s3.3,1.6,3.3,4s-1.4,3.9-3.4,3.9c-1.8,0-2.5-1.4-2.5-1.4l0,0
		c0,0,0,0.3,0,0.7v3.6h-1V829.5z M506.7,836.3c1.3,0,2.4-1.1,2.4-3c0-1.8-1-3-2.4-3c-1.3,0-2.4,0.9-2.4,3
		C504.3,834.8,505.2,836.3,506.7,836.3z"/>
	<path d="M512.1,826.5h1v8.5c0,1,0.5,1.1,0.8,1.1c0.1,0,0.3,0,0.3,0v0.9c0,0-0.2,0-0.4,0c-0.6,0-1.7-0.2-1.7-1.8L512.1,826.5
		L512.1,826.5z"/>
	<path d="M515.9,826.5h1.1v1.3h-1.1V826.5z M515.9,829.5h1v7.5h-1V829.5z"/>
	<path d="M522.8,829.3c1.8,0,2.8,1.1,2.8,1.1l-0.5,0.8c0,0-0.8-0.9-2.2-0.9c-1.6,0-2.9,1.2-2.9,3s1.3,3,3,3c1.5,0,2.4-1.1,2.4-1.1
		l0.5,0.8c0,0-1,1.2-2.9,1.2c-2.2,0-4-1.6-4-3.9C518.8,830.9,520.6,829.3,522.8,829.3z"/>
	<path d="M531.6,832.3h0.4v-0.2c0-1.5-0.8-2-1.9-2c-1.2,0-2.1,0.7-2.1,0.7l-0.5-0.8c0,0,1-0.9,2.7-0.9c1.8,0,2.8,1,2.8,2.9v4.8h-1
		V836c0-0.4,0-0.6,0-0.6l0,0c0,0-0.6,1.6-2.5,1.6c-1.3,0-2.6-0.7-2.6-2.2C527,832.4,530.3,832.3,531.6,832.3z M529.7,836.3
		c1.4,0,2.3-1.5,2.3-2.8v-0.3h-0.4c-1.2,0-3.6,0-3.6,1.7C528,835.6,528.6,836.3,529.7,836.3z"/>
	<path d="M535.6,830.4h-1v-0.9h1v-2.2h1v2.2h1.9v0.9h-1.9v3.8c0,1.8,1.1,2,1.7,2c0.2,0,0.3,0,0.3,0v0.9c0,0-0.2,0-0.4,0
		c-0.9,0-2.6-0.3-2.6-2.8V830.4z"/>
	<path d="M540.3,826.5h1.1v1.3h-1.1V826.5z M540.4,829.5h1v7.5h-1V829.5z"/>
	<path d="M547.3,829.3c2.2,0,4,1.7,4,3.9c0,2.3-1.8,4-4,4s-4-1.7-4-4C543.3,831,545.1,829.3,547.3,829.3z M547.3,836.3
		c1.6,0,2.9-1.3,2.9-3.1c0-1.7-1.3-3-2.9-3c-1.6,0-2.9,1.3-2.9,3C544.4,834.9,545.7,836.3,547.3,836.3z"/>
	<path d="M553.2,829.5h1v1.1c0,0.3,0,0.6,0,0.6l0,0c0.3-0.7,1.2-1.9,3-1.9c1.9,0,2.5,1.1,2.5,2.9v4.8h-1v-4.5c0-1.2-0.2-2.2-1.6-2.2
		c-1.3,0-2.4,0.9-2.7,2.1c-0.1,0.3-0.1,0.7-0.1,1v3.6h-1v-7.5H553.2z"/>
</g>
<g>
	<path d="M100,205.5h1.1l2.8,6.2c0.2,0.5,0.5,1.3,0.5,1.3l0,0c0,0,0.3-0.8,0.5-1.3l2.8-6.2h1.1l0.8,10.5h-1l-0.6-7.4
		c0-0.6,0-1.5,0-1.5l0,0c0,0-0.3,0.9-0.6,1.5l-2.5,5.4h-1l-2.5-5.4c-0.2-0.5-0.6-1.5-0.6-1.5l0,0c0,0,0,0.9,0,1.5l-0.6,7.4h-1
		L100,205.5z"/>
	<path d="M111.9,208.5h1v4.5c0,1.2,0.2,2.2,1.6,2.2c1.7,0,2.8-1.5,2.8-3.1v-3.6h1v7.5h-1v-1.1c0-0.3,0-0.6,0-0.6l0,0
		c-0.3,0.7-1.3,1.9-3,1.9c-1.8,0-2.5-1-2.5-2.9L111.9,208.5L111.9,208.5z"/>
	<path d="M120.8,205.5h1v8.5c0,1,0.5,1.1,0.8,1.1c0.1,0,0.3,0,0.3,0v0.9c0,0-0.2,0-0.4,0c-0.6,0-1.7-0.2-1.7-1.8
		C120.8,214.2,120.8,205.5,120.8,205.5z"/>
	<path d="M124.8,209.4h-1v-0.9h1v-2.2h1v2.2h1.9v0.9h-1.9v3.7c0,1.8,1.1,2,1.7,2c0.2,0,0.3,0,0.3,0v0.9c0,0-0.2,0-0.4,0
		c-0.9,0-2.6-0.3-2.6-2.8V209.4z"/>
	<path d="M129.6,205.5h1.1v1.3h-1.1V205.5z M129.6,208.5h1v7.5h-1V208.5z"/>
	<path d="M133.1,208.5h1v0.7c0,0.3,0,0.6,0,0.6l0,0c0,0,0.6-1.5,2.6-1.5s3.3,1.6,3.3,4s-1.4,3.9-3.4,3.9c-1.8,0-2.5-1.4-2.5-1.4l0,0
		c0,0,0,0.3,0,0.7v3.6h-1L133.1,208.5L133.1,208.5z M136.5,215.3c1.3,0,2.4-1.1,2.4-3c0-1.8-1-3-2.4-3c-1.3,0-2.4,0.9-2.4,3
		C134.1,213.8,134.9,215.3,136.5,215.3z"/>
	<path d="M141.8,205.5h1v8.5c0,1,0.5,1.1,0.8,1.1c0.1,0,0.3,0,0.3,0v0.9c0,0-0.2,0-0.4,0c-0.6,0-1.7-0.2-1.7-1.8L141.8,205.5
		L141.8,205.5z"/>
	<path d="M148.8,208.3c2.1,0,3.1,1.6,3.1,3.5c0,0.2,0,0.5,0,0.5h-5.8c0,1.9,1.4,3,2.9,3c1.4,0,2.3-0.9,2.3-0.9l0.5,0.8
		c0,0-1.1,1.1-2.8,1.1c-2.2,0-3.9-1.6-3.9-3.9C145.1,209.8,146.8,208.3,148.8,208.3z M150.9,211.4c-0.1-1.6-1-2.3-2.1-2.3
		c-1.3,0-2.4,0.8-2.6,2.3H150.9z"/>
	<path d="M163.4,212.6h-4.2L158,216h-1.1l3.9-10.5h1.1l3.9,10.5h-1.1L163.4,212.6z M161.3,206.6c0,0-0.2,0.9-0.4,1.4l-1.4,3.8h3.6
		l-1.4-3.8C161.6,207.4,161.3,206.6,161.3,206.6L161.3,206.6z"/>
	<path d="M166.6,215.3l5.4-7.9c0.4-0.6,0.7-1,0.7-1l0,0c0,0-0.3,0-0.8,0h-5.1v-0.9h7.2v0.7l-5.4,7.9c-0.4,0.6-0.8,1-0.8,1l0,0
		c0,0,0.3,0,0.8,0h5.5v0.9h-7.5L166.6,215.3L166.6,215.3z"/>
	<path d="M176,214.4c0,0,0.8,0.9,2.2,0.9c0.8,0,1.5-0.4,1.5-1.2c0-1.6-4.1-1.2-4.1-3.7c0-1.4,1.2-2.1,2.6-2.1c1.6,0,2.3,0.8,2.3,0.8
		l-0.5,0.8c0,0-0.6-0.7-1.9-0.7c-0.8,0-1.5,0.3-1.5,1.2c0,1.7,4.1,1.2,4.1,3.7c0,1.2-1.1,2.1-2.6,2.1c-1.8,0-2.8-1.1-2.8-1.1
		L176,214.4z"/>
</g>
<g>
	<path d="M32.7,140.6h-4.2l-1.2,3.4h-1.1l3.9-10.5h1.1L35,144h-1.1L32.7,140.6z M30.6,134.6c0,0-0.2,0.9-0.4,1.4l-1.4,3.8h3.6
		L31,136C30.9,135.4,30.6,134.6,30.6,134.6L30.6,134.6z"/>
	<path d="M41.8,135c0,0-0.2,0.9-0.3,1.6l-2,7.4h-1.2l-2.7-10.5h1.1l2,8.2c0.1,0.5,0.2,1.1,0.2,1.1l0,0c0,0,0.1-0.6,0.2-1.1l2.2-8.2
		h1l2.2,8.2c0.1,0.5,0.2,1.1,0.2,1.1l0,0c0,0,0.1-0.6,0.2-1.1l2.1-8.2h1.1L45.5,144h-1.2l-2-7.4C42,135.9,41.9,135,41.8,135
		L41.8,135z"/>
	<path d="M50.2,142c0,0,1.1,1.2,2.8,1.2c1.2,0,2.1-0.7,2.1-1.8c0-2.7-5.3-2-5.3-5.2c0-1.5,1.3-2.8,3.3-2.8c1.8,0,2.8,1,2.8,1
		l-0.5,0.9c0,0-0.9-0.9-2.3-0.9c-1.3,0-2.2,0.9-2.2,1.8c0,2.5,5.3,1.8,5.3,5.2c0,1.6-1.2,2.9-3.2,2.9c-2.2,0-3.3-1.4-3.3-1.4
		L50.2,142z"/>
</g>
<g>
	<path d="M27.5,1059.5h1v9.6h4.9v0.9h-5.9C27.5,1070,27.5,1059.5,27.5,1059.5z"/>
	<path d="M38.4,1062.3c2.2,0,4,1.7,4,3.9c0,2.3-1.8,4-4,4s-4-1.7-4-4C34.4,1064,36.2,1062.3,38.4,1062.3z M38.4,1069.3
		c1.6,0,2.9-1.3,2.9-3.1c0-1.7-1.3-3-2.9-3c-1.6,0-2.9,1.3-2.9,3S36.8,1069.3,38.4,1069.3z"/>
	<path d="M46.9,1072.2c1.5,0,2.6-0.7,2.6-2.4v-0.7c0-0.3,0-0.5,0-0.5l0,0c-0.4,0.8-1.2,1.3-2.4,1.3c-2,0-3.4-1.6-3.4-3.9
		s1.2-3.8,3.3-3.8c2,0,2.5,1.3,2.5,1.3l0,0c0,0,0-0.1,0-0.3v-0.8h1v7.4c0,2.4-1.8,3.3-3.6,3.3c-0.9,0-1.7-0.2-2.5-0.6l0.4-0.8
		C44.9,1071.7,45.8,1072.2,46.9,1072.2z M49.6,1066.1c0-2.2-1-2.9-2.4-2.9c-1.5,0-2.3,1.1-2.3,2.9s1,3,2.5,3
		C48.5,1069,49.6,1068.3,49.6,1066.1z"/>
	<path d="M55.7,1072.2c1.5,0,2.6-0.7,2.6-2.4v-0.7c0-0.3,0-0.5,0-0.5l0,0c-0.5,0.8-1.2,1.3-2.4,1.3c-2,0-3.4-1.6-3.4-3.9
		s1.2-3.8,3.3-3.8c2,0,2.5,1.3,2.5,1.3l0,0c0,0,0-0.1,0-0.3v-0.8h1v7.4c0,2.4-1.8,3.3-3.6,3.3c-0.9,0-1.7-0.2-2.5-0.6l0.4-0.8
		C53.6,1071.7,54.6,1072.2,55.7,1072.2z M58.3,1066.1c0-2.2-1-2.9-2.4-2.9c-1.5,0-2.3,1.1-2.3,2.9s1,3,2.5,3
		C57.3,1069,58.3,1068.3,58.3,1066.1z"/>
	<path d="M61.7,1059.5h1v8.5c0,1,0.5,1.1,0.8,1.1c0.1,0,0.3,0,0.3,0v0.9c0,0-0.2,0-0.4,0c-0.6,0-1.7-0.2-1.7-1.8
		C61.7,1068.2,61.7,1059.5,61.7,1059.5z"/>
	<path d="M64.8,1071.9c0,0,0.4,0.3,0.9,0.3c0.7,0,1.1-0.5,1.4-1.2l0.5-1.1l-3.1-7.5h1.1l2.2,5.5c0.1,0.4,0.3,0.8,0.3,0.8l0,0
		c0,0,0.1-0.4,0.3-0.8l2.2-5.5h1.1l-3.7,9.1c-0.4,1-1.2,1.6-2.2,1.6c-0.8,0-1.3-0.4-1.3-0.4L64.8,1071.9z"/>
	<path d="M77,1064.9c0-2.2,0.6-4.1,1.7-5.9h0.9c-1.1,1.8-1.7,3.8-1.7,5.9c0,2.2,0.6,4.5,1.7,6.5h-0.9
		C77.6,1069.6,77,1067.3,77,1064.9z"/>
	<path d="M81.3,1059.5h1v8.5c0,1,0.5,1.1,0.8,1.1c0.1,0,0.3,0,0.3,0v0.9c0,0-0.2,0-0.4,0c-0.6,0-1.7-0.2-1.7-1.8
		C81.3,1068.2,81.3,1059.5,81.3,1059.5z"/>
	<path d="M88.5,1062.3c2.2,0,4,1.7,4,3.9c0,2.3-1.8,4-4,4s-4-1.7-4-4C84.5,1064,86.3,1062.3,88.5,1062.3z M88.5,1069.3
		c1.6,0,2.9-1.3,2.9-3.1c0-1.7-1.3-3-2.9-3s-2.9,1.3-2.9,3S86.9,1069.3,88.5,1069.3z"/>
	<path d="M97,1072.2c1.5,0,2.6-0.7,2.6-2.4v-0.7c0-0.3,0-0.5,0-0.5l0,0c-0.4,0.8-1.2,1.3-2.4,1.3c-2,0-3.4-1.6-3.4-3.9
		s1.2-3.8,3.3-3.8c2,0,2.5,1.3,2.5,1.3l0,0c0,0,0-0.1,0-0.3v-0.8h1v7.4c0,2.4-1.8,3.3-3.6,3.3c-0.9,0-1.7-0.2-2.5-0.6l0.4-0.8
		C95,1071.7,95.9,1072.2,97,1072.2z M99.7,1066.1c0-2.2-1-2.9-2.4-2.9c-1.5,0-2.3,1.1-2.3,2.9s1,3,2.5,3
		C98.6,1069,99.7,1068.3,99.7,1066.1z"/>
	<path d="M105.7,1072.2c1.5,0,2.6-0.7,2.6-2.4v-0.7c0-0.3,0-0.5,0-0.5l0,0c-0.4,0.8-1.2,1.3-2.4,1.3c-2,0-3.4-1.6-3.4-3.9
		s1.2-3.8,3.3-3.8c2,0,2.5,1.3,2.5,1.3l0,0c0,0,0-0.1,0-0.3v-0.8h1v7.4c0,2.4-1.8,3.3-3.6,3.3c-0.9,0-1.7-0.2-2.5-0.6l0.4-0.8
		C103.7,1071.7,104.6,1072.2,105.7,1072.2z M108.4,1066.1c0-2.2-1-2.9-2.4-2.9c-1.5,0-2.3,1.1-2.3,2.9s1,3,2.5,3
		C107.3,1069,108.4,1068.3,108.4,1066.1z"/>
	<path d="M111.8,1059.5h1.1v1.3h-1.1V1059.5z M111.9,1062.5h1v7.5h-1V1062.5z"/>
	<path d="M115.3,1062.5h1v1.1c0,0.3,0,0.6,0,0.6l0,0c0.3-0.7,1.2-1.9,3-1.9c1.9,0,2.5,1.1,2.5,2.9v4.8h-1v-4.5
		c0-1.2-0.2-2.2-1.6-2.2c-1.3,0-2.4,0.9-2.7,2.1c-0.1,0.3-0.1,0.7-0.1,1v3.6h-1v-7.5H115.3z"/>
	<path d="M126.8,1072.2c1.5,0,2.6-0.7,2.6-2.4v-0.7c0-0.3,0-0.5,0-0.5l0,0c-0.4,0.8-1.2,1.3-2.4,1.3c-2,0-3.4-1.6-3.4-3.9
		s1.2-3.8,3.3-3.8c2,0,2.5,1.3,2.5,1.3l0,0c0,0,0-0.1,0-0.3v-0.8h1v7.4c0,2.4-1.8,3.3-3.6,3.3c-0.9,0-1.7-0.2-2.5-0.6l0.4-0.8
		C124.8,1071.7,125.7,1072.2,126.8,1072.2z M129.5,1066.1c0-2.2-1-2.9-2.4-2.9c-1.5,0-2.3,1.1-2.3,2.9s1,3,2.5,3
		C128.4,1069,129.5,1068.3,129.5,1066.1z"/>
	<path d="M137,1065.3h3.5v-3.8h0.9v3.8h3.4v0.9h-3.4v3.8h-0.9v-3.8H137V1065.3z"/>
	<path d="M151.6,1063.4h-1v-0.9h1v-2.2h1v2.2h1.9v0.9h-1.9v3.8c0,1.8,1.1,2,1.7,2c0.2,0,0.3,0,0.3,0v0.9c0,0-0.2,0-0.4,0
		c-0.9,0-2.6-0.3-2.6-2.8V1063.4z"/>
	<path d="M159.6,1062.3c2.1,0,3.1,1.6,3.1,3.5c0,0.2,0,0.5,0,0.5h-5.8c0,1.9,1.4,3,2.9,3c1.4,0,2.3-0.9,2.3-0.9l0.5,0.8
		c0,0-1.1,1-2.8,1c-2.2,0-3.9-1.6-3.9-3.9C155.9,1063.8,157.5,1062.3,159.6,1062.3z M161.7,1065.4c-0.1-1.6-1-2.3-2.1-2.3
		c-1.3,0-2.4,0.8-2.6,2.3H161.7z"/>
	<path d="M164.6,1059.5h1v8.5c0,1,0.5,1.1,0.8,1.1c0.1,0,0.3,0,0.3,0v0.9c0,0-0.2,0-0.4,0c-0.6,0-1.7-0.2-1.7-1.8L164.6,1059.5
		L164.6,1059.5z"/>
	<path d="M171.6,1062.3c2.1,0,3.1,1.6,3.1,3.5c0,0.2,0,0.5,0,0.5h-5.8c0,1.9,1.4,3,2.9,3c1.4,0,2.3-0.9,2.3-0.9l0.5,0.8
		c0,0-1.1,1-2.8,1c-2.2,0-3.9-1.6-3.9-3.9C167.9,1063.8,169.5,1062.3,171.6,1062.3z M173.7,1065.4c-0.1-1.6-1-2.3-2.1-2.3
		c-1.3,0-2.4,0.8-2.6,2.3H173.7z"/>
	<path d="M176.7,1062.5h1v1.1c0,0.3,0,0.6,0,0.6l0,0c0.4-1,1.6-1.9,2.7-1.9c1.4,0,2.1,0.6,2.3,1.9l0,0c0.4-1,1.5-1.9,2.8-1.9
		c1.8,0,2.5,1.1,2.5,2.9v4.8h-1v-4.5c0-1.2-0.3-2.2-1.6-2.2c-1.2,0-2.1,1-2.4,2.1c-0.1,0.3-0.1,0.7-0.1,1.1v3.6h-1v-4.5
		c0-1.1-0.2-2.2-1.6-2.2c-1.2,0-2.2,1.1-2.5,2.2c-0.1,0.3-0.1,0.7-0.1,1v3.6h-1L176.7,1062.5L176.7,1062.5z"/>
	<path d="M193.6,1062.3c2.1,0,3.1,1.6,3.1,3.5c0,0.2,0,0.5,0,0.5h-5.8c0,1.9,1.4,3,2.9,3c1.4,0,2.3-0.9,2.3-0.9l0.5,0.8
		c0,0-1.1,1-2.8,1c-2.2,0-3.9-1.6-3.9-3.9C189.9,1063.8,191.6,1062.3,193.6,1062.3z M195.7,1065.4c-0.1-1.6-1-2.3-2.1-2.3
		c-1.3,0-2.4,0.8-2.6,2.3H195.7z"/>
	<path d="M199,1063.4h-1v-0.9h1v-2.2h1v2.2h1.9v0.9H200v3.8c0,1.8,1.1,2,1.7,2c0.2,0,0.3,0,0.3,0v0.9c0,0-0.2,0-0.4,0
		c-0.9,0-2.6-0.3-2.6-2.8V1063.4z"/>
	<path d="M203.7,1062.5h1v1.3c0,0.3,0,0.6,0,0.6l0,0c0.4-1.1,1.2-2,2.4-2c0.2,0,0.4,0,0.4,0v1c0,0-0.2,0-0.4,0c-1.1,0-1.9,0.8-2.2,2
		c-0.1,0.5-0.2,1-0.2,1.5v3.2h-1V1062.5z"/>
	<path d="M208.3,1071.9c0,0,0.4,0.3,0.9,0.3c0.7,0,1.1-0.5,1.4-1.2l0.5-1.1l-3.1-7.5h1.1l2.2,5.5c0.1,0.4,0.3,0.8,0.3,0.8l0,0
		c0,0,0.1-0.4,0.3-0.8l2.2-5.5h1.1l-3.7,9.1c-0.4,1-1.2,1.6-2.2,1.6c-0.8,0-1.3-0.4-1.3-0.4L208.3,1071.9z"/>
	<path d="M220.6,1065.3h3.5v-3.8h0.9v3.8h3.4v0.9H225v3.8h-0.9v-3.8h-3.5V1065.3z"/>
	<path d="M234.9,1059.5h1.1v1.3h-1.1V1059.5z M234.9,1062.5h1v7.5h-1V1062.5z"/>
	<path d="M238.4,1062.5h1v1.1c0,0.3,0,0.6,0,0.6l0,0c0.3-0.7,1.2-1.9,3-1.9c1.9,0,2.5,1.1,2.5,2.9v4.8h-1v-4.5
		c0-1.2-0.2-2.2-1.6-2.2c-1.3,0-2.4,0.9-2.7,2.1c-0.1,0.3-0.1,0.7-0.1,1v3.6h-1L238.4,1062.5L238.4,1062.5z"/>
	<path d="M247.3,1068.3c0,0,0.8,0.9,2.2,0.9c0.8,0,1.5-0.4,1.5-1.2c0-1.7-4.1-1.2-4.1-3.7c0-1.3,1.2-2.1,2.6-2.1
		c1.6,0,2.3,0.8,2.3,0.8l-0.5,0.8c0,0-0.6-0.7-1.9-0.7c-0.8,0-1.5,0.3-1.5,1.2c0,1.7,4.1,1.2,4.1,3.7c0,1.2-1.1,2.1-2.6,2.1
		c-1.8,0-2.8-1.1-2.8-1.1L247.3,1068.3z"/>
	<path d="M254.3,1063.4h-1v-0.9h1v-2.2h1v2.2h1.9v0.9h-1.9v3.8c0,1.8,1.1,2,1.7,2c0.2,0,0.3,0,0.3,0v0.9c0,0-0.2,0-0.4,0
		c-0.9,0-2.6-0.3-2.6-2.8L254.3,1063.4L254.3,1063.4z"/>
	<path d="M259,1062.5h1v1.3c0,0.3,0,0.6,0,0.6l0,0c0.4-1.1,1.2-2,2.4-2c0.2,0,0.4,0,0.4,0v1c0,0-0.2,0-0.4,0c-1.1,0-1.9,0.8-2.2,2
		c-0.1,0.5-0.2,1-0.2,1.5v3.2h-1L259,1062.5L259,1062.5z"/>
	<path d="M264.2,1062.5h1v4.5c0,1.2,0.2,2.2,1.6,2.2c1.7,0,2.8-1.5,2.8-3.1v-3.6h1v7.5h-1v-1.1c0-0.3,0-0.6,0-0.6l0,0
		c-0.3,0.7-1.3,1.9-3,1.9c-1.8,0-2.5-1-2.5-2.9v-4.8H264.2z"/>
	<path d="M273.2,1062.5h1v1.1c0,0.3,0,0.6,0,0.6l0,0c0.4-1,1.6-1.9,2.7-1.9c1.4,0,2.1,0.6,2.3,1.9l0,0c0.4-1,1.5-1.9,2.8-1.9
		c1.8,0,2.5,1.1,2.5,2.9v4.8h-1v-4.5c0-1.2-0.3-2.2-1.6-2.2c-1.2,0-2.1,1-2.4,2.1c-0.1,0.3-0.1,0.7-0.1,1.1v3.6h-1v-4.5
		c0-1.1-0.2-2.2-1.6-2.2c-1.2,0-2.2,1.1-2.5,2.2c-0.1,0.3-0.1,0.7-0.1,1v3.6h-1L273.2,1062.5L273.2,1062.5z"/>
	<path d="M290.1,1062.3c2.1,0,3.1,1.6,3.1,3.5c0,0.2,0,0.5,0,0.5h-5.8c0,1.9,1.4,3,2.9,3c1.4,0,2.3-0.9,2.3-0.9l0.5,0.8
		c0,0-1.1,1-2.8,1c-2.2,0-3.9-1.6-3.9-3.9C286.4,1063.8,288,1062.3,290.1,1062.3z M292.2,1065.4c-0.1-1.6-1-2.3-2.1-2.3
		c-1.3,0-2.4,0.8-2.6,2.3H292.2z"/>
	<path d="M295.2,1062.5h1v1.1c0,0.3,0,0.6,0,0.6l0,0c0.3-0.7,1.2-1.9,3-1.9c1.9,0,2.5,1.1,2.5,2.9v4.8h-1v-4.5
		c0-1.2-0.2-2.2-1.6-2.2c-1.3,0-2.4,0.9-2.7,2.1c-0.1,0.3-0.1,0.7-0.1,1v3.6h-1L295.2,1062.5L295.2,1062.5z"/>
	<path d="M304.4,1063.4h-1v-0.9h1v-2.2h1v2.2h1.9v0.9h-1.9v3.8c0,1.8,1.1,2,1.7,2c0.2,0,0.3,0,0.3,0v0.9c0,0-0.2,0-0.4,0
		c-0.9,0-2.6-0.3-2.6-2.8V1063.4z"/>
	<path d="M313.1,1065.3h0.4v-0.2c0-1.5-0.8-2-1.9-2c-1.2,0-2.1,0.7-2.1,0.7l-0.5-0.8c0,0,1-0.9,2.7-0.9c1.8,0,2.8,1,2.8,2.9v4.8h-1
		v-0.8c0-0.4,0-0.6,0-0.6l0,0c0,0-0.6,1.6-2.5,1.6c-1.3,0-2.6-0.7-2.6-2.2C308.5,1065.4,311.8,1065.3,313.1,1065.3z M311.2,1069.3
		c1.4,0,2.3-1.5,2.3-2.8v-0.3h-0.4c-1.2,0-3.6,0-3.6,1.7C309.5,1068.6,310.1,1069.3,311.2,1069.3z"/>
	<path d="M317.1,1063.4h-1v-0.9h1v-2.2h1v2.2h1.9v0.9h-1.9v3.8c0,1.8,1.1,2,1.7,2c0.2,0,0.3,0,0.3,0v0.9c0,0-0.2,0-0.4,0
		c-0.9,0-2.6-0.3-2.6-2.8V1063.4z"/>
	<path d="M321.9,1059.5h1.1v1.3h-1.1V1059.5z M321.9,1062.5h1v7.5h-1V1062.5z"/>
	<path d="M328.8,1062.3c2.2,0,4,1.7,4,3.9c0,2.3-1.8,4-4,4s-4-1.7-4-4C324.8,1064,326.6,1062.3,328.8,1062.3z M328.8,1069.3
		c1.6,0,2.9-1.3,2.9-3.1c0-1.7-1.3-3-2.9-3s-2.9,1.3-2.9,3S327.2,1069.3,328.8,1069.3z"/>
	<path d="M334.7,1062.5h1v1.1c0,0.3,0,0.6,0,0.6l0,0c0.3-0.7,1.2-1.9,3-1.9c1.9,0,2.5,1.1,2.5,2.9v4.8h-1v-4.5
		c0-1.2-0.2-2.2-1.6-2.2c-1.3,0-2.4,0.9-2.7,2.1c-0.1,0.3-0.1,0.7-0.1,1v3.6h-1L334.7,1062.5L334.7,1062.5z"/>
	<path d="M342.9,1071.4c1.1-2,1.7-4.2,1.7-6.5c0-2.1-0.6-4.1-1.7-5.9h0.9c1.1,1.8,1.7,3.7,1.7,5.9c0,2.4-0.6,4.7-1.7,6.5H342.9z"/>
</g>
<g>
	<path d="M61.2,169.5h1.1l2.9,8c0.2,0.5,0.4,1.4,0.4,1.4l0,0c0,0,0.2-0.8,0.4-1.4l2.9-8H70L66.2,180h-1.1L61.2,169.5z"/>
	<path d="M71.8,169.5h3.6c1.9,0,3.3,1.2,3.3,3.2s-1.4,3.2-3.3,3.2h-2.6v4.1h-1V169.5z M75.3,174.9c1.4,0,2.3-0.9,2.3-2.3
		c0-1.4-0.9-2.2-2.3-2.2h-2.5v4.5H75.3z"/>
	<path d="M85.4,169.3c2.5,0,3.8,1.4,3.8,1.4l-0.6,0.8c0,0-1.2-1.2-3.2-1.2c-2.5,0-4.2,1.9-4.2,4.4s1.8,4.6,4.3,4.6
		c2.1,0,3.4-1.4,3.4-1.4l0.6,0.7c0,0-1.4,1.6-4,1.6c-3.1,0-5.3-2.4-5.3-5.5C80.1,171.6,82.3,169.3,85.4,169.3z"/>
</g>
<g>
	<path d="M29.9,80.4h-3.8v-0.9h8.6v0.9h-3.8V90h-1C29.9,90,29.9,80.4,29.9,80.4z"/>
	<path d="M34.5,82.5h1v1.3c0,0.3,0,0.6,0,0.6l0,0c0.4-1.1,1.2-2,2.4-2c0.2,0,0.4,0,0.4,0v1c0,0-0.2,0-0.4,0c-1.1,0-1.9,0.8-2.2,1.9
		c-0.1,0.5-0.2,1-0.2,1.5V90h-1V82.5z"/>
	<path d="M43.8,85.3h0.4v-0.2c0-1.5-0.8-1.9-1.9-1.9c-1.2,0-2.1,0.7-2.1,0.7l-0.5-0.8c0,0,1-0.9,2.7-0.9c1.8,0,2.8,1,2.8,2.9V90h-1
		v-0.8c0-0.4,0-0.6,0-0.6l0,0c0,0-0.6,1.6-2.5,1.6c-1.3,0-2.6-0.7-2.6-2.2C39.2,85.4,42.5,85.3,43.8,85.3z M41.9,89.3
		c1.4,0,2.3-1.5,2.3-2.8v-0.3h-0.4c-1.2,0-3.6,0-3.6,1.7C40.2,88.6,40.8,89.3,41.9,89.3z"/>
	<path d="M46.5,82.5h1.1l2.1,5.5c0.1,0.4,0.3,0.9,0.3,0.9l0,0c0,0,0.1-0.5,0.3-0.9l2.1-5.5h1.1l-3,7.5h-1.1L46.5,82.5z"/>
	<path d="M54.8,79.5h1.1v1.3h-1.1V79.5z M54.8,82.5h1V90h-1V82.5z"/>
	<path d="M58.3,88.4c0,0,0.8,0.9,2.2,0.9c0.8,0,1.5-0.4,1.5-1.2c0-1.6-4.1-1.2-4.1-3.7c0-1.4,1.2-2.1,2.6-2.1c1.6,0,2.3,0.8,2.3,0.8
		l-0.5,0.8c0,0-0.6-0.7-1.9-0.7c-0.8,0-1.5,0.3-1.5,1.2c0,1.7,4.1,1.2,4.1,3.7c0,1.2-1.1,2.1-2.6,2.1c-1.8,0-2.8-1.1-2.8-1.1
		L58.3,88.4z"/>
	<path d="M73.9,79.3c2.5,0,3.8,1.4,3.8,1.4l-0.6,0.8c0,0-1.2-1.2-3.2-1.2c-2.5,0-4.2,1.9-4.2,4.4s1.8,4.6,4.3,4.6
		c2.1,0,3.4-1.4,3.4-1.4l0.6,0.7c0,0-1.4,1.6-4,1.6c-3.1,0-5.3-2.4-5.3-5.5C68.6,81.6,70.9,79.3,73.9,79.3z"/>
	<path d="M80.2,79.5h1V90h-1V79.5z"/>
	<path d="M88,84.9c0-2.2,0.6-4.1,1.7-5.9h0.9c-1.1,1.8-1.7,3.8-1.7,5.9c0,2.2,0.6,4.5,1.7,6.5h-0.9C88.7,89.6,88,87.3,88,84.9z"/>
	<path d="M95.8,82.3c1.8,0,2.8,1.1,2.8,1.1l-0.5,0.8c0,0-0.8-0.9-2.2-0.9c-1.6,0-2.9,1.2-2.9,3s1.3,3,3,3c1.5,0,2.4-1.1,2.4-1.1
		l0.5,0.8c0,0-1,1.2-2.9,1.2c-2.2,0-4-1.6-4-3.9C91.9,83.9,93.6,82.3,95.8,82.3z"/>
	<path d="M104.1,82.3c2.2,0,4,1.7,4,3.9c0,2.3-1.8,4-4,4s-4-1.7-4-4C100.1,84,101.9,82.3,104.1,82.3z M104.1,89.3
		c1.6,0,2.9-1.3,2.9-3.1c0-1.7-1.3-3-2.9-3s-2.9,1.3-2.9,3C101.1,87.9,102.5,89.3,104.1,89.3z"/>
	<path d="M110,82.5h1v1.1c0,0.3,0,0.6,0,0.6l0,0c0.3-0.7,1.2-1.9,3-1.9c1.9,0,2.5,1.1,2.5,2.9V90h-1v-4.5c0-1.2-0.2-2.2-1.6-2.2
		c-1.3,0-2.4,0.9-2.7,2.1c-0.1,0.3-0.1,0.7-0.1,1V90h-1v-7.5H110z"/>
	<path d="M119.1,83.4h-1v-0.9h1v-2.2h1v2.2h1.9v0.9h-1.9v3.7c0,1.8,1.1,2,1.7,2c0.2,0,0.3,0,0.3,0V90c0,0-0.2,0-0.4,0
		c-0.9,0-2.6-0.3-2.6-2.8V83.4z"/>
	<path d="M123.9,79.5h1.1v1.3h-1.1V79.5z M123.9,82.5h1V90h-1V82.5z"/>
	<path d="M127.4,82.5h1v1.1c0,0.3,0,0.6,0,0.6l0,0c0.3-0.7,1.2-1.9,3-1.9c1.9,0,2.5,1.1,2.5,2.9V90h-1v-4.5c0-1.2-0.2-2.2-1.6-2.2
		c-1.3,0-2.4,0.9-2.7,2.1c-0.1,0.3-0.1,0.7-0.1,1V90h-1L127.4,82.5L127.4,82.5z"/>
	<path d="M136.2,82.5h1V87c0,1.2,0.2,2.2,1.6,2.2c1.7,0,2.8-1.5,2.8-3.1v-3.6h1V90h-1v-1.1c0-0.3,0-0.6,0-0.6l0,0
		c-0.3,0.7-1.3,1.9-3,1.9c-1.8,0-2.5-1-2.5-2.9L136.2,82.5L136.2,82.5z"/>
	<path d="M148.5,82.3c2.2,0,4,1.7,4,3.9c0,2.3-1.8,4-4,4s-4-1.7-4-4C144.5,84,146.3,82.3,148.5,82.3z M148.5,89.3
		c1.6,0,2.9-1.3,2.9-3.1c0-1.7-1.3-3-2.9-3c-1.6,0-2.9,1.3-2.9,3S146.9,89.3,148.5,89.3z"/>
	<path d="M154.3,82.5h1V87c0,1.2,0.2,2.2,1.6,2.2c1.7,0,2.8-1.5,2.8-3.1v-3.6h1V90h-1v-1.1c0-0.3,0-0.6,0-0.6l0,0
		c-0.3,0.7-1.3,1.9-3,1.9c-1.8,0-2.5-1-2.5-2.9L154.3,82.5L154.3,82.5z"/>
	<path d="M163.2,88.4c0,0,0.8,0.9,2.2,0.9c0.8,0,1.5-0.4,1.5-1.2c0-1.6-4.1-1.2-4.1-3.7c0-1.4,1.2-2.1,2.6-2.1
		c1.6,0,2.3,0.8,2.3,0.8l-0.5,0.8c0,0-0.6-0.7-1.9-0.7c-0.8,0-1.5,0.3-1.5,1.2c0,1.7,4.1,1.2,4.1,3.7c0,1.2-1.1,2.1-2.6,2.1
		c-1.8,0-2.8-1.1-2.8-1.1L163.2,88.4z"/>
	<path d="M174.2,83.4h-1v-0.9h1v-2.2h1v2.2h1.9v0.9h-1.9v3.7c0,1.8,1.1,2,1.7,2c0.2,0,0.3,0,0.3,0V90c0,0-0.2,0-0.4,0
		c-0.9,0-2.6-0.3-2.6-2.8V83.4z"/>
	<path d="M182.1,82.3c2.1,0,3.1,1.6,3.1,3.5c0,0.2,0,0.5,0,0.5h-5.8c0,1.9,1.4,3,2.9,3c1.4,0,2.3-0.9,2.3-0.9l0.5,0.8
		c0,0-1.1,1.1-2.8,1.1c-2.2,0-3.9-1.6-3.9-3.9C178.4,83.8,180.1,82.3,182.1,82.3z M184.2,85.4c-0.1-1.6-1-2.3-2.1-2.3
		c-1.3,0-2.4,0.8-2.6,2.3H184.2z"/>
	<path d="M187.2,88.4c0,0,0.8,0.9,2.2,0.9c0.8,0,1.5-0.4,1.5-1.2c0-1.6-4.1-1.2-4.1-3.7c0-1.4,1.2-2.1,2.6-2.1
		c1.6,0,2.3,0.8,2.3,0.8l-0.5,0.8c0,0-0.6-0.7-1.9-0.7c-0.8,0-1.5,0.3-1.5,1.2c0,1.7,4.1,1.2,4.1,3.7c0,1.2-1.1,2.1-2.6,2.1
		c-1.8,0-2.8-1.1-2.8-1.1L187.2,88.4z"/>
	<path d="M194.2,83.4h-1v-0.9h1v-2.2h1v2.2h1.9v0.9h-1.9v3.7c0,1.8,1.1,2,1.7,2c0.2,0,0.3,0,0.3,0V90c0,0-0.2,0-0.4,0
		c-0.9,0-2.6-0.3-2.6-2.8V83.4z"/>
	<path d="M198.9,79.5h1.1v1.3h-1.1V79.5z M198.9,82.5h1V90h-1V82.5z"/>
	<path d="M202.4,82.5h1v1.1c0,0.3,0,0.6,0,0.6l0,0c0.3-0.7,1.2-1.9,3-1.9c1.9,0,2.5,1.1,2.5,2.9V90h-1v-4.5c0-1.2-0.2-2.2-1.6-2.2
		c-1.3,0-2.4,0.9-2.7,2.1c-0.1,0.3-0.1,0.7-0.1,1V90h-1L202.4,82.5L202.4,82.5z"/>
	<path d="M213.9,92.2c1.5,0,2.6-0.7,2.6-2.4v-0.7c0-0.3,0-0.5,0-0.5l0,0c-0.5,0.8-1.2,1.3-2.4,1.3c-2,0-3.4-1.6-3.4-3.9
		s1.2-3.8,3.3-3.8c2,0,2.5,1.3,2.5,1.3l0,0c0,0,0-0.1,0-0.3v-0.8h1v7.4c0,2.4-1.8,3.3-3.6,3.3c-0.9,0-1.7-0.2-2.5-0.6l0.4-0.8
		C211.8,91.7,212.8,92.2,213.9,92.2z M216.5,86.1c0-2.2-1-2.9-2.4-2.9c-1.5,0-2.3,1.1-2.3,2.9s1,3,2.5,3
		C215.5,89,216.5,88.3,216.5,86.1z"/>
	<path d="M228,85.3h0.4v-0.2c0-1.5-0.8-1.9-1.9-1.9c-1.2,0-2.1,0.7-2.1,0.7l-0.5-0.8c0,0,1-0.9,2.7-0.9c1.8,0,2.8,1,2.8,2.9V90h-1
		v-0.8c0-0.4,0-0.6,0-0.6l0,0c0,0-0.6,1.6-2.5,1.6c-1.3,0-2.6-0.7-2.6-2.2C223.4,85.4,226.7,85.3,228,85.3z M226.2,89.3
		c1.4,0,2.3-1.5,2.3-2.8v-0.3H228c-1.2,0-3.6,0-3.6,1.7C224.5,88.6,225,89.3,226.2,89.3z"/>
	<path d="M231.8,82.5h1v1.1c0,0.3,0,0.6,0,0.6l0,0c0.3-0.7,1.2-1.9,3-1.9c1.9,0,2.5,1.1,2.5,2.9V90h-1v-4.5c0-1.2-0.2-2.2-1.6-2.2
		c-1.3,0-2.4,0.9-2.7,2.1c-0.1,0.3-0.1,0.7-0.1,1V90h-1L231.8,82.5L231.8,82.5z"/>
	<path d="M243.6,82.3c1.8,0,2.5,1.4,2.5,1.4l0,0c0,0,0-0.3,0-0.6v-3.7h1V90h-1v-0.8c0-0.3,0-0.5,0-0.5l0,0c0,0-0.6,1.5-2.6,1.5
		s-3.3-1.6-3.3-4C240.2,83.8,241.7,82.3,243.6,82.3z M243.7,89.3c1.3,0,2.4-0.9,2.4-3c0-1.5-0.8-3-2.4-3c-1.3,0-2.4,1.1-2.4,3
		C241.3,88.1,242.3,89.3,243.7,89.3z"/>
	<path d="M256.5,82.3c1.8,0,2.5,1.4,2.5,1.4l0,0c0,0,0-0.3,0-0.6v-3.7h1V90h-1v-0.8c0-0.3,0-0.5,0-0.5l0,0c0,0-0.6,1.5-2.6,1.5
		s-3.3-1.6-3.3-4C253.1,83.8,254.5,82.3,256.5,82.3z M256.5,89.3c1.3,0,2.4-0.9,2.4-3c0-1.5-0.8-3-2.4-3c-1.3,0-2.4,1.1-2.4,3
		C254.2,88.1,255.1,89.3,256.5,89.3z"/>
	<path d="M265.6,82.3c2.1,0,3.1,1.6,3.1,3.5c0,0.2,0,0.5,0,0.5H263c0,1.9,1.4,3,2.9,3c1.4,0,2.3-0.9,2.3-0.9l0.5,0.8
		c0,0-1.1,1.1-2.8,1.1c-2.2,0-3.9-1.6-3.9-3.9C261.9,83.8,263.6,82.3,265.6,82.3z M267.8,85.4c-0.1-1.6-1-2.3-2.1-2.3
		c-1.3,0-2.4,0.8-2.6,2.3H267.8z"/>
	<path d="M270.7,82.5h1v0.7c0,0.3,0,0.6,0,0.6l0,0c0,0,0.6-1.5,2.6-1.5s3.3,1.6,3.3,4s-1.4,3.9-3.4,3.9c-1.8,0-2.5-1.4-2.5-1.4l0,0
		c0,0,0,0.3,0,0.7V93h-1V82.5z M274.1,89.3c1.3,0,2.4-1.1,2.4-3c0-1.8-1-3-2.4-3c-1.3,0-2.4,0.9-2.4,3
		C271.7,87.8,272.6,89.3,274.1,89.3z"/>
	<path d="M279.5,79.5h1V88c0,1,0.5,1.1,0.8,1.1c0.1,0,0.3,0,0.3,0V90c0,0-0.2,0-0.4,0c-0.6,0-1.7-0.2-1.7-1.8L279.5,79.5L279.5,79.5
		z"/>
	<path d="M286.7,82.3c2.2,0,4,1.7,4,3.9c0,2.3-1.8,4-4,4s-4-1.7-4-4C282.7,84,284.5,82.3,286.7,82.3z M286.7,89.3
		c1.6,0,2.9-1.3,2.9-3.1c0-1.7-1.3-3-2.9-3s-2.9,1.3-2.9,3C283.8,87.9,285.1,89.3,286.7,89.3z"/>
	<path d="M291.9,91.9c0,0,0.4,0.3,0.9,0.3c0.7,0,1.1-0.5,1.4-1.2l0.5-1.1l-3.1-7.5h1.1l2.2,5.5c0.1,0.4,0.3,0.8,0.3,0.8l0,0
		c0,0,0.1-0.4,0.3-0.8l2.2-5.5h1.1l-3.7,9.1c-0.4,1-1.2,1.6-2.2,1.6c-0.8,0-1.3-0.5-1.3-0.5L291.9,91.9z"/>
	<path d="M300.1,82.5h1v1.1c0,0.3,0,0.6,0,0.6l0,0c0.4-1,1.6-1.9,2.7-1.9c1.4,0,2.1,0.6,2.3,1.9l0,0c0.4-1,1.5-1.9,2.8-1.9
		c1.8,0,2.5,1.1,2.5,2.9V90h-1v-4.5c0-1.2-0.3-2.2-1.6-2.2c-1.2,0-2.1,1-2.4,2.1c-0.1,0.3-0.1,0.7-0.1,1.1V90h-1v-4.5
		c0-1.1-0.2-2.2-1.6-2.2c-1.2,0-2.2,1.1-2.5,2.2c-0.1,0.3-0.1,0.7-0.1,1V90h-1L300.1,82.5L300.1,82.5z"/>
	<path d="M317,82.3c2.1,0,3.1,1.6,3.1,3.5c0,0.2,0,0.5,0,0.5h-5.8c0,1.9,1.4,3,2.9,3c1.4,0,2.3-0.9,2.3-0.9l0.5,0.8
		c0,0-1.1,1.1-2.8,1.1c-2.2,0-3.9-1.6-3.9-3.9C313.3,83.8,315,82.3,317,82.3z M319.1,85.4c-0.1-1.6-1-2.3-2.1-2.3
		c-1.3,0-2.4,0.8-2.6,2.3H319.1z"/>
	<path d="M322.1,82.5h1v1.1c0,0.3,0,0.6,0,0.6l0,0c0.3-0.7,1.2-1.9,3-1.9c1.9,0,2.5,1.1,2.5,2.9V90h-1v-4.5c0-1.2-0.2-2.2-1.6-2.2
		c-1.3,0-2.4,0.9-2.7,2.1c-0.1,0.3-0.1,0.7-0.1,1V90h-1L322.1,82.5L322.1,82.5z"/>
	<path d="M331.3,83.4h-1v-0.9h1v-2.2h1v2.2h1.9v0.9h-1.9v3.7c0,1.8,1.1,2,1.7,2c0.2,0,0.3,0,0.3,0V90c0,0-0.2,0-0.4,0
		c-0.9,0-2.6-0.3-2.6-2.8V83.4z"/>
	<path d="M335.3,91.4c1.1-2,1.7-4.2,1.7-6.5c0-2.1-0.6-4.1-1.7-5.9h0.9c1.1,1.8,1.7,3.7,1.7,5.9c0,2.4-0.6,4.7-1.7,6.5H335.3z"/>
</g>
<g>
	<path d="M32.1,25.3c2.4,0,3.8,1.2,3.8,1.2l-0.6,0.8c0,0-1.2-1-3.1-1c-2.5,0-4.3,2-4.3,4.5c0,2.6,1.8,4.5,4.2,4.5
		c2.1,0,3.3-1.5,3.3-1.5V32h-1.8v-1h2.8v5h-1v-0.8c0-0.2,0-0.5,0-0.5l0,0c0,0-1.2,1.4-3.4,1.4c-2.9,0-5.2-2.3-5.2-5.5
		C26.8,27.7,29.1,25.3,32.1,25.3z"/>
	<path d="M38.6,25.5h1.1v1.3h-1.1V25.5z M38.6,28.5h1V36h-1V28.5z"/>
	<path d="M42.4,29.4h-1v-0.9h1v-2.2h1v2.2h1.9v0.9h-1.9v3.7c0,1.8,1.1,2,1.7,2c0.2,0,0.3,0,0.3,0V36c0,0-0.2,0-0.4,0
		c-0.9,0-2.6-0.3-2.6-2.8V29.4z"/>
	<path d="M47.1,25.5h1v4.1c0,0.3,0,0.6,0,0.6l0,0c0.3-0.7,1.3-1.9,3-1.9c1.9,0,2.5,1.1,2.5,2.9V36h-1v-4.5c0-1.2-0.2-2.2-1.6-2.2
		c-1.3,0-2.4,0.9-2.7,2.1c-0.1,0.3-0.1,0.6-0.1,1V36h-1V25.5H47.1z"/>
	<path d="M55.9,28.5h1V33c0,1.2,0.2,2.2,1.6,2.2c1.7,0,2.8-1.5,2.8-3.1v-3.6h1V36h-1v-1.1c0-0.3,0-0.6,0-0.6l0,0
		c-0.3,0.7-1.3,1.9-3,1.9c-1.8,0-2.5-1-2.5-2.9v-4.8H55.9z"/>
	<path d="M64.8,25.5h1v3.7c0,0.3,0,0.6,0,0.6l0,0c0,0,0.6-1.5,2.6-1.5s3.3,1.6,3.3,4s-1.4,3.9-3.4,3.9c-1.8,0-2.5-1.5-2.5-1.5l0,0
		c0,0,0,0.3,0,0.6V36h-1V25.5z M68.2,35.3c1.3,0,2.4-1.1,2.4-3c0-1.8-1-3-2.4-3c-1.3,0-2.4,0.9-2.4,3C65.8,33.8,66.6,35.3,68.2,35.3
		z"/>
	<path d="M77.7,30.9c0-2.2,0.6-4.1,1.7-5.9h0.9c-1.1,1.8-1.7,3.8-1.7,5.9c0,2.2,0.6,4.5,1.7,6.5h-0.9C78.3,35.6,77.7,33.3,77.7,30.9
		z"/>
	<path d="M86.9,25.3c2.4,0,3.8,1.2,3.8,1.2l-0.6,0.8c0,0-1.2-1-3.1-1c-2.5,0-4.3,2-4.3,4.5c0,2.6,1.8,4.5,4.2,4.5
		c2.1,0,3.3-1.5,3.3-1.5V32h-1.8v-1h2.8v5h-1v-0.8c0-0.2,0-0.5,0-0.5l0,0c0,0-1.2,1.4-3.4,1.4c-2.9,0-5.2-2.3-5.2-5.5
		C81.6,27.7,83.9,25.3,86.9,25.3z"/>
	<path d="M93.4,25.5h1.1v1.3h-1.1V25.5z M93.4,28.5h1V36h-1V28.5z"/>
	<path d="M97.2,29.4h-1v-0.9h1v-2.2h1v2.2h1.9v0.9h-1.9v3.7c0,1.8,1.1,2,1.7,2c0.2,0,0.3,0,0.3,0V36c0,0-0.2,0-0.4,0
		c-0.9,0-2.6-0.3-2.6-2.8V29.4z"/>
	<path d="M106.2,25.5h1v4.8h6.1v-4.8h1V36h-1v-4.8h-6.1V36h-1V25.5z"/>
	<path d="M120.6,28.3c2.2,0,4,1.7,4,3.9c0,2.3-1.8,4-4,4s-4-1.7-4-4C116.6,30,118.4,28.3,120.6,28.3z M120.6,35.3
		c1.6,0,2.9-1.3,2.9-3.1c0-1.7-1.3-3-2.9-3s-2.9,1.3-2.9,3S119,35.3,120.6,35.3z"/>
	<path d="M126.5,34.4c0,0,0.8,0.9,2.2,0.9c0.8,0,1.5-0.4,1.5-1.2c0-1.6-4.1-1.2-4.1-3.7c0-1.4,1.2-2.1,2.6-2.1
		c1.6,0,2.3,0.8,2.3,0.8l-0.5,0.8c0,0-0.6-0.7-1.9-0.7c-0.8,0-1.5,0.3-1.5,1.2c0,1.7,4.1,1.2,4.1,3.7c0,1.2-1.1,2.1-2.6,2.1
		c-1.8,0-2.8-1.1-2.8-1.1L126.5,34.4z"/>
	<path d="M133.5,29.4h-1v-0.9h1v-2.2h1v2.2h1.9v0.9h-1.9v3.7c0,1.8,1.1,2,1.7,2c0.2,0,0.3,0,0.3,0V36c0,0-0.2,0-0.4,0
		c-0.9,0-2.6-0.3-2.6-2.8V29.4z"/>
	<path d="M138.2,25.5h1.1v1.3h-1.1V25.5z M138.2,28.5h1V36h-1V28.5z"/>
	<path d="M141.7,28.5h1v1.1c0,0.3,0,0.6,0,0.6l0,0c0.3-0.7,1.2-1.9,3-1.9c1.9,0,2.5,1.1,2.5,2.9V36h-1v-4.5c0-1.2-0.2-2.2-1.6-2.2
		c-1.3,0-2.4,0.9-2.7,2.1c-0.1,0.3-0.1,0.7-0.1,1V36h-1L141.7,28.5L141.7,28.5z"/>
	<path d="M153.2,38.2c1.5,0,2.6-0.7,2.6-2.4v-0.7c0-0.3,0-0.5,0-0.5l0,0c-0.5,0.8-1.2,1.3-2.4,1.3c-2,0-3.4-1.6-3.4-3.9
		s1.2-3.8,3.3-3.8c2,0,2.5,1.3,2.5,1.3l0,0c0,0,0-0.1,0-0.3v-0.8h1v7.4c0,2.4-1.8,3.3-3.6,3.3c-0.9,0-1.7-0.2-2.5-0.6l0.4-0.8
		C151.1,37.7,152.1,38.2,153.2,38.2z M155.8,32.1c0-2.2-1-2.9-2.4-2.9c-1.5,0-2.3,1.1-2.3,2.9s1,3,2.5,3
		C154.8,35,155.8,34.3,155.8,32.1z"/>
	<path d="M159.5,34.8h1.1l-1.1,2.7h-0.9L159.5,34.8z"/>
	<path d="M167.3,29.4h-1v-0.9h1v-2.2h1v2.2h1.9v0.9h-1.9v3.7c0,1.8,1.1,2,1.7,2c0.2,0,0.3,0,0.3,0V36c0,0-0.2,0-0.4,0
		c-0.9,0-2.6-0.3-2.6-2.8V29.4z"/>
	<path d="M172,25.5h1.1v1.3H172V25.5z M172,28.5h1V36h-1V28.5z"/>
	<path d="M178.9,28.3c1.8,0,2.8,1.1,2.8,1.1l-0.5,0.8c0,0-0.8-0.9-2.2-0.9c-1.6,0-2.9,1.2-2.9,3s1.3,3,3,3c1.5,0,2.4-1.1,2.4-1.1
		L182,35c0,0-1,1.2-2.9,1.2c-2.2,0-4-1.6-4-3.9C175,29.9,176.7,28.3,178.9,28.3z"/>
	<path d="M183.7,25.5h1v5.9h1.2l2.3-2.9h1.2l-2.6,3.3l0,0l2.9,4.2h-1.2l-2.5-3.8h-1.2V36h-1L183.7,25.5L183.7,25.5z"/>
	<path d="M194.3,28.3c2.1,0,3.1,1.6,3.1,3.5c0,0.2,0,0.5,0,0.5h-5.8c0,1.9,1.4,3,2.9,3c1.4,0,2.3-0.9,2.3-0.9l0.5,0.8
		c0,0-1.1,1.1-2.8,1.1c-2.2,0-3.9-1.6-3.9-3.9C190.6,29.8,192.3,28.3,194.3,28.3z M196.5,31.4c-0.1-1.6-1-2.3-2.1-2.3
		c-1.3,0-2.4,0.8-2.6,2.3H196.5z"/>
	<path d="M199.7,29.4h-1v-0.9h1v-2.2h1v2.2h1.9v0.9h-1.9v3.7c0,1.8,1.1,2,1.7,2c0.2,0,0.3,0,0.3,0V36c0,0-0.2,0-0.4,0
		c-0.9,0-2.6-0.3-2.6-2.8V29.4z"/>
	<path d="M204.4,25.5h1.1v1.3h-1.1V25.5z M204.5,28.5h1V36h-1V28.5z"/>
	<path d="M207.9,28.5h1v1.1c0,0.3,0,0.6,0,0.6l0,0c0.3-0.7,1.2-1.9,3-1.9c1.9,0,2.5,1.1,2.5,2.9V36h-1v-4.5c0-1.2-0.2-2.2-1.6-2.2
		c-1.3,0-2.4,0.9-2.7,2.1c-0.1,0.3-0.1,0.7-0.1,1V36h-1L207.9,28.5L207.9,28.5z"/>
	<path d="M219.5,38.2c1.5,0,2.6-0.7,2.6-2.4v-0.7c0-0.3,0-0.5,0-0.5l0,0c-0.4,0.8-1.2,1.3-2.4,1.3c-2,0-3.4-1.6-3.4-3.9
		s1.2-3.8,3.3-3.8c2,0,2.5,1.3,2.5,1.3l0,0c0,0,0-0.1,0-0.3v-0.8h1v7.4c0,2.4-1.8,3.3-3.6,3.3c-0.9,0-1.7-0.2-2.5-0.6l0.4-0.8
		C217.4,37.7,218.3,38.2,219.5,38.2z M222.1,32.1c0-2.2-1-2.9-2.4-2.9c-1.5,0-2.3,1.1-2.3,2.9s1,3,2.5,3
		C221.1,35,222.1,34.3,222.1,32.1z"/>
	<path d="M225.7,34.8h1.1l-1.1,2.7h-0.9L225.7,34.8z"/>
	<path d="M233.3,28.5h1v0.7c0,0.3,0,0.6,0,0.6l0,0c0,0,0.6-1.5,2.6-1.5s3.3,1.6,3.3,4s-1.4,3.9-3.4,3.9c-1.8,0-2.5-1.4-2.5-1.4l0,0
		c0,0,0,0.3,0,0.7V39h-1L233.3,28.5L233.3,28.5z M236.7,35.3c1.3,0,2.4-1.1,2.4-3c0-1.8-1-3-2.4-3c-1.3,0-2.4,0.9-2.4,3
		C234.3,33.8,235.1,35.3,236.7,35.3z"/>
	<path d="M242.1,28.5h1v1.3c0,0.3,0,0.6,0,0.6l0,0c0.4-1.1,1.2-2,2.4-2c0.2,0,0.4,0,0.4,0v1c0,0-0.2,0-0.4,0c-1.1,0-1.9,0.8-2.2,1.9
		c-0.1,0.5-0.2,1-0.2,1.5V36h-1V28.5z"/>
	<path d="M250.8,28.3c2.2,0,4,1.7,4,3.9c0,2.3-1.8,4-4,4s-4-1.7-4-4C246.8,30,248.6,28.3,250.8,28.3z M250.8,35.3
		c1.6,0,2.9-1.3,2.9-3.1c0-1.7-1.3-3-2.9-3c-1.6,0-2.9,1.3-2.9,3C247.8,33.9,249.2,35.3,250.8,35.3z"/>
	<path d="M257.7,28.5v7.8c0,2.5-1.8,2.8-2.6,2.8c-0.3,0-0.5,0-0.5,0v-0.9c0,0,0.1,0,0.3,0c0.6,0,1.7-0.2,1.7-1.9v-7.8
		C256.6,28.5,257.7,28.5,257.7,28.5z M256.7,25.5h1.1v1.3h-1.1V25.5z"/>
	<path d="M263.4,28.3c2.1,0,3.1,1.6,3.1,3.5c0,0.2,0,0.5,0,0.5h-5.8c0,1.9,1.4,3,2.9,3c1.4,0,2.3-0.9,2.3-0.9l0.5,0.8
		c0,0-1.1,1.1-2.8,1.1c-2.2,0-3.9-1.6-3.9-3.9C259.6,29.8,261.3,28.3,263.4,28.3z M265.5,31.4c-0.1-1.6-1-2.3-2.1-2.3
		c-1.3,0-2.4,0.8-2.6,2.3H265.5z"/>
	<path d="M271.9,28.3c1.8,0,2.8,1.1,2.8,1.1l-0.5,0.8c0,0-0.8-0.9-2.2-0.9c-1.6,0-2.9,1.2-2.9,3s1.3,3,3,3c1.5,0,2.4-1.1,2.4-1.1
		L275,35c0,0-1,1.2-2.9,1.2c-2.2,0-4-1.6-4-3.9C267.9,29.9,269.7,28.3,271.9,28.3z"/>
	<path d="M277,29.4h-1v-0.9h1v-2.2h1v2.2h1.9v0.9H278v3.7c0,1.8,1.1,2,1.7,2c0.2,0,0.3,0,0.3,0V36c0,0-0.2,0-0.4,0
		c-0.9,0-2.6-0.3-2.6-2.8V29.4z"/>
	<path d="M285.8,28.5h1v1.1c0,0.3,0,0.6,0,0.6l0,0c0.4-1,1.6-1.9,2.7-1.9c1.4,0,2.1,0.6,2.3,1.9l0,0c0.4-1,1.5-1.9,2.8-1.9
		c1.8,0,2.5,1.1,2.5,2.9V36h-1v-4.5c0-1.2-0.3-2.2-1.6-2.2c-1.2,0-2.1,1-2.4,2.1c-0.1,0.3-0.1,0.7-0.1,1.1V36h-1v-4.5
		c0-1.1-0.2-2.2-1.6-2.2c-1.2,0-2.2,1.1-2.5,2.2c-0.1,0.3-0.1,0.7-0.1,1V36h-1L285.8,28.5L285.8,28.5z"/>
	<path d="M303.5,31.3h0.4v-0.2c0-1.5-0.8-1.9-1.9-1.9c-1.2,0-2.1,0.7-2.1,0.7l-0.5-0.8c0,0,1-0.9,2.7-0.9c1.8,0,2.8,1,2.8,2.9V36h-1
		v-0.8c0-0.4,0-0.6,0-0.6l0,0c0,0-0.6,1.6-2.5,1.6c-1.3,0-2.6-0.7-2.6-2.2C298.9,31.4,302.2,31.3,303.5,31.3z M301.6,35.3
		c1.4,0,2.3-1.5,2.3-2.8v-0.3h-0.4c-1.2,0-3.6,0-3.6,1.7C299.9,34.6,300.5,35.3,301.6,35.3z"/>
	<path d="M307.3,28.5h1v1.1c0,0.3,0,0.6,0,0.6l0,0c0.3-0.7,1.2-1.9,3-1.9c1.9,0,2.5,1.1,2.5,2.9V36h-1v-4.5c0-1.2-0.2-2.2-1.6-2.2
		c-1.3,0-2.4,0.9-2.7,2.1c-0.1,0.3-0.1,0.7-0.1,1V36h-1L307.3,28.5L307.3,28.5z"/>
	<path d="M320.2,31.3h0.4v-0.2c0-1.5-0.8-1.9-1.9-1.9c-1.2,0-2.1,0.7-2.1,0.7l-0.5-0.8c0,0,1-0.9,2.7-0.9c1.8,0,2.8,1,2.8,2.9V36h-1
		v-0.8c0-0.4,0-0.6,0-0.6l0,0c0,0-0.6,1.6-2.5,1.6c-1.3,0-2.6-0.7-2.6-2.2C315.6,31.4,318.9,31.3,320.2,31.3z M318.3,35.3
		c1.4,0,2.3-1.5,2.3-2.8v-0.3h-0.4c-1.2,0-3.6,0-3.6,1.7C316.6,34.6,317.2,35.3,318.3,35.3z"/>
	<path d="M326.6,38.2c1.5,0,2.6-0.7,2.6-2.4v-0.7c0-0.3,0-0.5,0-0.5l0,0c-0.4,0.8-1.2,1.3-2.4,1.3c-2,0-3.4-1.6-3.4-3.9
		s1.2-3.8,3.3-3.8c2,0,2.5,1.3,2.5,1.3l0,0c0,0,0-0.1,0-0.3v-0.8h1v7.4c0,2.4-1.8,3.3-3.6,3.3c-0.9,0-1.7-0.2-2.5-0.6l0.4-0.8
		C324.6,37.7,325.5,38.2,326.6,38.2z M329.2,32.1c0-2.2-1-2.9-2.4-2.9c-1.5,0-2.3,1.1-2.3,2.9s1,3,2.5,3
		C328.2,35,329.2,34.3,329.2,32.1z"/>
	<path d="M335.9,28.3c2.1,0,3.1,1.6,3.1,3.5c0,0.2,0,0.5,0,0.5h-5.8c0,1.9,1.4,3,2.9,3c1.4,0,2.3-0.9,2.3-0.9l0.5,0.8
		c0,0-1.1,1.1-2.8,1.1c-2.2,0-3.9-1.6-3.9-3.9C332.2,29.8,333.9,28.3,335.9,28.3z M338,31.4c-0.1-1.6-1-2.3-2.1-2.3
		c-1.3,0-2.4,0.8-2.6,2.3H338z"/>
	<path d="M341,28.5h1v1.1c0,0.3,0,0.6,0,0.6l0,0c0.4-1,1.6-1.9,2.7-1.9c1.4,0,2.1,0.6,2.3,1.9l0,0c0.4-1,1.5-1.9,2.8-1.9
		c1.8,0,2.5,1.1,2.5,2.9V36h-1v-4.5c0-1.2-0.3-2.2-1.6-2.2c-1.2,0-2.1,1-2.4,2.1c-0.1,0.3-0.1,0.7-0.1,1.1V36h-1v-4.5
		c0-1.1-0.2-2.2-1.6-2.2c-1.2,0-2.2,1.1-2.5,2.2c-0.1,0.3-0.1,0.7-0.1,1V36h-1L341,28.5L341,28.5z"/>
	<path d="M357.9,28.3c2.1,0,3.1,1.6,3.1,3.5c0,0.2,0,0.5,0,0.5h-5.8c0,1.9,1.4,3,2.9,3c1.4,0,2.3-0.9,2.3-0.9l0.5,0.8
		c0,0-1.1,1.1-2.8,1.1c-2.2,0-3.9-1.6-3.9-3.9C354.2,29.8,355.9,28.3,357.9,28.3z M360.1,31.4c-0.1-1.6-1-2.3-2.1-2.3
		c-1.3,0-2.4,0.8-2.6,2.3H360.1z"/>
	<path d="M363,28.5h1v1.1c0,0.3,0,0.6,0,0.6l0,0c0.3-0.7,1.2-1.9,3-1.9c1.9,0,2.5,1.1,2.5,2.9V36h-1v-4.5c0-1.2-0.2-2.2-1.6-2.2
		c-1.3,0-2.4,0.9-2.7,2.1c-0.1,0.3-0.1,0.7-0.1,1V36h-1L363,28.5L363,28.5z"/>
	<path d="M372.2,29.4h-1v-0.9h1v-2.2h1v2.2h1.9v0.9h-1.9v3.7c0,1.8,1.1,2,1.7,2c0.2,0,0.3,0,0.3,0V36c0,0-0.2,0-0.4,0
		c-0.9,0-2.6-0.3-2.6-2.8V29.4z"/>
</g>
</svg>
