<?xml version="1.0" encoding="utf-8"?>
<!-- Generator: Adobe Illustrator 21.0.2, SVG Export Plug-In . SVG Version: 6.00 Build 0)  -->
<svg version="1.1" id="Layer_1" xmlns="http://www.w3.org/2000/svg" xmlns:xlink="http://www.w3.org/1999/xlink" x="0px" y="0px"
	 viewBox="0 0 1062 1116" style="enable-background:new 0 0 1062 1116;" xml:space="preserve">
<style type="text/css">
	.st0{fill:#FFFFFF;stroke:#000000;stroke-miterlimit:10;}
</style>
<rect x="18.2" y="18" class="st0" width="512.9" height="120.1"/>
<g>
	<path d="M211.3,83.1h-4.2l-1.2,3.4h-1.1l3.9-10.5h1.1l3.9,10.5h-1.1L211.3,83.1z M209.2,77c0,0-0.2,0.9-0.4,1.4l-1.4,3.8h3.6
		l-1.4-3.8C209.5,77.8,209.2,77,209.2,77L209.2,77z"/>
	<path d="M215,78.9h1v4.5c0,1.2,0.2,2.2,1.6,2.2c1.7,0,2.8-1.5,2.8-3.1v-3.6h1v7.5h-1v-1.1c0-0.3,0-0.6,0-0.6l0,0
		c-0.3,0.7-1.3,1.9-3,1.9c-1.8,0-2.5-1-2.5-2.9L215,78.9L215,78.9z"/>
	<path d="M224.2,79.8h-1V79h1v-2.2h1V79h1.9v0.9h-1.9v3.7c0,1.8,1.1,2,1.7,2c0.2,0,0.3,0,0.3,0v0.9c0,0-0.2,0-0.4,0
		c-0.9,0-2.6-0.3-2.6-2.8V79.8z"/>
	<path d="M232.4,78.7c2.2,0,4,1.7,4,3.9c0,2.3-1.8,4-4,4s-4-1.7-4-4C228.4,80.4,230.2,78.7,232.4,78.7z M232.4,85.7
		c1.6,0,2.9-1.3,2.9-3.1c0-1.7-1.3-3-2.9-3c-1.6,0-2.9,1.3-2.9,3C229.4,84.4,230.7,85.7,232.4,85.7z"/>
	<path d="M238.3,78.9h1V80c0,0.3,0,0.6,0,0.6l0,0c0.4-1,1.6-1.9,2.7-1.9c1.4,0,2.1,0.6,2.3,1.9l0,0c0.4-1,1.5-1.9,2.8-1.9
		c1.8,0,2.5,1.1,2.5,2.9v4.8h-1v-4.5c0-1.2-0.3-2.2-1.6-2.2c-1.2,0-2.1,1-2.4,2.1c-0.1,0.3-0.1,0.7-0.1,1.1v3.6h-1V82
		c0-1.1-0.2-2.2-1.6-2.2c-1.2,0-2.2,1.1-2.5,2.2c-0.1,0.3-0.1,0.7-0.1,1v3.6h-1L238.3,78.9L238.3,78.9z"/>
	<path d="M256,81.8h0.4v-0.2c0-1.5-0.8-1.9-1.9-1.9c-1.2,0-2.1,0.7-2.1,0.7l-0.5-0.8c0,0,1-0.9,2.7-0.9c1.8,0,2.8,1,2.8,2.9v4.8h-1
		v-0.8c0-0.4,0-0.6,0-0.6l0,0c0,0-0.6,1.6-2.5,1.6c-1.3,0-2.6-0.7-2.6-2.2C251.4,81.8,254.7,81.8,256,81.8z M254.1,85.7
		c1.4,0,2.3-1.5,2.3-2.8v-0.3H256c-1.2,0-3.6,0-3.6,1.7C252.4,85,253,85.7,254.1,85.7z"/>
	<path d="M260,79.8h-1V79h1v-2.2h1V79h1.9v0.9H261v3.7c0,1.8,1.1,2,1.7,2c0.2,0,0.3,0,0.3,0v0.9c0,0-0.2,0-0.4,0
		c-0.9,0-2.6-0.3-2.6-2.8V79.8z"/>
	<path d="M264.7,75.9h1.1v1.3h-1.1V75.9z M264.8,78.9h1v7.5h-1V78.9z"/>
	<path d="M271.7,78.7c2.2,0,4,1.7,4,3.9c0,2.3-1.8,4-4,4s-4-1.7-4-4C267.7,80.4,269.5,78.7,271.7,78.7z M271.7,85.7
		c1.6,0,2.9-1.3,2.9-3.1c0-1.7-1.3-3-2.9-3s-2.9,1.3-2.9,3C268.7,84.4,270.1,85.7,271.7,85.7z"/>
	<path d="M277.6,78.9h1V80c0,0.3,0,0.6,0,0.6l0,0c0.3-0.7,1.2-1.9,3-1.9c1.9,0,2.5,1.1,2.5,2.9v4.8h-1v-4.5c0-1.2-0.2-2.2-1.6-2.2
		c-1.3,0-2.4,0.9-2.7,2.1c-0.1,0.3-0.1,0.7-0.1,1v3.6h-1L277.6,78.9L277.6,78.9z"/>
	<path d="M290.8,75.9h3.1c1.1,0,1.6,0.1,2,0.3c1,0.4,1.6,1.4,1.6,2.7c0,1.4-0.8,2.5-2,2.9l0,0c0,0,0.1,0.1,0.3,0.4l2.3,4.2h-1.2
		l-2.4-4.4h-2.7v4.4h-1L290.8,75.9L290.8,75.9z M294.4,81c1.3,0,2.1-0.8,2.1-2.1c0-0.9-0.3-1.5-1-1.8c-0.3-0.2-0.7-0.3-1.5-0.3h-2.1
		V81H294.4z"/>
	<path d="M303.1,78.7c2.1,0,3.1,1.6,3.1,3.5c0,0.2,0,0.5,0,0.5h-5.8c0,1.9,1.4,3,2.9,3c1.4,0,2.3-0.9,2.3-0.9l0.5,0.8
		c0,0-1.1,1.1-2.8,1.1c-2.2,0-3.9-1.6-3.9-3.9C299.4,80.2,301.1,78.7,303.1,78.7z M305.2,81.9c-0.1-1.6-1-2.3-2.1-2.3
		c-1.3,0-2.4,0.8-2.6,2.3H305.2z"/>
	<path d="M311.1,78.7c1.8,0,2.5,1.5,2.5,1.5l0,0c0,0,0-0.2,0-0.6v-0.7h1v10.5h-1v-3.6c0-0.4,0-0.7,0-0.7l0,0c0,0-0.6,1.5-2.6,1.5
		s-3.3-1.6-3.3-4C307.7,80.3,309.1,78.7,311.1,78.7z M311.2,85.7c1.3,0,2.4-0.9,2.4-3c0-1.5-0.8-3-2.4-3c-1.3,0-2.4,1.1-2.4,3
		C308.8,84.5,309.8,85.7,311.2,85.7z"/>
	<path d="M317,78.9h1v4.5c0,1.2,0.2,2.2,1.6,2.2c1.7,0,2.8-1.5,2.8-3.1v-3.6h1v7.5h-1v-1.1c0-0.3,0-0.6,0-0.6l0,0
		c-0.3,0.7-1.3,1.9-3,1.9c-1.8,0-2.5-1-2.5-2.9v-4.8H317z"/>
	<path d="M329.1,78.7c2.1,0,3.1,1.6,3.1,3.5c0,0.2,0,0.5,0,0.5h-5.8c0,1.9,1.4,3,2.9,3c1.4,0,2.3-0.9,2.3-0.9l0.5,0.8
		c0,0-1.1,1.1-2.8,1.1c-2.2,0-3.9-1.6-3.9-3.9C325.4,80.2,327,78.7,329.1,78.7z M331.2,81.9c-0.1-1.6-1-2.3-2.1-2.3
		c-1.3,0-2.4,0.8-2.6,2.3H331.2z"/>
	<path d="M334.1,84.8c0,0,0.8,0.9,2.2,0.9c0.8,0,1.5-0.4,1.5-1.2c0-1.6-4.1-1.2-4.1-3.7c0-1.4,1.2-2.1,2.6-2.1
		c1.6,0,2.3,0.8,2.3,0.8l-0.5,0.8c0,0-0.6-0.7-1.9-0.7c-0.8,0-1.5,0.3-1.5,1.2c0,1.7,4.1,1.2,4.1,3.7c0,1.2-1.1,2.1-2.6,2.1
		c-1.8,0-2.8-1.1-2.8-1.1L334.1,84.8z"/>
	<path d="M341.1,79.8h-1V79h1v-2.2h1V79h1.9v0.9h-1.9v3.7c0,1.8,1.1,2,1.7,2c0.2,0,0.3,0,0.3,0v0.9c0,0-0.2,0-0.4,0
		c-0.9,0-2.6-0.3-2.6-2.8V79.8z"/>
</g>
<rect x="18.2" y="378.4" class="st0" width="1025.8" height="120.1"/>
<g>
	<path d="M454.6,418.8c2.4,0,3.8,1.2,3.8,1.2l-0.6,0.8c0,0-1.2-1-3.1-1c-2.5,0-4.3,2-4.3,4.5c0,2.6,1.8,4.5,4.2,4.5
		c2.1,0,3.3-1.5,3.3-1.5v-1.8h-1.8v-0.9h2.8v5h-1v-0.8c0-0.2,0-0.5,0-0.5l0,0c0,0-1.2,1.4-3.4,1.4c-2.9,0-5.2-2.3-5.2-5.5
		C449.3,421.2,451.6,418.8,454.6,418.8z"/>
	<path d="M464.5,421.8c2.2,0,4,1.7,4,3.9c0,2.3-1.8,4-4,4s-4-1.7-4-4C460.5,423.5,462.3,421.8,464.5,421.8z M464.5,428.8
		c1.6,0,2.9-1.3,2.9-3.1c0-1.7-1.3-3-2.9-3s-2.9,1.3-2.9,3C461.6,427.5,462.9,428.8,464.5,428.8z"/>
	<path d="M474.8,419h3.4c3.2,0,5.3,1.9,5.3,5.3s-2.1,5.3-5.3,5.3h-3.4V419z M478.1,428.6c2.6,0,4.3-1.5,4.3-4.3s-1.7-4.3-4.3-4.3
		h-2.3v8.7h2.3V428.6z"/>
	<path d="M489,421.8c2.2,0,4,1.7,4,3.9c0,2.3-1.8,4-4,4s-4-1.7-4-4C485,423.5,486.8,421.8,489,421.8z M489,428.8
		c1.6,0,2.9-1.3,2.9-3.1c0-1.7-1.3-3-2.9-3s-2.9,1.3-2.9,3C486.1,427.5,487.4,428.8,489,428.8z"/>
	<path d="M498.3,421.8c1.8,0,2.8,1.1,2.8,1.1l-0.5,0.8c0,0-0.8-0.9-2.2-0.9c-1.6,0-2.9,1.2-2.9,3s1.3,3,3,3c1.5,0,2.4-1.1,2.4-1.1
		l0.5,0.8c0,0-1,1.2-2.9,1.2c-2.2,0-4-1.6-4-3.9C494.4,423.4,496.1,421.8,498.3,421.8z"/>
	<path d="M503.1,419h1v5.9h1.2l2.3-2.9h1.2l-2.6,3.3l0,0l2.9,4.2h-1.2l-2.5-3.8h-1.2v3.8h-1L503.1,419L503.1,419z"/>
	<path d="M513.7,421.8c2.1,0,3.1,1.6,3.1,3.5c0,0.2,0,0.5,0,0.5H511c0,1.9,1.4,3,2.9,3c1.4,0,2.3-0.9,2.3-0.9l0.5,0.8
		c0,0-1.1,1.1-2.8,1.1c-2.2,0-3.9-1.6-3.9-3.9C510,423.3,511.7,421.8,513.7,421.8z M515.9,425c-0.1-1.6-1-2.3-2.1-2.3
		c-1.3,0-2.4,0.8-2.6,2.3H515.9z"/>
	<path d="M518.8,422h1v1.3c0,0.3,0,0.6,0,0.6l0,0c0.4-1.1,1.2-2,2.4-2c0.2,0,0.4,0,0.4,0v1c0,0-0.2,0-0.4,0c-1.1,0-1.9,0.8-2.2,1.9
		c-0.1,0.5-0.2,1-0.2,1.5v3.2h-1V422z"/>
	<path d="M529,419h1.1l2.8,6.2c0.2,0.5,0.5,1.3,0.5,1.3l0,0c0,0,0.3-0.8,0.5-1.3l2.8-6.2h1.1l0.8,10.5h-1l-0.6-7.4
		c0-0.6,0-1.5,0-1.5l0,0c0,0-0.3,0.9-0.6,1.5l-2.5,5.4h-1l-2.5-5.4c-0.2-0.5-0.6-1.5-0.6-1.5l0,0c0,0,0,0.9,0,1.5l-0.6,7.4h-1
		L529,419z"/>
	<path d="M541,419h1.1v1.3H541V419z M541,422h1v7.5h-1V422z"/>
	<path d="M547.9,421.8c1.8,0,2.8,1.1,2.8,1.1l-0.5,0.8c0,0-0.8-0.9-2.2-0.9c-1.6,0-2.9,1.2-2.9,3s1.3,3,3,3c1.5,0,2.4-1.1,2.4-1.1
		l0.5,0.8c0,0-1,1.2-2.9,1.2c-2.2,0-4-1.6-4-3.9C544,423.4,545.7,421.8,547.9,421.8z"/>
	<path d="M552.7,422h1v1.3c0,0.3,0,0.6,0,0.6l0,0c0.4-1.1,1.2-2,2.4-2c0.2,0,0.4,0,0.4,0v1c0,0-0.2,0-0.4,0c-1.1,0-1.9,0.8-2.2,1.9
		c-0.1,0.5-0.2,1-0.2,1.5v3.2h-1V422z"/>
	<path d="M561.4,421.8c2.2,0,4,1.7,4,3.9c0,2.3-1.8,4-4,4s-4-1.7-4-4C557.4,423.5,559.2,421.8,561.4,421.8z M561.4,428.8
		c1.6,0,2.9-1.3,2.9-3.1c0-1.7-1.3-3-2.9-3c-1.6,0-2.9,1.3-2.9,3C558.5,427.5,559.8,428.8,561.4,428.8z"/>
	<path d="M567.3,427.9c0,0,0.8,0.9,2.2,0.9c0.8,0,1.5-0.4,1.5-1.2c0-1.6-4.1-1.2-4.1-3.7c0-1.4,1.2-2.1,2.6-2.1
		c1.6,0,2.3,0.8,2.3,0.8l-0.5,0.8c0,0-0.6-0.7-1.9-0.7c-0.8,0-1.5,0.3-1.5,1.2c0,1.7,4.1,1.2,4.1,3.7c0,1.2-1.1,2.1-2.6,2.1
		c-1.8,0-2.8-1.1-2.8-1.1L567.3,427.9z"/>
	<path d="M577.2,421.8c2.1,0,3.1,1.6,3.1,3.5c0,0.2,0,0.5,0,0.5h-5.8c0,1.9,1.4,3,2.9,3c1.4,0,2.3-0.9,2.3-0.9l0.5,0.8
		c0,0-1.1,1.1-2.8,1.1c-2.2,0-3.9-1.6-3.9-3.9C573.4,423.3,575.1,421.8,577.2,421.8z M579.3,425c-0.1-1.6-1-2.3-2.1-2.3
		c-1.3,0-2.4,0.8-2.6,2.3H579.3z"/>
	<path d="M582.3,422h1v1.3c0,0.3,0,0.6,0,0.6l0,0c0.4-1.1,1.2-2,2.4-2c0.2,0,0.4,0,0.4,0v1c0,0-0.2,0-0.4,0c-1.1,0-1.9,0.8-2.2,1.9
		c-0.1,0.5-0.2,1-0.2,1.5v3.2h-1V422z"/>
	<path d="M586.6,422h1.1l2.1,5.5c0.1,0.4,0.3,0.9,0.3,0.9l0,0c0,0,0.1-0.5,0.3-0.9l2.1-5.5h1.1l-2.9,7.5h-1.1L586.6,422z"/>
	<path d="M594.8,419h1.1v1.3h-1.1V419z M594.9,422h1v7.5h-1V422z"/>
	<path d="M601.8,421.8c1.8,0,2.8,1.1,2.8,1.1l-0.5,0.8c0,0-0.8-0.9-2.2-0.9c-1.6,0-2.9,1.2-2.9,3s1.3,3,3,3c1.5,0,2.4-1.1,2.4-1.1
		l0.5,0.8c0,0-1,1.2-2.9,1.2c-2.2,0-4-1.6-4-3.9C597.8,423.4,599.6,421.8,601.8,421.8z"/>
	<path d="M609.8,421.8c2.1,0,3.1,1.6,3.1,3.5c0,0.2,0,0.5,0,0.5h-5.8c0,1.9,1.4,3,2.9,3c1.4,0,2.3-0.9,2.3-0.9l0.5,0.8
		c0,0-1.1,1.1-2.8,1.1c-2.2,0-3.9-1.6-3.9-3.9C606.1,423.3,607.7,421.8,609.8,421.8z M611.9,425c-0.1-1.6-1-2.3-2.1-2.3
		c-1.3,0-2.4,0.8-2.6,2.3H611.9z"/>
	<path d="M438.5,450.2h-4.2l-1.2,3.4H432l3.9-10.5h1.1l3.9,10.5h-1.1L438.5,450.2z M436.4,444.1c0,0-0.2,0.9-0.4,1.4l-1.4,3.8h3.6
		l-1.4-3.8C436.7,444.9,436.4,444.1,436.4,444.1L436.4,444.1z"/>
	<path d="M442.2,446h1v4.5c0,1.2,0.2,2.2,1.6,2.2c1.7,0,2.8-1.5,2.8-3.1V446h1v7.5h-1v-1.1c0-0.3,0-0.6,0-0.6l0,0
		c-0.3,0.7-1.3,1.9-3,1.9c-1.8,0-2.5-1-2.5-2.9V446H442.2z"/>
	<path d="M451.4,446.9h-1V446h1v-2.2h1v2.2h1.9v0.9h-1.9v3.7c0,1.8,1.1,2,1.7,2c0.2,0,0.3,0,0.3,0v0.9c0,0-0.2,0-0.4,0
		c-0.9,0-2.6-0.3-2.6-2.8V446.9z"/>
	<path d="M456.1,443h1v4.1c0,0.3,0,0.6,0,0.6l0,0c0.3-0.7,1.3-1.9,3-1.9c1.9,0,2.5,1.1,2.5,2.9v4.8h-1V449c0-1.2-0.2-2.2-1.6-2.2
		c-1.3,0-2.4,0.9-2.7,2.1c-0.1,0.3-0.1,0.6-0.1,1v3.6h-1L456.1,443L456.1,443z"/>
	<path d="M468.2,445.8c2.1,0,3.1,1.6,3.1,3.5c0,0.2,0,0.5,0,0.5h-5.8c0,1.9,1.4,3,2.9,3c1.4,0,2.3-0.9,2.3-0.9l0.5,0.8
		c0,0-1.1,1.1-2.8,1.1c-2.2,0-3.9-1.6-3.9-3.9C464.5,447.3,466.2,445.8,468.2,445.8z M470.3,449c-0.1-1.6-1-2.3-2.1-2.3
		c-1.3,0-2.4,0.8-2.6,2.3H470.3z"/>
	<path d="M473.3,446h1v1.1c0,0.3,0,0.6,0,0.6l0,0c0.3-0.7,1.2-1.9,3-1.9c1.9,0,2.5,1.1,2.5,2.9v4.8h-1V449c0-1.2-0.2-2.2-1.6-2.2
		c-1.3,0-2.4,0.9-2.7,2.1c-0.1,0.3-0.1,0.7-0.1,1v3.6h-1L473.3,446L473.3,446z"/>
	<path d="M482.5,446.9h-1V446h1v-2.2h1v2.2h1.9v0.9h-1.9v3.7c0,1.8,1.1,2,1.7,2c0.2,0,0.3,0,0.3,0v0.9c0,0-0.2,0-0.4,0
		c-0.9,0-2.6-0.3-2.6-2.8V446.9z"/>
	<path d="M487.2,443h1.1v1.3h-1.1V443z M487.2,446h1v7.5h-1V446z"/>
	<path d="M494.2,445.8c1.8,0,2.8,1.1,2.8,1.1l-0.5,0.8c0,0-0.8-0.9-2.2-0.9c-1.6,0-2.9,1.2-2.9,3s1.3,3,3,3c1.5,0,2.4-1.1,2.4-1.1
		l0.5,0.8c0,0-1,1.2-2.9,1.2c-2.2,0-4-1.6-4-3.9C490.2,447.4,491.9,445.8,494.2,445.8z"/>
	<path d="M503,448.9h0.4v-0.2c0-1.5-0.8-1.9-1.9-1.9c-1.2,0-2.1,0.7-2.1,0.7l-0.5-0.8c0,0,1-0.9,2.7-0.9c1.8,0,2.8,1,2.8,2.9v4.8h-1
		v-0.8c0-0.4,0-0.6,0-0.6l0,0c0,0-0.6,1.6-2.5,1.6c-1.3,0-2.6-0.7-2.6-2.2C498.3,448.9,501.7,448.9,503,448.9z M501.1,452.8
		c1.4,0,2.3-1.5,2.3-2.8v-0.3H503c-1.2,0-3.6,0-3.6,1.7C499.4,452.1,499.9,452.8,501.1,452.8z"/>
	<path d="M507,446.9h-1V446h1v-2.2h1v2.2h1.9v0.9H508v3.7c0,1.8,1.1,2,1.7,2c0.2,0,0.3,0,0.3,0v0.9c0,0-0.2,0-0.4,0
		c-0.9,0-2.6-0.3-2.6-2.8V446.9z"/>
	<path d="M511.7,443h1.1v1.3h-1.1L511.7,443L511.7,443z M511.7,446h1v7.5h-1V446z"/>
	<path d="M518.6,445.8c2.2,0,4,1.7,4,3.9c0,2.3-1.8,4-4,4s-4-1.7-4-4C514.7,447.5,516.4,445.8,518.6,445.8z M518.6,452.8
		c1.6,0,2.9-1.3,2.9-3.1c0-1.7-1.3-3-2.9-3c-1.6,0-2.9,1.3-2.9,3C515.7,451.5,517,452.8,518.6,452.8z"/>
	<path d="M524.5,446h1v1.1c0,0.3,0,0.6,0,0.6l0,0c0.3-0.7,1.2-1.9,3-1.9c1.9,0,2.5,1.1,2.5,2.9v4.8h-1V449c0-1.2-0.2-2.2-1.6-2.2
		c-1.3,0-2.4,0.9-2.7,2.1c-0.1,0.3-0.1,0.7-0.1,1v3.6h-1V446H524.5z"/>
	<path d="M536.6,442.4h0.9l-3.8,11.8h-1L536.6,442.4z"/>
	<path d="M544.8,450.2h-4.2l-1.2,3.4h-1.1l3.9-10.5h1.1l3.9,10.5H546L544.8,450.2z M542.7,444.1c0,0-0.2,0.9-0.4,1.4l-1.4,3.8h3.6
		l-1.4-3.8C542.9,444.9,542.7,444.1,542.7,444.1L542.7,444.1z"/>
	<path d="M548.5,446h1v4.5c0,1.2,0.2,2.2,1.6,2.2c1.7,0,2.8-1.5,2.8-3.1V446h1v7.5h-1v-1.1c0-0.3,0-0.6,0-0.6l0,0
		c-0.3,0.7-1.3,1.9-3,1.9c-1.8,0-2.5-1-2.5-2.9V446H548.5z"/>
	<path d="M557.7,446.9h-1V446h1v-2.2h1v2.2h1.9v0.9h-1.9v3.7c0,1.8,1.1,2,1.7,2c0.2,0,0.3,0,0.3,0v0.9c0,0-0.2,0-0.4,0
		c-0.9,0-2.6-0.3-2.6-2.8V446.9z"/>
	<path d="M562.4,443h1v4.1c0,0.3,0,0.6,0,0.6l0,0c0.3-0.7,1.3-1.9,3-1.9c1.9,0,2.5,1.1,2.5,2.9v4.8h-1V449c0-1.2-0.2-2.2-1.6-2.2
		c-1.3,0-2.4,0.9-2.7,2.1c-0.1,0.3-0.1,0.6-0.1,1v3.6h-1V443H562.4z"/>
	<path d="M574.7,445.8c2.2,0,4,1.7,4,3.9c0,2.3-1.8,4-4,4s-4-1.7-4-4C570.7,447.5,572.5,445.8,574.7,445.8z M574.7,452.8
		c1.6,0,2.9-1.3,2.9-3.1c0-1.7-1.3-3-2.9-3c-1.6,0-2.9,1.3-2.9,3C571.8,451.5,573.1,452.8,574.7,452.8z"/>
	<path d="M580.6,446h1v1.3c0,0.3,0,0.6,0,0.6l0,0c0.4-1.1,1.2-2,2.4-2c0.2,0,0.4,0,0.4,0v1c0,0-0.2,0-0.4,0c-1.1,0-1.9,0.8-2.2,1.9
		c-0.1,0.5-0.2,1-0.2,1.5v3.2h-1V446z"/>
	<path d="M585.9,443h1.1v1.3h-1.1V443z M586,446h1v7.5h-1V446z"/>
	<path d="M588.8,452.9l4.2-5.3c0.3-0.4,0.6-0.7,0.6-0.7l0,0c0,0-0.3,0-0.8,0H589V446h6v0.7l-4.2,5.3c-0.3,0.4-0.6,0.7-0.6,0.7l0,0
		c0,0,0.3,0,0.8,0h4.2v0.9h-6.3v-0.7H588.8z"/>
	<path d="M601.1,448.9h0.4v-0.2c0-1.5-0.8-1.9-1.9-1.9c-1.2,0-2.1,0.7-2.1,0.7l-0.5-0.8c0,0,1-0.9,2.7-0.9c1.8,0,2.8,1,2.8,2.9v4.8
		h-1v-0.8c0-0.4,0-0.6,0-0.6l0,0c0,0-0.6,1.6-2.5,1.6c-1.3,0-2.6-0.7-2.6-2.2C596.5,448.9,599.8,448.9,601.1,448.9z M599.2,452.8
		c1.4,0,2.3-1.5,2.3-2.8v-0.3h-0.4c-1.2,0-3.6,0-3.6,1.7C597.5,452.1,598.1,452.8,599.2,452.8z"/>
	<path d="M605.1,446.9h-1V446h1v-2.2h1v2.2h1.9v0.9h-1.9v3.7c0,1.8,1.1,2,1.7,2c0.2,0,0.3,0,0.3,0v0.9c0,0-0.2,0-0.4,0
		c-0.9,0-2.6-0.3-2.6-2.8V446.9z"/>
	<path d="M609.8,443h1.1v1.3h-1.1V443z M609.9,446h1v7.5h-1V446z"/>
	<path d="M616.8,445.8c2.2,0,4,1.7,4,3.9c0,2.3-1.8,4-4,4s-4-1.7-4-4C612.8,447.5,614.6,445.8,616.8,445.8z M616.8,452.8
		c1.6,0,2.9-1.3,2.9-3.1c0-1.7-1.3-3-2.9-3s-2.9,1.3-2.9,3C613.8,451.5,615.2,452.8,616.8,452.8z"/>
	<path d="M622.7,446h1v1.1c0,0.3,0,0.6,0,0.6l0,0c0.3-0.7,1.2-1.9,3-1.9c1.9,0,2.5,1.1,2.5,2.9v4.8h-1V449c0-1.2-0.2-2.2-1.6-2.2
		c-1.3,0-2.4,0.9-2.7,2.1c-0.1,0.3-0.1,0.7-0.1,1v3.6h-1V446H622.7z"/>
</g>
<rect x="18.2" y="496.9" class="st0" width="1025.8" height="120.1"/>
<g>
	<path d="M454.6,537.3c2.4,0,3.8,1.2,3.8,1.2l-0.6,0.8c0,0-1.2-1-3.1-1c-2.5,0-4.3,2-4.3,4.5c0,2.6,1.8,4.5,4.2,4.5
		c2.1,0,3.3-1.5,3.3-1.5V544h-1.8v-1h2.8v5h-1v-0.8c0-0.2,0-0.5,0-0.5l0,0c0,0-1.2,1.4-3.4,1.4c-2.9,0-5.2-2.3-5.2-5.5
		C449.3,539.7,451.6,537.3,454.6,537.3z"/>
	<path d="M464.5,540.3c2.2,0,4,1.7,4,3.9c0,2.3-1.8,4-4,4s-4-1.7-4-4C460.5,542,462.3,540.3,464.5,540.3z M464.5,547.3
		c1.6,0,2.9-1.3,2.9-3.1c0-1.7-1.3-3-2.9-3s-2.9,1.3-2.9,3S462.9,547.3,464.5,547.3z"/>
	<path d="M474.8,537.5h3.4c3.2,0,5.3,1.9,5.3,5.3c0,3.4-2.1,5.3-5.3,5.3h-3.4V537.5z M478.1,547.1c2.6,0,4.3-1.5,4.3-4.3
		s-1.7-4.3-4.3-4.3h-2.3v8.7h2.3V547.1z"/>
	<path d="M489,540.3c2.2,0,4,1.7,4,3.9c0,2.3-1.8,4-4,4s-4-1.7-4-4C485,542,486.8,540.3,489,540.3z M489,547.3
		c1.6,0,2.9-1.3,2.9-3.1c0-1.7-1.3-3-2.9-3s-2.9,1.3-2.9,3S487.4,547.3,489,547.3z"/>
	<path d="M498.3,540.3c1.8,0,2.8,1.1,2.8,1.1l-0.5,0.8c0,0-0.8-0.9-2.2-0.9c-1.6,0-2.9,1.2-2.9,3s1.3,3,3,3c1.5,0,2.4-1.1,2.4-1.1
		l0.5,0.8c0,0-1,1.2-2.9,1.2c-2.2,0-4-1.6-4-3.9C494.4,541.9,496.1,540.3,498.3,540.3z"/>
	<path d="M503.1,537.5h1v5.9h1.2l2.3-2.9h1.2l-2.6,3.3l0,0l2.9,4.2h-1.2l-2.5-3.8h-1.2v3.8h-1L503.1,537.5L503.1,537.5z"/>
	<path d="M513.7,540.3c2.1,0,3.1,1.6,3.1,3.5c0,0.2,0,0.5,0,0.5H511c0,1.9,1.4,3,2.9,3c1.4,0,2.3-0.9,2.3-0.9l0.5,0.8
		c0,0-1.1,1-2.8,1c-2.2,0-3.9-1.6-3.9-3.9C510,541.8,511.7,540.3,513.7,540.3z M515.9,543.4c-0.1-1.6-1-2.3-2.1-2.3
		c-1.3,0-2.4,0.8-2.6,2.3H515.9z"/>
	<path d="M518.8,540.5h1v1.3c0,0.3,0,0.6,0,0.6l0,0c0.4-1.1,1.2-2,2.4-2c0.2,0,0.4,0,0.4,0v1c0,0-0.2,0-0.4,0c-1.1,0-1.9,0.8-2.2,2
		c-0.1,0.5-0.2,1-0.2,1.5v3.2h-1V540.5z"/>
	<path d="M529,537.5h1.1l2.8,6.2c0.2,0.5,0.5,1.3,0.5,1.3l0,0c0,0,0.3-0.8,0.5-1.3l2.8-6.2h1.1l0.8,10.5h-1l-0.6-7.4
		c0-0.6,0-1.5,0-1.5l0,0c0,0-0.3,0.9-0.6,1.5l-2.5,5.4h-1l-2.5-5.4c-0.2-0.5-0.6-1.5-0.6-1.5l0,0c0,0,0,0.9,0,1.5l-0.6,7.4h-1
		L529,537.5z"/>
	<path d="M541,537.5h1.1v1.3H541V537.5z M541,540.5h1v7.5h-1V540.5z"/>
	<path d="M547.9,540.3c1.8,0,2.8,1.1,2.8,1.1l-0.5,0.8c0,0-0.8-0.9-2.2-0.9c-1.6,0-2.9,1.2-2.9,3s1.3,3,3,3c1.5,0,2.4-1.1,2.4-1.1
		l0.5,0.8c0,0-1,1.2-2.9,1.2c-2.2,0-4-1.6-4-3.9C544,541.9,545.7,540.3,547.9,540.3z"/>
	<path d="M552.7,540.5h1v1.3c0,0.3,0,0.6,0,0.6l0,0c0.4-1.1,1.2-2,2.4-2c0.2,0,0.4,0,0.4,0v1c0,0-0.2,0-0.4,0c-1.1,0-1.9,0.8-2.2,2
		c-0.1,0.5-0.2,1-0.2,1.5v3.2h-1V540.5z"/>
	<path d="M561.4,540.3c2.2,0,4,1.7,4,3.9c0,2.3-1.8,4-4,4s-4-1.7-4-4C557.4,542,559.2,540.3,561.4,540.3z M561.4,547.3
		c1.6,0,2.9-1.3,2.9-3.1c0-1.7-1.3-3-2.9-3c-1.6,0-2.9,1.3-2.9,3S559.8,547.3,561.4,547.3z"/>
	<path d="M567.3,546.3c0,0,0.8,0.9,2.2,0.9c0.8,0,1.5-0.4,1.5-1.2c0-1.7-4.1-1.2-4.1-3.7c0-1.3,1.2-2.1,2.6-2.1
		c1.6,0,2.3,0.8,2.3,0.8l-0.5,0.8c0,0-0.6-0.7-1.9-0.7c-0.8,0-1.5,0.3-1.5,1.2c0,1.7,4.1,1.2,4.1,3.7c0,1.2-1.1,2.1-2.6,2.1
		c-1.8,0-2.8-1.1-2.8-1.1L567.3,546.3z"/>
	<path d="M577.2,540.3c2.1,0,3.1,1.6,3.1,3.5c0,0.2,0,0.5,0,0.5h-5.8c0,1.9,1.4,3,2.9,3c1.4,0,2.3-0.9,2.3-0.9l0.5,0.8
		c0,0-1.1,1-2.8,1c-2.2,0-3.9-1.6-3.9-3.9C573.4,541.8,575.1,540.3,577.2,540.3z M579.3,543.4c-0.1-1.6-1-2.3-2.1-2.3
		c-1.3,0-2.4,0.8-2.6,2.3H579.3z"/>
	<path d="M582.3,540.5h1v1.3c0,0.3,0,0.6,0,0.6l0,0c0.4-1.1,1.2-2,2.4-2c0.2,0,0.4,0,0.4,0v1c0,0-0.2,0-0.4,0c-1.1,0-1.9,0.8-2.2,2
		c-0.1,0.5-0.2,1-0.2,1.5v3.2h-1V540.5z"/>
	<path d="M586.6,540.5h1.1l2.1,5.5c0.1,0.4,0.3,0.9,0.3,0.9l0,0c0,0,0.1-0.5,0.3-0.9l2.1-5.5h1.1l-2.9,7.5h-1.1L586.6,540.5z"/>
	<path d="M594.8,537.5h1.1v1.3h-1.1V537.5z M594.9,540.5h1v7.5h-1V540.5z"/>
	<path d="M601.8,540.3c1.8,0,2.8,1.1,2.8,1.1l-0.5,0.8c0,0-0.8-0.9-2.2-0.9c-1.6,0-2.9,1.2-2.9,3s1.3,3,3,3c1.5,0,2.4-1.1,2.4-1.1
		l0.5,0.8c0,0-1,1.2-2.9,1.2c-2.2,0-4-1.6-4-3.9C597.8,541.9,599.6,540.3,601.8,540.3z"/>
	<path d="M609.8,540.3c2.1,0,3.1,1.6,3.1,3.5c0,0.2,0,0.5,0,0.5h-5.8c0,1.9,1.4,3,2.9,3c1.4,0,2.3-0.9,2.3-0.9l0.5,0.8
		c0,0-1.1,1-2.8,1c-2.2,0-3.9-1.6-3.9-3.9C606.1,541.8,607.7,540.3,609.8,540.3z M611.9,543.4c-0.1-1.6-1-2.3-2.1-2.3
		c-1.3,0-2.4,0.8-2.6,2.3H611.9z"/>
	<path d="M493.7,568.6h-4.2l-1.2,3.4h-1.1l3.9-10.5h1.1L496,572h-1.1L493.7,568.6z M491.6,562.6c0,0-0.2,0.9-0.4,1.4l-1.4,3.8h3.6
		L492,564C491.8,563.4,491.6,562.6,491.6,562.6L491.6,562.6z"/>
	<path d="M497.7,561.5h3.6c1.9,0,3.3,1.2,3.3,3.2s-1.4,3.2-3.3,3.2h-2.6v4.1h-1V561.5z M501.3,566.9c1.4,0,2.3-0.9,2.3-2.3
		c0-1.4-0.9-2.2-2.3-2.2h-2.5v4.5H501.3z"/>
	<path d="M506.7,561.5h1V572h-1V561.5z"/>
	<path d="M514.8,561.5h5.9v0.9h-4.9v3.8h4v0.9h-4v3.9h5.2v0.9h-6.2V561.5z"/>
	<path d="M523.1,564.5h1v1.1c0,0.3,0,0.6,0,0.6l0,0c0.3-0.7,1.2-1.9,3-1.9c1.9,0,2.5,1.1,2.5,2.9v4.8h-1v-4.5c0-1.2-0.2-2.2-1.6-2.2
		c-1.3,0-2.4,0.9-2.7,2.1c-0.1,0.3-0.1,0.7-0.1,1v3.6h-1v-7.5H523.1z"/>
	<path d="M534.9,564.3c1.8,0,2.5,1.4,2.5,1.4l0,0c0,0,0-0.3,0-0.6v-3.7h1V572h-1v-0.8c0-0.3,0-0.5,0-0.5l0,0c0,0-0.6,1.5-2.6,1.5
		s-3.3-1.6-3.3-4C531.5,565.8,532.9,564.3,534.9,564.3z M534.9,571.3c1.3,0,2.4-0.9,2.4-3c0-1.5-0.8-3-2.4-3c-1.3,0-2.4,1.1-2.4,3
		C532.6,570.1,533.5,571.3,534.9,571.3z"/>
	<path d="M540.8,564.5h1v0.7c0,0.3,0,0.6,0,0.6l0,0c0,0,0.6-1.5,2.6-1.5s3.3,1.6,3.3,4s-1.4,3.9-3.4,3.9c-1.8,0-2.5-1.4-2.5-1.4l0,0
		c0,0,0,0.3,0,0.7v3.6h-1L540.8,564.5L540.8,564.5z M544.2,571.3c1.3,0,2.4-1.1,2.4-3c0-1.8-1-3-2.4-3c-1.3,0-2.4,0.9-2.4,3
		C541.8,569.8,542.7,571.3,544.2,571.3z"/>
	<path d="M553.1,564.3c2.2,0,4,1.7,4,3.9c0,2.3-1.8,4-4,4s-4-1.7-4-4C549.1,566,550.9,564.3,553.1,564.3z M553.1,571.3
		c1.6,0,2.9-1.3,2.9-3.1c0-1.7-1.3-3-2.9-3c-1.6,0-2.9,1.3-2.9,3C550.2,569.9,551.5,571.3,553.1,571.3z"/>
	<path d="M559,561.5h1.1v1.3H559V561.5z M559,564.5h1v7.5h-1V564.5z"/>
	<path d="M562.5,564.5h1v1.1c0,0.3,0,0.6,0,0.6l0,0c0.3-0.7,1.2-1.9,3-1.9c1.9,0,2.5,1.1,2.5,2.9v4.8h-1v-4.5c0-1.2-0.2-2.2-1.6-2.2
		c-1.3,0-2.4,0.9-2.7,2.1c-0.1,0.3-0.1,0.7-0.1,1v3.6h-1v-7.5H562.5z"/>
	<path d="M571.7,565.4h-1v-0.9h1v-2.2h1v2.2h1.9v0.9h-1.9v3.8c0,1.8,1.1,2,1.7,2c0.2,0,0.3,0,0.3,0v0.9c0,0-0.2,0-0.4,0
		c-0.9,0-2.6-0.3-2.6-2.8V565.4z"/>
</g>
<rect x="18.2" y="617.1" class="st0" width="1025.8" height="120.1"/>
<g>
	<path d="M498.1,683.5c0,0,1.1,1.2,2.8,1.2c1.2,0,2.1-0.7,2.1-1.8c0-2.7-5.3-2-5.3-5.2c0-1.5,1.3-2.8,3.3-2.8c1.8,0,2.8,1,2.8,1
		l-0.5,0.9c0,0-0.9-0.9-2.3-0.9c-1.3,0-2.2,0.9-2.2,1.8c0,2.5,5.3,1.8,5.3,5.2c0,1.6-1.2,2.8-3.2,2.8c-2.2,0-3.3-1.3-3.3-1.3
		L498.1,683.5z"/>
	<path d="M506.3,674.9h1l5.4,7.6c0.4,0.5,0.9,1.4,0.9,1.4l0,0c0,0-0.1-0.9-0.1-1.4v-7.6h1v10.5h-1l-5.4-7.6
		c-0.4-0.5-0.9-1.4-0.9-1.4l0,0c0,0,0.1,0.9,0.1,1.4v7.6h-1L506.3,674.9L506.3,674.9z"/>
	<path d="M517.4,683.5c0,0,1.1,1.2,2.8,1.2c1.2,0,2.1-0.7,2.1-1.8c0-2.7-5.3-2-5.3-5.2c0-1.5,1.3-2.8,3.3-2.8c1.8,0,2.8,1,2.8,1
		l-0.5,0.9c0,0-0.9-0.9-2.3-0.9c-1.3,0-2.2,0.9-2.2,1.8c0,2.5,5.3,1.8,5.3,5.2c0,1.6-1.2,2.8-3.2,2.8c-2.2,0-3.3-1.3-3.3-1.3
		L517.4,683.5z"/>
	<path d="M532.1,675.9h-3.8V675h8.6v0.9h-3.8v9.6h-1V675.9z"/>
	<path d="M540.2,677.8c2.2,0,4,1.7,4,3.9c0,2.3-1.8,4-4,4s-4-1.7-4-4S538,677.8,540.2,677.8z M540.2,684.8c1.6,0,2.9-1.3,2.9-3.1
		c0-1.7-1.3-3-2.9-3c-1.6,0-2.9,1.3-2.9,3S538.6,684.8,540.2,684.8z"/>
	<path d="M546.1,677.9h1v0.7c0,0.3,0,0.6,0,0.6l0,0c0,0,0.6-1.5,2.6-1.5s3.3,1.6,3.3,4s-1.4,3.9-3.4,3.9c-1.8,0-2.5-1.4-2.5-1.4l0,0
		c0,0,0,0.3,0,0.7v3.6h-1L546.1,677.9L546.1,677.9z M549.5,684.8c1.3,0,2.4-1.1,2.4-3c0-1.8-1-3-2.4-3c-1.3,0-2.4,0.9-2.4,3
		C547.1,683.3,548,684.8,549.5,684.8z"/>
	<path d="M554.9,674.9h1.1v1.3h-1.1V674.9z M555,677.9h1v7.5h-1V677.9z"/>
	<path d="M561.9,677.8c1.8,0,2.8,1.1,2.8,1.1l-0.5,0.8c0,0-0.8-0.9-2.2-0.9c-1.6,0-2.9,1.2-2.9,3s1.3,3,3,3c1.5,0,2.4-1.1,2.4-1.1
		l0.5,0.8c0,0-1,1.2-2.9,1.2c-2.2,0-4-1.6-4-3.9C557.9,679.4,559.7,677.8,561.9,677.8z"/>
</g>
<rect x="18.2" y="737.2" class="st0" width="256.5" height="120.1"/>
<g>
	<path d="M108,803.7c0,0,1.1,1.2,2.8,1.2c1.2,0,2.1-0.7,2.1-1.8c0-2.7-5.3-2-5.3-5.2c0-1.5,1.3-2.8,3.3-2.8c1.8,0,2.8,1,2.8,1
		l-0.5,0.9c0,0-0.9-0.9-2.3-0.9c-1.3,0-2.2,0.9-2.2,1.8c0,2.5,5.3,1.8,5.3,5.2c0,1.6-1.2,2.8-3.2,2.8c-2.2,0-3.3-1.3-3.3-1.3
		L108,803.7z"/>
	<path d="M120.9,794.9c3,0,5.4,2.4,5.4,5.4c0,1.4-0.5,2.7-1.3,3.6l1.3,1.3l-0.6,0.6l-1.3-1.3c-0.9,0.8-2.1,1.2-3.5,1.2
		c-3,0-5.3-2.4-5.3-5.5C115.5,797.3,117.9,794.9,120.9,794.9z M120.9,804.9c1,0,2-0.4,2.7-1l-1.3-1.3l0.6-0.6l1.3,1.3
		c0.6-0.8,1-1.8,1-2.9c0-2.5-1.9-4.4-4.3-4.4s-4.3,1.9-4.3,4.4C116.6,802.9,118.5,804.9,120.9,804.9z"/>
	<path d="M128.6,803.7c0,0,1.1,1.2,2.8,1.2c1.2,0,2.1-0.7,2.1-1.8c0-2.7-5.3-2-5.3-5.2c0-1.5,1.3-2.8,3.3-2.8c1.8,0,2.8,1,2.8,1
		l-0.5,0.9c0,0-0.9-0.9-2.3-0.9c-1.3,0-2.2,0.9-2.2,1.8c0,2.5,5.3,1.8,5.3,5.2c0,1.6-1.2,2.8-3.2,2.8c-2.2,0-3.3-1.3-3.3-1.3
		L128.6,803.7z"/>
	<path d="M145.5,794.9c3,0,5.4,2.4,5.4,5.4c0,1.4-0.5,2.7-1.3,3.6l1.3,1.3l-0.6,0.6l-1.3-1.3c-0.9,0.8-2.1,1.2-3.5,1.2
		c-3,0-5.3-2.4-5.3-5.5C140.2,797.3,142.5,794.9,145.5,794.9z M145.5,804.9c1,0,2-0.4,2.7-1l-1.3-1.3l0.6-0.6l1.3,1.3
		c0.6-0.8,1-1.8,1-2.9c0-2.5-1.9-4.4-4.3-4.4c-2.4,0-4.3,1.9-4.3,4.4S143.1,804.9,145.5,804.9z"/>
	<path d="M153,798.1h1v4.5c0,1.2,0.2,2.2,1.6,2.2c1.7,0,2.8-1.5,2.8-3.1v-3.6h1v7.5h-1v-1.1c0-0.3,0-0.6,0-0.6l0,0
		c-0.3,0.7-1.3,1.9-3,1.9c-1.8,0-2.5-1-2.5-2.9L153,798.1L153,798.1z"/>
	<path d="M165.1,797.9c2.1,0,3.1,1.6,3.1,3.5c0,0.2,0,0.5,0,0.5h-5.8c0,1.9,1.4,3,2.9,3c1.4,0,2.3-0.9,2.3-0.9l0.5,0.8
		c0,0-1.1,1-2.8,1c-2.2,0-3.9-1.6-3.9-3.9C161.4,799.4,163.1,797.9,165.1,797.9z M167.2,801.1c-0.1-1.6-1-2.3-2.1-2.3
		c-1.3,0-2.4,0.8-2.6,2.3H167.2z"/>
	<path d="M170.1,798.1h1v4.5c0,1.2,0.2,2.2,1.6,2.2c1.7,0,2.8-1.5,2.8-3.1v-3.6h1v7.5h-1v-1.1c0-0.3,0-0.6,0-0.6l0,0
		c-0.3,0.7-1.3,1.9-3,1.9c-1.8,0-2.5-1-2.5-2.9L170.1,798.1L170.1,798.1z"/>
	<path d="M182.2,797.9c2.1,0,3.1,1.6,3.1,3.5c0,0.2,0,0.5,0,0.5h-5.8c0,1.9,1.4,3,2.9,3c1.4,0,2.3-0.9,2.3-0.9l0.5,0.8
		c0,0-1.1,1-2.8,1c-2.2,0-3.9-1.6-3.9-3.9C178.5,799.4,180.2,797.9,182.2,797.9z M184.4,801.1c-0.1-1.6-1-2.3-2.1-2.3
		c-1.3,0-2.4,0.8-2.6,2.3H184.4z"/>
</g>
<rect x="274.6" y="737.2" class="st0" width="256.5" height="120.1"/>
<g>
	<path d="M364.5,803.7c0,0,1.1,1.2,2.8,1.2c1.2,0,2.1-0.7,2.1-1.8c0-2.7-5.3-2-5.3-5.2c0-1.5,1.3-2.8,3.3-2.8c1.8,0,2.8,1,2.8,1
		l-0.5,0.9c0,0-0.9-0.9-2.3-0.9c-1.3,0-2.2,0.9-2.2,1.8c0,2.5,5.3,1.8,5.3,5.2c0,1.6-1.2,2.8-3.2,2.8c-2.2,0-3.3-1.3-3.3-1.3
		L364.5,803.7z"/>
	<path d="M377.3,794.9c3,0,5.4,2.4,5.4,5.4c0,1.4-0.5,2.7-1.3,3.6l1.3,1.3l-0.6,0.6l-1.3-1.3c-0.9,0.8-2.1,1.2-3.5,1.2
		c-3,0-5.3-2.4-5.3-5.5C372,797.3,374.4,794.9,377.3,794.9z M377.3,804.9c1,0,2-0.4,2.7-1l-1.3-1.3l0.6-0.6l1.3,1.3
		c0.6-0.8,1-1.8,1-2.9c0-2.5-1.9-4.4-4.3-4.4s-4.3,1.9-4.3,4.4C373.1,802.9,374.9,804.9,377.3,804.9z"/>
	<path d="M385.1,803.7c0,0,1.1,1.2,2.8,1.2c1.2,0,2.1-0.7,2.1-1.8c0-2.7-5.3-2-5.3-5.2c0-1.5,1.3-2.8,3.3-2.8c1.8,0,2.8,1,2.8,1
		l-0.5,0.9c0,0-0.9-0.9-2.3-0.9c-1.3,0-2.2,0.9-2.2,1.8c0,2.5,5.3,1.8,5.3,5.2c0,1.6-1.2,2.8-3.2,2.8c-2.2,0-3.3-1.3-3.3-1.3
		L385.1,803.7z"/>
	<path d="M402,794.9c3,0,5.4,2.4,5.4,5.4c0,1.4-0.5,2.7-1.3,3.6l1.3,1.3l-0.6,0.6l-1.3-1.3c-0.9,0.8-2.1,1.2-3.5,1.2
		c-3,0-5.3-2.4-5.3-5.5C396.6,797.3,399,794.9,402,794.9z M402,804.9c1,0,2-0.4,2.7-1l-1.3-1.3l0.6-0.6l1.3,1.3c0.6-0.8,1-1.8,1-2.9
		c0-2.5-1.9-4.4-4.3-4.4s-4.3,1.9-4.3,4.4C397.7,802.9,399.6,804.9,402,804.9z"/>
	<path d="M409.5,798.1h1v4.5c0,1.2,0.2,2.2,1.6,2.2c1.7,0,2.8-1.5,2.8-3.1v-3.6h1v7.5h-1v-1.1c0-0.3,0-0.6,0-0.6l0,0
		c-0.3,0.7-1.3,1.9-3,1.9c-1.8,0-2.5-1-2.5-2.9v-4.8H409.5z"/>
	<path d="M421.6,797.9c2.1,0,3.1,1.6,3.1,3.5c0,0.2,0,0.5,0,0.5h-5.8c0,1.9,1.4,3,2.9,3c1.4,0,2.3-0.9,2.3-0.9l0.5,0.8
		c0,0-1.1,1-2.8,1c-2.2,0-3.9-1.6-3.9-3.9C417.9,799.4,419.5,797.9,421.6,797.9z M423.7,801.1c-0.1-1.6-1-2.3-2.1-2.3
		c-1.3,0-2.4,0.8-2.6,2.3H423.7z"/>
	<path d="M426.6,798.1h1v4.5c0,1.2,0.2,2.2,1.6,2.2c1.7,0,2.8-1.5,2.8-3.1v-3.6h1v7.5h-1v-1.1c0-0.3,0-0.6,0-0.6l0,0
		c-0.3,0.7-1.3,1.9-3,1.9c-1.8,0-2.5-1-2.5-2.9v-4.8H426.6z"/>
	<path d="M438.7,797.9c2.1,0,3.1,1.6,3.1,3.5c0,0.2,0,0.5,0,0.5H436c0,1.9,1.4,3,2.9,3c1.4,0,2.3-0.9,2.3-0.9l0.5,0.8
		c0,0-1.1,1-2.8,1c-2.2,0-3.9-1.6-3.9-3.9C435,799.4,436.7,797.9,438.7,797.9z M440.8,801.1c-0.1-1.6-1-2.3-2.1-2.3
		c-1.3,0-2.4,0.8-2.6,2.3H440.8z"/>
</g>
<rect x="531.1" y="737.2" class="st0" width="256.5" height="120.1"/>
<g>
	<path d="M620.9,803.7c0,0,1.1,1.2,2.8,1.2c1.2,0,2.1-0.7,2.1-1.8c0-2.7-5.3-2-5.3-5.2c0-1.5,1.3-2.8,3.3-2.8c1.8,0,2.8,1,2.8,1
		l-0.5,0.9c0,0-0.9-0.9-2.3-0.9c-1.4,0-2.2,0.9-2.2,1.8c0,2.5,5.3,1.8,5.3,5.2c0,1.6-1.2,2.8-3.2,2.8c-2.2,0-3.3-1.3-3.3-1.3
		L620.9,803.7z"/>
	<path d="M633.8,794.9c3,0,5.4,2.4,5.4,5.4c0,1.4-0.5,2.7-1.3,3.6l1.3,1.3l-0.6,0.6l-1.3-1.3c-0.9,0.8-2.1,1.2-3.5,1.2
		c-3,0-5.3-2.4-5.3-5.5C628.5,797.3,630.8,794.9,633.8,794.9z M633.8,804.9c1,0,2-0.4,2.7-1l-1.3-1.3l0.6-0.6l1.3,1.3
		c0.6-0.8,1-1.8,1-2.9c0-2.5-1.9-4.4-4.3-4.4c-2.4,0-4.3,1.9-4.3,4.4S631.4,804.9,633.8,804.9z"/>
	<path d="M641.5,803.7c0,0,1.1,1.2,2.8,1.2c1.2,0,2.1-0.7,2.1-1.8c0-2.7-5.3-2-5.3-5.2c0-1.5,1.3-2.8,3.3-2.8c1.8,0,2.8,1,2.8,1
		l-0.5,0.9c0,0-0.9-0.9-2.3-0.9c-1.4,0-2.2,0.9-2.2,1.8c0,2.5,5.3,1.8,5.3,5.2c0,1.6-1.2,2.8-3.2,2.8c-2.2,0-3.3-1.3-3.3-1.3
		L641.5,803.7z"/>
	<path d="M658.4,794.9c3,0,5.4,2.4,5.4,5.4c0,1.4-0.5,2.7-1.3,3.6l1.3,1.3l-0.6,0.6l-1.3-1.3c-0.9,0.8-2.1,1.2-3.5,1.2
		c-3,0-5.3-2.4-5.3-5.5C653.1,797.3,655.4,794.9,658.4,794.9z M658.4,804.9c1,0,2-0.4,2.7-1l-1.3-1.3l0.6-0.6l1.3,1.3
		c0.6-0.8,1-1.8,1-2.9c0-2.5-1.9-4.4-4.3-4.4c-2.4,0-4.3,1.9-4.3,4.4C654.2,802.9,656,804.9,658.4,804.9z"/>
	<path d="M665.9,798.1h1v4.5c0,1.2,0.2,2.2,1.6,2.2c1.7,0,2.8-1.5,2.8-3.1v-3.6h1v7.5h-1v-1.1c0-0.3,0-0.6,0-0.6l0,0
		c-0.3,0.7-1.3,1.9-3,1.9c-1.8,0-2.5-1-2.5-2.9v-4.8H665.9z"/>
	<path d="M678,797.9c2.1,0,3.1,1.6,3.1,3.5c0,0.2,0,0.5,0,0.5h-5.8c0,1.9,1.4,3,2.9,3c1.4,0,2.3-0.9,2.3-0.9l0.5,0.8
		c0,0-1.1,1-2.8,1c-2.2,0-3.9-1.6-3.9-3.9C674.3,799.4,676,797.9,678,797.9z M680.2,801.1c-0.1-1.6-1-2.3-2.1-2.3
		c-1.3,0-2.4,0.8-2.6,2.3H680.2z"/>
	<path d="M683,798.1h1v4.5c0,1.2,0.2,2.2,1.6,2.2c1.7,0,2.8-1.5,2.8-3.1v-3.6h1v7.5h-1v-1.1c0-0.3,0-0.6,0-0.6l0,0
		c-0.3,0.7-1.3,1.9-3,1.9c-1.8,0-2.5-1-2.5-2.9v-4.8H683z"/>
	<path d="M695.2,797.9c2.1,0,3.1,1.6,3.1,3.5c0,0.2,0,0.5,0,0.5h-5.8c0,1.9,1.4,3,2.9,3c1.4,0,2.3-0.9,2.3-0.9l0.5,0.8
		c0,0-1.1,1-2.8,1c-2.2,0-3.9-1.6-3.9-3.9C691.4,799.4,693.1,797.9,695.2,797.9z M697.3,801.1c-0.1-1.6-1-2.3-2.1-2.3
		c-1.3,0-2.4,0.8-2.6,2.3H697.3z"/>
</g>
<rect x="787.5" y="737.2" class="st0" width="256.5" height="120.1"/>
<g>
	<path d="M877.4,803.7c0,0,1.1,1.2,2.8,1.2c1.2,0,2.1-0.7,2.1-1.8c0-2.7-5.3-2-5.3-5.2c0-1.5,1.3-2.8,3.3-2.8c1.8,0,2.8,1,2.8,1
		l-0.5,0.9c0,0-0.9-0.9-2.3-0.9c-1.4,0-2.2,0.9-2.2,1.8c0,2.5,5.3,1.8,5.3,5.2c0,1.6-1.2,2.8-3.2,2.8c-2.2,0-3.3-1.3-3.3-1.3
		L877.4,803.7z"/>
	<path d="M890.3,794.9c3,0,5.4,2.4,5.4,5.4c0,1.4-0.5,2.7-1.3,3.6l1.3,1.3l-0.6,0.6l-1.3-1.3c-0.9,0.8-2.1,1.2-3.5,1.2
		c-3,0-5.3-2.4-5.3-5.5C884.9,797.3,887.3,794.9,890.3,794.9z M890.3,804.9c1,0,2-0.4,2.7-1l-1.3-1.3l0.6-0.6l1.3,1.3
		c0.6-0.8,1-1.8,1-2.9c0-2.5-1.9-4.4-4.3-4.4c-2.4,0-4.3,1.9-4.3,4.4S887.9,804.9,890.3,804.9z"/>
	<path d="M898,803.7c0,0,1.1,1.2,2.8,1.2c1.2,0,2.1-0.7,2.1-1.8c0-2.7-5.3-2-5.3-5.2c0-1.5,1.3-2.8,3.3-2.8c1.8,0,2.8,1,2.8,1
		l-0.5,0.9c0,0-0.9-0.9-2.3-0.9c-1.4,0-2.2,0.9-2.2,1.8c0,2.5,5.3,1.8,5.3,5.2c0,1.6-1.2,2.8-3.2,2.8c-2.2,0-3.3-1.3-3.3-1.3
		L898,803.7z"/>
	<path d="M914.9,794.9c3,0,5.4,2.4,5.4,5.4c0,1.4-0.5,2.7-1.3,3.6l1.3,1.3l-0.6,0.6l-1.3-1.3c-0.9,0.8-2.1,1.2-3.5,1.2
		c-3,0-5.3-2.4-5.3-5.5C909.6,797.3,911.9,794.9,914.9,794.9z M914.9,804.9c1,0,2-0.4,2.7-1l-1.3-1.3l0.6-0.6l1.3,1.3
		c0.6-0.8,1-1.8,1-2.9c0-2.5-1.9-4.4-4.3-4.4c-2.4,0-4.3,1.9-4.3,4.4C910.6,802.9,912.5,804.9,914.9,804.9z"/>
	<path d="M922.4,798.1h1v4.5c0,1.2,0.2,2.2,1.6,2.2c1.7,0,2.8-1.5,2.8-3.1v-3.6h1v7.5h-1v-1.1c0-0.3,0-0.6,0-0.6l0,0
		c-0.3,0.7-1.3,1.9-3,1.9c-1.8,0-2.5-1-2.5-2.9v-4.8H922.4z"/>
	<path d="M934.5,797.9c2.1,0,3.1,1.6,3.1,3.5c0,0.2,0,0.5,0,0.5h-5.8c0,1.9,1.4,3,2.9,3c1.4,0,2.3-0.9,2.3-0.9l0.5,0.8
		c0,0-1.1,1-2.8,1c-2.2,0-3.9-1.6-3.9-3.9C930.8,799.4,932.5,797.9,934.5,797.9z M936.6,801.1c-0.1-1.6-1-2.3-2.1-2.3
		c-1.3,0-2.4,0.8-2.6,2.3H936.6z"/>
	<path d="M939.5,798.1h1v4.5c0,1.2,0.2,2.2,1.6,2.2c1.7,0,2.8-1.5,2.8-3.1v-3.6h1v7.5h-1v-1.1c0-0.3,0-0.6,0-0.6l0,0
		c-0.3,0.7-1.3,1.9-3,1.9c-1.8,0-2.5-1-2.5-2.9v-4.8H939.5z"/>
	<path d="M951.6,797.9c2.1,0,3.1,1.6,3.1,3.5c0,0.2,0,0.5,0,0.5H949c0,1.9,1.4,3,2.9,3c1.4,0,2.3-0.9,2.3-0.9l0.5,0.8
		c0,0-1.1,1-2.8,1c-2.2,0-3.9-1.6-3.9-3.9C947.9,799.4,949.6,797.9,951.6,797.9z M953.7,801.1c-0.1-1.6-1-2.3-2.1-2.3
		c-1.3,0-2.4,0.8-2.6,2.3H953.7z"/>
</g>
<rect x="18.2" y="857.4" class="st0" width="256.5" height="120.1"/>
<g>
	<path d="M115.3,897.7c2.4,0,3.8,1.2,3.8,1.2l-0.6,0.8c0,0-1.2-1-3.1-1c-2.5,0-4.3,2-4.3,4.5c0,2.6,1.8,4.5,4.2,4.5
		c2.1,0,3.3-1.5,3.3-1.5v-1.8h-1.8v-0.9h2.8v5h-1v-0.8c0-0.2,0-0.5,0-0.5l0,0c0,0-1.2,1.4-3.4,1.4c-2.9,0-5.2-2.3-5.2-5.5
		C110,900.1,112.3,897.7,115.3,897.7z"/>
	<path d="M125.2,900.7c2.2,0,4,1.7,4,3.9c0,2.3-1.8,4-4,4s-4-1.7-4-4C121.2,902.4,123,900.7,125.2,900.7z M125.2,907.7
		c1.6,0,2.9-1.3,2.9-3.1c0-1.7-1.3-3-2.9-3s-2.9,1.3-2.9,3C122.3,906.4,123.6,907.7,125.2,907.7z"/>
	<path d="M135.4,897.9h3.4c3.2,0,5.3,1.9,5.3,5.3c0,3.4-2.1,5.3-5.3,5.3h-3.4V897.9z M138.7,907.5c2.6,0,4.3-1.5,4.3-4.4
		c0-2.8-1.7-4.3-4.3-4.3h-2.3v8.7H138.7z"/>
	<path d="M149.7,900.7c2.2,0,4,1.7,4,3.9c0,2.3-1.8,4-4,4s-4-1.7-4-4C145.7,902.4,147.5,900.7,149.7,900.7z M149.7,907.7
		c1.6,0,2.9-1.3,2.9-3.1c0-1.7-1.3-3-2.9-3c-1.6,0-2.9,1.3-2.9,3C146.7,906.4,148,907.7,149.7,907.7z"/>
	<path d="M159,900.7c1.8,0,2.8,1.1,2.8,1.1l-0.5,0.8c0,0-0.8-0.9-2.2-0.9c-1.6,0-2.9,1.2-2.9,3s1.3,3,3,3c1.5,0,2.4-1.1,2.4-1.1
		l0.5,0.8c0,0-1,1.2-2.9,1.2c-2.2,0-4-1.6-4-3.9C155,902.4,156.8,900.7,159,900.7z"/>
	<path d="M163.8,897.9h1v5.9h1.2l2.3-2.9h1.2l-2.6,3.3l0,0l2.9,4.2h-1.2l-2.5-3.8h-1.2v3.8h-1L163.8,897.9L163.8,897.9z"/>
	<path d="M174.4,900.7c2.1,0,3.1,1.6,3.1,3.5c0,0.2,0,0.5,0,0.5h-5.8c0,1.9,1.4,3,2.9,3c1.4,0,2.3-0.9,2.3-0.9l0.5,0.8
		c0,0-1.1,1-2.8,1c-2.2,0-3.9-1.6-3.9-3.9C170.7,902.2,172.4,900.7,174.4,900.7z M176.5,903.9c-0.1-1.6-1-2.3-2.1-2.3
		c-1.3,0-2.4,0.8-2.6,2.3H176.5z"/>
	<path d="M179.5,900.9h1v1.3c0,0.3,0,0.6,0,0.6l0,0c0.4-1.1,1.2-2,2.4-2c0.2,0,0.4,0,0.4,0v1c0,0-0.2,0-0.4,0c-1.1,0-1.9,0.8-2.2,2
		c-0.1,0.5-0.2,1-0.2,1.5v3.2h-1V900.9z"/>
	<path d="M105.1,921.9h1.1l2.8,6.2c0.2,0.5,0.5,1.3,0.5,1.3l0,0c0,0,0.3-0.8,0.5-1.3l2.8-6.2h1.1l0.8,10.5h-1l-0.6-7.4
		c0-0.6,0-1.5,0-1.5l0,0c0,0-0.3,0.9-0.6,1.5l-2.5,5.4h-1l-2.5-5.4c-0.2-0.5-0.6-1.5-0.6-1.5l0,0c0,0,0,0.9,0,1.5l-0.6,7.4h-1
		L105.1,921.9z"/>
	<path d="M117.1,921.9h1.1v1.3h-1.1V921.9z M117.1,924.9h1v7.5h-1V924.9z"/>
	<path d="M124,924.7c1.8,0,2.8,1.1,2.8,1.1l-0.5,0.8c0,0-0.8-0.9-2.2-0.9c-1.6,0-2.9,1.2-2.9,3s1.3,3,3,3c1.5,0,2.4-1.1,2.4-1.1
		l0.5,0.8c0,0-1,1.2-2.9,1.2c-2.2,0-4-1.6-4-3.9C120,926.4,121.8,924.7,124,924.7z"/>
	<path d="M128.8,924.9h1v1.3c0,0.3,0,0.6,0,0.6l0,0c0.4-1.1,1.2-2,2.4-2c0.2,0,0.4,0,0.4,0v1c0,0-0.2,0-0.4,0c-1.1,0-1.9,0.8-2.2,2
		c-0.1,0.5-0.2,1-0.2,1.5v3.2h-1V924.9z"/>
	<path d="M137.5,924.7c2.2,0,4,1.7,4,3.9c0,2.3-1.8,4-4,4s-4-1.7-4-4C133.5,926.4,135.3,924.7,137.5,924.7z M137.5,931.7
		c1.6,0,2.9-1.3,2.9-3.1c0-1.7-1.3-3-2.9-3c-1.6,0-2.9,1.3-2.9,3C134.5,930.4,135.9,931.7,137.5,931.7z"/>
	<path d="M143.3,930.8c0,0,0.8,0.9,2.2,0.9c0.8,0,1.5-0.4,1.5-1.2c0-1.7-4.1-1.2-4.1-3.7c0-1.3,1.2-2.1,2.6-2.1
		c1.6,0,2.3,0.8,2.3,0.8l-0.5,0.8c0,0-0.6-0.7-1.9-0.7c-0.8,0-1.5,0.3-1.5,1.2c0,1.7,4.1,1.2,4.1,3.7c0,1.2-1.1,2.1-2.6,2.1
		c-1.8,0-2.8-1.1-2.8-1.1L143.3,930.8z"/>
	<path d="M153.2,924.7c2.1,0,3.1,1.6,3.1,3.5c0,0.2,0,0.5,0,0.5h-5.8c0,1.9,1.4,3,2.9,3c1.4,0,2.3-0.9,2.3-0.9l0.5,0.8
		c0,0-1.1,1-2.8,1c-2.2,0-3.9-1.6-3.9-3.9C149.5,926.2,151.2,924.7,153.2,924.7z M155.3,927.9c-0.1-1.6-1-2.3-2.1-2.3
		c-1.3,0-2.4,0.8-2.6,2.3H155.3z"/>
	<path d="M158.3,924.9h1v1.3c0,0.3,0,0.6,0,0.6l0,0c0.4-1.1,1.2-2,2.4-2c0.2,0,0.4,0,0.4,0v1c0,0-0.2,0-0.4,0c-1.1,0-1.9,0.8-2.2,2
		c-0.1,0.5-0.2,1-0.2,1.5v3.2h-1V924.9z"/>
	<path d="M162.6,924.9h1.1l2.1,5.5c0.1,0.4,0.3,0.9,0.3,0.9l0,0c0,0,0.1-0.5,0.3-0.9l2.1-5.5h1.1l-2.9,7.5h-1.1L162.6,924.9z"/>
	<path d="M170.9,921.9h1.1v1.3h-1.1V921.9z M170.9,924.9h1v7.5h-1V924.9z"/>
	<path d="M177.9,924.7c1.8,0,2.8,1.1,2.8,1.1l-0.5,0.8c0,0-0.8-0.9-2.2-0.9c-1.6,0-2.9,1.2-2.9,3s1.3,3,3,3c1.5,0,2.4-1.1,2.4-1.1
		l0.5,0.8c0,0-1,1.2-2.9,1.2c-2.2,0-4-1.6-4-3.9C173.9,926.4,175.6,924.7,177.9,924.7z"/>
	<path d="M185.8,924.7c2.1,0,3.1,1.6,3.1,3.5c0,0.2,0,0.5,0,0.5h-5.8c0,1.9,1.4,3,2.9,3c1.4,0,2.3-0.9,2.3-0.9l0.5,0.8
		c0,0-1.1,1-2.8,1c-2.2,0-3.9-1.6-3.9-3.9C182.1,926.2,183.8,924.7,185.8,924.7z M188,927.9c-0.1-1.6-1-2.3-2.1-2.3
		c-1.3,0-2.4,0.8-2.6,2.3H188z"/>
</g>
<rect x="274.6" y="857.4" class="st0" width="256.5" height="120.1"/>
<g>
	<path d="M371.8,897.7c2.4,0,3.8,1.2,3.8,1.2l-0.6,0.8c0,0-1.2-1-3.1-1c-2.5,0-4.3,2-4.3,4.5c0,2.6,1.8,4.5,4.2,4.5
		c2.1,0,3.3-1.5,3.3-1.5v-1.8h-1.8v-0.9h2.8v5h-1v-0.8c0-0.2,0-0.5,0-0.5l0,0c0,0-1.2,1.4-3.4,1.4c-2.9,0-5.2-2.3-5.2-5.5
		C366.4,900.1,368.7,897.7,371.8,897.7z"/>
	<path d="M381.7,900.7c2.2,0,4,1.7,4,3.9c0,2.3-1.8,4-4,4s-4-1.7-4-4C377.7,902.4,379.5,900.7,381.7,900.7z M381.7,907.7
		c1.6,0,2.9-1.3,2.9-3.1c0-1.7-1.3-3-2.9-3s-2.9,1.3-2.9,3C378.7,906.4,380,907.7,381.7,907.7z"/>
	<path d="M391.9,897.9h3.4c3.2,0,5.3,1.9,5.3,5.3c0,3.4-2.1,5.3-5.3,5.3h-3.4V897.9z M395.2,907.5c2.6,0,4.3-1.5,4.3-4.4
		c0-2.8-1.7-4.3-4.3-4.3h-2.3v8.7H395.2z"/>
	<path d="M406.1,900.7c2.2,0,4,1.7,4,3.9c0,2.3-1.8,4-4,4s-4-1.7-4-4C402.1,902.4,403.9,900.7,406.1,900.7z M406.1,907.7
		c1.6,0,2.9-1.3,2.9-3.1c0-1.7-1.3-3-2.9-3s-2.9,1.3-2.9,3C403.2,906.4,404.5,907.7,406.1,907.7z"/>
	<path d="M415.5,900.7c1.8,0,2.8,1.1,2.8,1.1l-0.5,0.8c0,0-0.8-0.9-2.2-0.9c-1.6,0-2.9,1.2-2.9,3s1.3,3,3,3c1.5,0,2.4-1.1,2.4-1.1
		l0.5,0.8c0,0-1,1.2-2.9,1.2c-2.2,0-4-1.6-4-3.9C411.5,902.4,413.2,900.7,415.5,900.7z"/>
	<path d="M420.3,897.9h1v5.9h1.2l2.3-2.9h1.2l-2.6,3.3l0,0l2.9,4.2H425l-2.5-3.8h-1.2v3.8h-1V897.9z"/>
	<path d="M430.9,900.7c2.1,0,3.1,1.6,3.1,3.5c0,0.2,0,0.5,0,0.5h-5.8c0,1.9,1.4,3,2.9,3c1.4,0,2.3-0.9,2.3-0.9l0.5,0.8
		c0,0-1.1,1-2.8,1c-2.2,0-3.9-1.6-3.9-3.9C427.1,902.2,428.8,900.7,430.9,900.7z M433,903.9c-0.1-1.6-1-2.3-2.1-2.3
		c-1.3,0-2.4,0.8-2.6,2.3H433z"/>
	<path d="M436,900.9h1v1.3c0,0.3,0,0.6,0,0.6l0,0c0.4-1.1,1.2-2,2.4-2c0.2,0,0.4,0,0.4,0v1c0,0-0.2,0-0.4,0c-1.1,0-1.9,0.8-2.2,2
		c-0.1,0.5-0.2,1-0.2,1.5v3.2h-1L436,900.9L436,900.9z"/>
	<path d="M361.6,921.9h1.1l2.8,6.2c0.2,0.5,0.5,1.3,0.5,1.3l0,0c0,0,0.3-0.8,0.5-1.3l2.8-6.2h1.1l0.8,10.5h-1l-0.6-7.4
		c0-0.6,0-1.5,0-1.5l0,0c0,0-0.3,0.9-0.6,1.5l-2.5,5.4h-1L363,925c-0.2-0.5-0.6-1.5-0.6-1.5l0,0c0,0,0,0.9,0,1.5l-0.6,7.4h-1
		L361.6,921.9z"/>
	<path d="M373.5,921.9h1.1v1.3h-1.1V921.9z M373.6,924.9h1v7.5h-1V924.9z"/>
	<path d="M380.5,924.7c1.8,0,2.8,1.1,2.8,1.1l-0.5,0.8c0,0-0.8-0.9-2.2-0.9c-1.6,0-2.9,1.2-2.9,3s1.3,3,3,3c1.5,0,2.4-1.1,2.4-1.1
		l0.5,0.8c0,0-1,1.2-2.9,1.2c-2.2,0-4-1.6-4-3.9C376.5,926.4,378.2,924.7,380.5,924.7z"/>
	<path d="M385.3,924.9h1v1.3c0,0.3,0,0.6,0,0.6l0,0c0.4-1.1,1.2-2,2.4-2c0.2,0,0.4,0,0.4,0v1c0,0-0.2,0-0.4,0c-1.1,0-1.9,0.8-2.2,2
		c-0.1,0.5-0.2,1-0.2,1.5v3.2h-1L385.3,924.9L385.3,924.9z"/>
	<path d="M394,924.7c2.2,0,4,1.7,4,3.9c0,2.3-1.8,4-4,4s-4-1.7-4-4C390,926.4,391.7,924.7,394,924.7z M394,931.7
		c1.6,0,2.9-1.3,2.9-3.1c0-1.7-1.3-3-2.9-3s-2.9,1.3-2.9,3C391,930.4,392.3,931.7,394,931.7z"/>
	<path d="M399.8,930.8c0,0,0.8,0.9,2.2,0.9c0.8,0,1.5-0.4,1.5-1.2c0-1.7-4.1-1.2-4.1-3.7c0-1.3,1.2-2.1,2.6-2.1
		c1.6,0,2.3,0.8,2.3,0.8l-0.5,0.8c0,0-0.6-0.7-1.9-0.7c-0.8,0-1.5,0.3-1.5,1.2c0,1.7,4.1,1.2,4.1,3.7c0,1.2-1.1,2.1-2.6,2.1
		c-1.8,0-2.8-1.1-2.8-1.1L399.8,930.8z"/>
	<path d="M409.7,924.7c2.1,0,3.1,1.6,3.1,3.5c0,0.2,0,0.5,0,0.5H407c0,1.9,1.4,3,2.9,3c1.4,0,2.3-0.9,2.3-0.9l0.5,0.8
		c0,0-1.1,1-2.8,1c-2.2,0-3.9-1.6-3.9-3.9C406,926.2,407.6,924.7,409.7,924.7z M411.8,927.9c-0.1-1.6-1-2.3-2.1-2.3
		c-1.3,0-2.4,0.8-2.6,2.3H411.8z"/>
	<path d="M414.8,924.9h1v1.3c0,0.3,0,0.6,0,0.6l0,0c0.4-1.1,1.2-2,2.4-2c0.2,0,0.4,0,0.4,0v1c0,0-0.2,0-0.4,0c-1.1,0-1.9,0.8-2.2,2
		c-0.1,0.5-0.2,1-0.2,1.5v3.2h-1L414.8,924.9L414.8,924.9z"/>
	<path d="M419.1,924.9h1.1l2.1,5.5c0.1,0.4,0.3,0.9,0.3,0.9l0,0c0,0,0.1-0.5,0.3-0.9l2.1-5.5h1.1l-2.9,7.5H422L419.1,924.9z"/>
	<path d="M427.4,921.9h1.1v1.3h-1.1V921.9z M427.4,924.9h1v7.5h-1V924.9z"/>
	<path d="M434.3,924.7c1.8,0,2.8,1.1,2.8,1.1l-0.5,0.8c0,0-0.8-0.9-2.2-0.9c-1.6,0-2.9,1.2-2.9,3s1.3,3,3,3c1.5,0,2.4-1.1,2.4-1.1
		l0.5,0.8c0,0-1,1.2-2.9,1.2c-2.2,0-4-1.6-4-3.9C430.4,926.4,432.1,924.7,434.3,924.7z"/>
	<path d="M442.3,924.7c2.1,0,3.1,1.6,3.1,3.5c0,0.2,0,0.5,0,0.5h-5.8c0,1.9,1.4,3,2.9,3c1.4,0,2.3-0.9,2.3-0.9l0.5,0.8
		c0,0-1.1,1-2.8,1c-2.2,0-3.9-1.6-3.9-3.9C438.6,926.2,440.3,924.7,442.3,924.7z M444.4,927.9c-0.1-1.6-1-2.3-2.1-2.3
		c-1.3,0-2.4,0.8-2.6,2.3H444.4z"/>
</g>
<rect x="531.1" y="857.4" class="st0" width="256.5" height="120.1"/>
<g>
	<path d="M628.2,897.7c2.4,0,3.8,1.2,3.8,1.2l-0.6,0.8c0,0-1.2-1-3.2-1c-2.5,0-4.3,2-4.3,4.5c0,2.6,1.8,4.5,4.2,4.5
		c2.1,0,3.3-1.5,3.3-1.5v-1.8h-1.8v-0.9h2.8v5h-1v-0.8c0-0.2,0-0.5,0-0.5l0,0c0,0-1.2,1.4-3.4,1.4c-2.9,0-5.2-2.3-5.2-5.5
		C622.9,900.1,625.2,897.7,628.2,897.7z"/>
	<path d="M638.1,900.7c2.2,0,4,1.7,4,3.9c0,2.3-1.8,4-4,4s-4-1.7-4-4C634.1,902.4,635.9,900.7,638.1,900.7z M638.1,907.7
		c1.6,0,2.9-1.3,2.9-3.1c0-1.7-1.3-3-2.9-3s-2.9,1.3-2.9,3C635.2,906.4,636.5,907.7,638.1,907.7z"/>
	<path d="M648.4,897.9h3.4c3.2,0,5.3,1.9,5.3,5.3c0,3.4-2.1,5.3-5.3,5.3h-3.4V897.9z M651.7,907.5c2.6,0,4.3-1.5,4.3-4.4
		c0-2.8-1.7-4.3-4.3-4.3h-2.3v8.7H651.7z"/>
	<path d="M662.6,900.7c2.2,0,4,1.7,4,3.9c0,2.3-1.8,4-4,4s-4-1.7-4-4C658.6,902.4,660.4,900.7,662.6,900.7z M662.6,907.7
		c1.6,0,2.9-1.3,2.9-3.1c0-1.7-1.3-3-2.9-3s-2.9,1.3-2.9,3C659.6,906.4,661,907.7,662.6,907.7z"/>
	<path d="M671.9,900.7c1.8,0,2.8,1.1,2.8,1.1l-0.5,0.8c0,0-0.8-0.9-2.2-0.9c-1.6,0-2.9,1.2-2.9,3s1.3,3,3,3c1.5,0,2.4-1.1,2.4-1.1
		l0.5,0.8c0,0-1,1.2-2.9,1.2c-2.2,0-4-1.6-4-3.9C668,902.4,669.7,900.7,671.9,900.7z"/>
	<path d="M676.7,897.9h1v5.9h1.2l2.3-2.9h1.2l-2.6,3.3l0,0l2.9,4.2h-1.2l-2.5-3.8h-1.2v3.8h-1v-10.5H676.7z"/>
	<path d="M687.3,900.7c2.1,0,3.1,1.6,3.1,3.5c0,0.2,0,0.5,0,0.5h-5.8c0,1.9,1.4,3,2.9,3c1.4,0,2.3-0.9,2.3-0.9l0.5,0.8
		c0,0-1.1,1-2.8,1c-2.2,0-3.9-1.6-3.9-3.9C683.6,902.2,685.3,900.7,687.3,900.7z M689.4,903.9c-0.1-1.6-1-2.3-2.1-2.3
		c-1.3,0-2.4,0.8-2.6,2.3H689.4z"/>
	<path d="M692.4,900.9h1v1.3c0,0.3,0,0.6,0,0.6l0,0c0.4-1.1,1.2-2,2.4-2c0.2,0,0.4,0,0.4,0v1c0,0-0.2,0-0.4,0c-1.1,0-1.9,0.8-2.2,2
		c-0.2,0.5-0.2,1-0.2,1.5v3.2h-1V900.9z"/>
	<path d="M618,921.9h1.1l2.8,6.2c0.2,0.5,0.5,1.3,0.5,1.3l0,0c0,0,0.3-0.8,0.5-1.3l2.8-6.2h1.1l0.8,10.5h-1L626,925
		c0-0.6,0-1.5,0-1.5l0,0c0,0-0.3,0.9-0.6,1.5l-2.5,5.4h-1l-2.5-5.4c-0.2-0.5-0.6-1.5-0.6-1.5l0,0c0,0,0,0.9,0,1.5l-0.6,7.4h-1
		L618,921.9z"/>
	<path d="M630,921.9h1.1v1.3H630V921.9z M630,924.9h1v7.5h-1V924.9z"/>
	<path d="M636.9,924.7c1.8,0,2.8,1.1,2.8,1.1l-0.5,0.8c0,0-0.8-0.9-2.2-0.9c-1.6,0-2.9,1.2-2.9,3s1.3,3,3,3c1.5,0,2.4-1.1,2.4-1.1
		l0.5,0.8c0,0-1,1.2-2.9,1.2c-2.2,0-4-1.6-4-3.9C633,926.4,634.7,924.7,636.9,924.7z"/>
	<path d="M641.7,924.9h1v1.3c0,0.3,0,0.6,0,0.6l0,0c0.4-1.1,1.2-2,2.4-2c0.2,0,0.4,0,0.4,0v1c0,0-0.2,0-0.4,0c-1.1,0-1.9,0.8-2.2,2
		c-0.2,0.5-0.2,1-0.2,1.5v3.2h-1V924.9z"/>
	<path d="M650.4,924.7c2.2,0,4,1.7,4,3.9c0,2.3-1.8,4-4,4s-4-1.7-4-4C646.4,926.4,648.2,924.7,650.4,924.7z M650.4,931.7
		c1.6,0,2.9-1.3,2.9-3.1c0-1.7-1.3-3-2.9-3s-2.9,1.3-2.9,3C647.5,930.4,648.8,931.7,650.4,931.7z"/>
	<path d="M656.2,930.8c0,0,0.8,0.9,2.2,0.9c0.8,0,1.5-0.4,1.5-1.2c0-1.7-4.1-1.2-4.1-3.7c0-1.3,1.2-2.1,2.6-2.1
		c1.6,0,2.3,0.8,2.3,0.8l-0.5,0.8c0,0-0.6-0.7-1.9-0.7c-0.8,0-1.5,0.3-1.5,1.2c0,1.7,4.1,1.2,4.1,3.7c0,1.2-1.1,2.1-2.6,2.1
		c-1.8,0-2.8-1.1-2.8-1.1L656.2,930.8z"/>
	<path d="M666.1,924.7c2.1,0,3.1,1.6,3.1,3.5c0,0.2,0,0.5,0,0.5h-5.8c0,1.9,1.4,3,2.9,3c1.4,0,2.3-0.9,2.3-0.9l0.5,0.8
		c0,0-1.1,1-2.8,1c-2.2,0-3.9-1.6-3.9-3.9C662.4,926.2,664.1,924.7,666.1,924.7z M668.3,927.9c-0.1-1.6-1-2.3-2.1-2.3
		c-1.3,0-2.4,0.8-2.6,2.3H668.3z"/>
	<path d="M671.2,924.9h1v1.3c0,0.3,0,0.6,0,0.6l0,0c0.4-1.1,1.2-2,2.4-2c0.2,0,0.4,0,0.4,0v1c0,0-0.2,0-0.4,0c-1.1,0-1.9,0.8-2.2,2
		c-0.2,0.5-0.2,1-0.2,1.5v3.2h-1V924.9z"/>
	<path d="M675.6,924.9h1.1l2.1,5.5c0.1,0.4,0.3,0.9,0.3,0.9l0,0c0,0,0.1-0.5,0.3-0.9l2.1-5.5h1.1l-2.9,7.5h-1.1L675.6,924.9z"/>
	<path d="M683.8,921.9h1.1v1.3h-1.1V921.9z M683.9,924.9h1v7.5h-1V924.9z"/>
	<path d="M690.8,924.7c1.8,0,2.8,1.1,2.8,1.1l-0.5,0.8c0,0-0.8-0.9-2.2-0.9c-1.6,0-2.9,1.2-2.9,3s1.3,3,3,3c1.5,0,2.4-1.1,2.4-1.1
		l0.5,0.8c0,0-1,1.2-2.9,1.2c-2.2,0-4-1.6-4-3.9C686.8,926.4,688.6,924.7,690.8,924.7z"/>
	<path d="M698.8,924.7c2.1,0,3.1,1.6,3.1,3.5c0,0.2,0,0.5,0,0.5h-5.8c0,1.9,1.4,3,2.9,3c1.4,0,2.3-0.9,2.3-0.9l0.5,0.8
		c0,0-1.1,1-2.8,1c-2.2,0-3.9-1.6-3.9-3.9C695.1,926.2,696.7,924.7,698.8,924.7z M700.9,927.9c-0.1-1.6-1-2.3-2.1-2.3
		c-1.3,0-2.4,0.8-2.6,2.3H700.9z"/>
</g>
<rect x="787.5" y="857.4" class="st0" width="256.5" height="120.1"/>
<g>
	<path d="M884.7,897.7c2.4,0,3.8,1.2,3.8,1.2l-0.6,0.8c0,0-1.2-1-3.2-1c-2.5,0-4.3,2-4.3,4.5c0,2.6,1.8,4.5,4.2,4.5
		c2.1,0,3.3-1.5,3.3-1.5v-1.8h-1.8v-0.9h2.8v5h-1v-0.8c0-0.2,0-0.5,0-0.5l0,0c0,0-1.2,1.4-3.4,1.4c-2.9,0-5.2-2.3-5.2-5.5
		C879.4,900.1,881.7,897.7,884.7,897.7z"/>
	<path d="M894.6,900.7c2.2,0,4,1.7,4,3.9c0,2.3-1.8,4-4,4s-4-1.7-4-4C890.6,902.4,892.4,900.7,894.6,900.7z M894.6,907.7
		c1.6,0,2.9-1.3,2.9-3.1c0-1.7-1.3-3-2.9-3s-2.9,1.3-2.9,3C891.6,906.4,893,907.7,894.6,907.7z"/>
	<path d="M904.8,897.9h3.4c3.2,0,5.3,1.9,5.3,5.3c0,3.4-2.1,5.3-5.3,5.3h-3.4V897.9z M908.1,907.5c2.6,0,4.3-1.5,4.3-4.4
		c0-2.8-1.7-4.3-4.3-4.3h-2.3v8.7H908.1z"/>
	<path d="M919,900.7c2.2,0,4,1.7,4,3.9c0,2.3-1.8,4-4,4s-4-1.7-4-4C915.1,902.4,916.8,900.7,919,900.7z M919,907.7
		c1.6,0,2.9-1.3,2.9-3.1c0-1.7-1.3-3-2.9-3s-2.9,1.3-2.9,3C916.1,906.4,917.4,907.7,919,907.7z"/>
	<path d="M928.4,900.7c1.8,0,2.8,1.1,2.8,1.1l-0.5,0.8c0,0-0.8-0.9-2.2-0.9c-1.6,0-2.9,1.2-2.9,3s1.3,3,3,3c1.5,0,2.4-1.1,2.4-1.1
		l0.5,0.8c0,0-1,1.2-2.9,1.2c-2.2,0-4-1.6-4-3.9C924.4,902.4,926.2,900.7,928.4,900.7z"/>
	<path d="M933.2,897.9h1v5.9h1.2l2.3-2.9h1.2l-2.6,3.3l0,0l2.9,4.2H938l-2.5-3.8h-1.2v3.8h-1v-10.5H933.2z"/>
	<path d="M943.8,900.7c2.1,0,3.1,1.6,3.1,3.5c0,0.2,0,0.5,0,0.5h-5.8c0,1.9,1.4,3,2.9,3c1.4,0,2.3-0.9,2.3-0.9l0.5,0.8
		c0,0-1.1,1-2.8,1c-2.2,0-3.9-1.6-3.9-3.9C940.1,902.2,941.7,900.7,943.8,900.7z M945.9,903.9c-0.1-1.6-1-2.3-2.1-2.3
		c-1.3,0-2.4,0.8-2.6,2.3H945.9z"/>
	<path d="M948.9,900.9h1v1.3c0,0.3,0,0.6,0,0.6l0,0c0.4-1.1,1.2-2,2.4-2c0.2,0,0.4,0,0.4,0v1c0,0-0.2,0-0.4,0c-1.1,0-1.9,0.8-2.2,2
		c-0.2,0.5-0.2,1-0.2,1.5v3.2h-1V900.9z"/>
	<path d="M874.5,921.9h1.1l2.8,6.2c0.2,0.5,0.5,1.3,0.5,1.3l0,0c0,0,0.3-0.8,0.5-1.3l2.8-6.2h1.1l0.8,10.5h-1l-0.6-7.4
		c0-0.6,0-1.5,0-1.5l0,0c0,0-0.3,0.9-0.6,1.5l-2.5,5.4h-1l-2.5-5.4c-0.2-0.5-0.6-1.5-0.6-1.5l0,0c0,0,0,0.9,0,1.5l-0.6,7.4h-1
		L874.5,921.9z"/>
	<path d="M886.4,921.9h1.1v1.3h-1.1V921.9z M886.5,924.9h1v7.5h-1V924.9z"/>
	<path d="M893.4,924.7c1.8,0,2.8,1.1,2.8,1.1l-0.5,0.8c0,0-0.8-0.9-2.2-0.9c-1.6,0-2.9,1.2-2.9,3s1.3,3,3,3c1.5,0,2.4-1.1,2.4-1.1
		l0.5,0.8c0,0-1,1.2-2.9,1.2c-2.2,0-4-1.6-4-3.9C889.4,926.4,891.2,924.7,893.4,924.7z"/>
	<path d="M898.2,924.9h1v1.3c0,0.3,0,0.6,0,0.6l0,0c0.4-1.1,1.2-2,2.4-2c0.2,0,0.4,0,0.4,0v1c0,0-0.2,0-0.4,0c-1.1,0-1.9,0.8-2.2,2
		c-0.2,0.5-0.2,1-0.2,1.5v3.2h-1V924.9z"/>
	<path d="M906.9,924.7c2.2,0,4,1.7,4,3.9c0,2.3-1.8,4-4,4s-4-1.7-4-4C902.9,926.4,904.7,924.7,906.9,924.7z M906.9,931.7
		c1.6,0,2.9-1.3,2.9-3.1c0-1.7-1.3-3-2.9-3s-2.9,1.3-2.9,3C903.9,930.4,905.3,931.7,906.9,931.7z"/>
	<path d="M912.7,930.8c0,0,0.8,0.9,2.2,0.9c0.8,0,1.5-0.4,1.5-1.2c0-1.7-4.1-1.2-4.1-3.7c0-1.3,1.2-2.1,2.6-2.1
		c1.6,0,2.3,0.8,2.3,0.8l-0.5,0.8c0,0-0.6-0.7-1.9-0.7c-0.8,0-1.5,0.3-1.5,1.2c0,1.7,4.1,1.2,4.1,3.7c0,1.2-1.1,2.1-2.6,2.1
		c-1.8,0-2.8-1.1-2.8-1.1L912.7,930.8z"/>
	<path d="M922.6,924.7c2.1,0,3.1,1.6,3.1,3.5c0,0.2,0,0.5,0,0.5h-5.8c0,1.9,1.4,3,2.9,3c1.4,0,2.3-0.9,2.3-0.9l0.5,0.8
		c0,0-1.1,1-2.8,1c-2.2,0-3.9-1.6-3.9-3.9C918.9,926.2,920.6,924.7,922.6,924.7z M924.7,927.9c-0.1-1.6-1-2.3-2.1-2.3
		c-1.3,0-2.4,0.8-2.6,2.3H924.7z"/>
	<path d="M927.7,924.9h1v1.3c0,0.3,0,0.6,0,0.6l0,0c0.4-1.1,1.2-2,2.4-2c0.2,0,0.4,0,0.4,0v1c0,0-0.2,0-0.4,0c-1.1,0-1.9,0.8-2.2,2
		c-0.2,0.5-0.2,1-0.2,1.5v3.2h-1V924.9z"/>
	<path d="M932,924.9h1.1l2.1,5.5c0.1,0.4,0.3,0.9,0.3,0.9l0,0c0,0,0.1-0.5,0.3-0.9l2.1-5.5h1.1l-2.9,7.5H935L932,924.9z"/>
	<path d="M940.3,921.9h1.1v1.3h-1.1V921.9z M940.3,924.9h1v7.5h-1V924.9z"/>
	<path d="M947.2,924.7c1.8,0,2.8,1.1,2.8,1.1l-0.5,0.8c0,0-0.8-0.9-2.2-0.9c-1.6,0-2.9,1.2-2.9,3s1.3,3,3,3c1.5,0,2.4-1.1,2.4-1.1
		l0.5,0.8c0,0-1,1.2-2.9,1.2c-2.2,0-4-1.6-4-3.9C943.3,926.4,945,924.7,947.2,924.7z"/>
	<path d="M955.2,924.7c2.1,0,3.1,1.6,3.1,3.5c0,0.2,0,0.5,0,0.5h-5.8c0,1.9,1.4,3,2.9,3c1.4,0,2.3-0.9,2.3-0.9l0.5,0.8
		c0,0-1.1,1-2.8,1c-2.2,0-3.9-1.6-3.9-3.9C951.5,926.2,953.2,924.7,955.2,924.7z M957.3,927.9c-0.1-1.6-1-2.3-2.1-2.3
		c-1.3,0-2.4,0.8-2.6,2.3H957.3z"/>
</g>
<rect x="531.1" y="18" class="st0" width="512.9" height="120.1"/>
<g>
	<path d="M731.3,75.9h3.6c1.7,0,2.8,1,2.8,2.7c0,1.1-0.5,1.9-1.3,2.3l0,0c1.1,0.3,1.8,1.3,1.8,2.6c0,1.9-1.4,3-3.2,3h-3.7
		L731.3,75.9L731.3,75.9z M734.9,80.4c1.1,0,1.8-0.8,1.8-1.8c0-1.1-0.7-1.8-1.8-1.8h-2.6v3.6C732.3,80.4,734.9,80.4,734.9,80.4z
		 M735,85.5c1.3,0,2.1-0.8,2.1-2.1s-0.9-2.1-2.1-2.1h-2.7v4.1L735,85.5L735,85.5z"/>
	<path d="M740.3,78.9h1v1.3c0,0.3,0,0.6,0,0.6l0,0c0.4-1.1,1.2-2,2.4-2c0.2,0,0.4,0,0.4,0v1c0,0-0.2,0-0.4,0c-1.1,0-1.9,0.8-2.2,1.9
		c-0.2,0.5-0.2,1-0.2,1.5v3.2h-1V78.9z"/>
	<path d="M749,78.7c2.2,0,4,1.7,4,3.9c0,2.3-1.8,4-4,4s-4-1.7-4-4C745,80.4,746.8,78.7,749,78.7z M749,85.7c1.6,0,2.9-1.3,2.9-3.1
		c0-1.7-1.3-3-2.9-3s-2.9,1.3-2.9,3C746.1,84.4,747.4,85.7,749,85.7z"/>
	<path d="M753.9,78.9h1.1l1.8,5.6c0.1,0.4,0.2,0.8,0.2,0.8l0,0c0,0,0.1-0.5,0.2-0.8l1.9-5.6h1l1.9,5.6c0.1,0.4,0.2,0.8,0.2,0.8l0,0
		c0,0,0.1-0.4,0.2-0.8l1.8-5.6h1.1l-2.5,7.5h-1.1l-1.8-5.4c-0.1-0.4-0.2-0.8-0.2-0.8l0,0c0,0-0.1,0.4-0.2,0.8l-1.8,5.4h-1.1
		L753.9,78.9z"/>
	<path d="M766.9,84.8c0,0,0.8,0.9,2.2,0.9c0.8,0,1.5-0.4,1.5-1.2c0-1.6-4.1-1.2-4.1-3.7c0-1.4,1.2-2.1,2.6-2.1
		c1.6,0,2.3,0.8,2.3,0.8l-0.5,0.8c0,0-0.6-0.7-1.9-0.7c-0.8,0-1.5,0.3-1.5,1.2c0,1.7,4.1,1.2,4.1,3.7c0,1.2-1.1,2.1-2.6,2.1
		c-1.8,0-2.8-1.1-2.8-1.1L766.9,84.8z"/>
	<path d="M776.8,78.7c2.1,0,3.1,1.6,3.1,3.5c0,0.2,0,0.5,0,0.5h-5.8c0,1.9,1.4,3,2.9,3c1.4,0,2.3-0.9,2.3-0.9l0.5,0.8
		c0,0-1.1,1.1-2.8,1.1c-2.2,0-3.9-1.6-3.9-3.9C773.1,80.2,774.7,78.7,776.8,78.7z M778.9,81.9c-0.1-1.6-1-2.3-2.1-2.3
		c-1.3,0-2.4,0.8-2.6,2.3H778.9z"/>
	<path d="M781.9,78.9h1v1.3c0,0.3,0,0.6,0,0.6l0,0c0.4-1.1,1.2-2,2.4-2c0.2,0,0.4,0,0.4,0v1c0,0-0.2,0-0.4,0c-1.1,0-1.9,0.8-2.2,1.9
		c-0.2,0.5-0.2,1-0.2,1.5v3.2h-1V78.9z"/>
	<path d="M791.6,75.9h3.1c1.1,0,1.6,0.1,2,0.3c1,0.4,1.6,1.4,1.6,2.7c0,1.4-0.8,2.5-2,2.9l0,0c0,0,0.1,0.1,0.3,0.4l2.3,4.2h-1.2
		l-2.4-4.4h-2.7v4.4h-1L791.6,75.9L791.6,75.9z M795.1,81c1.3,0,2.1-0.8,2.1-2.1c0-0.9-0.3-1.5-1-1.8c-0.3-0.2-0.7-0.3-1.5-0.3h-2.1
		V81H795.1z"/>
	<path d="M803.9,78.7c2.1,0,3.1,1.6,3.1,3.5c0,0.2,0,0.5,0,0.5h-5.8c0,1.9,1.4,3,2.9,3c1.4,0,2.3-0.9,2.3-0.9l0.5,0.8
		c0,0-1.1,1.1-2.8,1.1c-2.2,0-3.9-1.6-3.9-3.9C800.1,80.2,801.8,78.7,803.9,78.7z M806,81.9c-0.1-1.6-1-2.3-2.1-2.3
		c-1.3,0-2.4,0.8-2.6,2.3H806z"/>
	<path d="M811.9,78.7c1.8,0,2.5,1.5,2.5,1.5l0,0c0,0,0-0.2,0-0.6v-0.7h1v10.5h-1v-3.6c0-0.4,0-0.7,0-0.7l0,0c0,0-0.6,1.5-2.6,1.5
		s-3.3-1.6-3.3-4C808.5,80.3,809.9,78.7,811.9,78.7z M811.9,85.7c1.3,0,2.4-0.9,2.4-3c0-1.5-0.8-3-2.4-3c-1.3,0-2.4,1.1-2.4,3
		C809.5,84.5,810.5,85.7,811.9,85.7z"/>
	<path d="M817.7,78.9h1v4.5c0,1.2,0.2,2.2,1.6,2.2c1.7,0,2.8-1.5,2.8-3.1v-3.6h1v7.5h-1v-1.1c0-0.3,0-0.6,0-0.6l0,0
		c-0.3,0.7-1.3,1.9-3,1.9c-1.8,0-2.5-1-2.5-2.9v-4.8H817.7z"/>
	<path d="M829.8,78.7c2.1,0,3.1,1.6,3.1,3.5c0,0.2,0,0.5,0,0.5h-5.8c0,1.9,1.4,3,2.9,3c1.4,0,2.3-0.9,2.3-0.9l0.5,0.8
		c0,0-1.1,1.1-2.8,1.1c-2.2,0-3.9-1.6-3.9-3.9C826.1,80.2,827.8,78.7,829.8,78.7z M831.9,81.9c-0.1-1.6-1-2.3-2.1-2.3
		c-1.3,0-2.4,0.8-2.6,2.3H831.9z"/>
	<path d="M834.9,84.8c0,0,0.8,0.9,2.2,0.9c0.8,0,1.5-0.4,1.5-1.2c0-1.6-4.1-1.2-4.1-3.7c0-1.4,1.2-2.1,2.6-2.1
		c1.6,0,2.3,0.8,2.3,0.8l-0.5,0.8c0,0-0.6-0.7-1.9-0.7c-0.8,0-1.5,0.3-1.5,1.2c0,1.7,4.1,1.2,4.1,3.7c0,1.2-1.1,2.1-2.6,2.1
		c-1.8,0-2.8-1.1-2.8-1.1L834.9,84.8z"/>
	<path d="M841.8,79.8h-1V79h1v-2.2h1V79h1.9v0.9h-1.9v3.7c0,1.8,1.1,2,1.7,2c0.2,0,0.3,0,0.3,0v0.9c0,0-0.2,0-0.4,0
		c-0.9,0-2.6-0.3-2.6-2.8V79.8z"/>
</g>
<rect x="18.2" y="138.1" class="st0" width="512.9" height="240.3"/>
<rect x="531.1" y="138.1" class="st0" width="512.9" height="120.1"/>
<g>
	<path d="M770,196h1v4.8h6.1V196h1v10.5h-1v-4.8H771v4.8h-1V196z"/>
	<path d="M783.6,197h-3.8v-1h8.6v0.9h-3.8v9.6h-1V197z"/>
	<path d="M792.7,197h-3.8v-1h8.6v0.9h-3.8v9.6h-1V197z"/>
	<path d="M799.2,196h3.6c1.9,0,3.3,1.2,3.3,3.2s-1.4,3.2-3.3,3.2h-2.6v4.1h-1V196z M802.7,201.5c1.4,0,2.3-0.9,2.3-2.3
		c0-1.4-0.9-2.2-2.3-2.2h-2.5v4.5H802.7z"/>
</g>
<rect x="531.1" y="258.3" class="st0" width="512.9" height="120.1"/>
<g>
	<path d="M688.1,324.8c0,0,1.1,1.2,2.8,1.2c1.2,0,2.1-0.7,2.1-1.8c0-2.7-5.3-2-5.3-5.2c0-1.5,1.3-2.8,3.3-2.8c1.8,0,2.8,1,2.8,1
		l-0.5,0.9c0,0-0.9-0.9-2.3-0.9c-1.4,0-2.2,0.9-2.2,1.8c0,2.5,5.3,1.8,5.3,5.2c0,1.6-1.2,2.9-3.2,2.9c-2.2,0-3.3-1.4-3.3-1.4
		L688.1,324.8z"/>
	<path d="M696.3,320.1h-1v-0.9h1V317h1v2.2h1.9v0.9h-1.9v3.7c0,1.8,1.1,2,1.7,2c0.2,0,0.3,0,0.3,0v0.9c0,0-0.2,0-0.4,0
		c-0.9,0-2.6-0.3-2.6-2.8V320.1z"/>
	<path d="M705,322h0.4v-0.2c0-1.5-0.8-1.9-1.9-1.9c-1.2,0-2.1,0.7-2.1,0.7l-0.5-0.8c0,0,1-0.9,2.7-0.9c1.8,0,2.8,1,2.8,2.9v4.8h-1
		v-0.8c0-0.4,0-0.6,0-0.6l0,0c0,0-0.6,1.6-2.5,1.6c-1.3,0-2.6-0.7-2.6-2.2C700.4,322.1,703.7,322,705,322z M703.1,326
		c1.4,0,2.3-1.5,2.3-2.8v-0.3H705c-1.2,0-3.6,0-3.6,1.7C701.4,325.3,702,326,703.1,326z"/>
	<path d="M709,320.1h-1v-0.9h1V317h1v2.2h1.9v0.9H710v3.7c0,1.8,1.1,2,1.7,2c0.2,0,0.3,0,0.3,0v0.9c0,0-0.2,0-0.4,0
		c-0.9,0-2.6-0.3-2.6-2.8V320.1z"/>
	<path d="M713.8,316.2h1.1v1.3h-1.1V316.2z M713.8,319.2h1v7.5h-1V319.2z"/>
	<path d="M720.7,319c1.8,0,2.8,1.1,2.8,1.1l-0.5,0.8c0,0-0.8-0.9-2.2-0.9c-1.6,0-2.9,1.2-2.9,3s1.3,3,3,3c1.5,0,2.4-1.1,2.4-1.1
		l0.5,0.8c0,0-1,1.2-2.9,1.2c-2.2,0-4-1.6-4-3.9C716.7,320.6,718.5,319,720.7,319z"/>
	<path d="M729.5,322h0.4v-0.2c0-1.5-0.8-1.9-1.9-1.9c-1.2,0-2.1,0.7-2.1,0.7l-0.5-0.8c0,0,1-0.9,2.7-0.9c1.8,0,2.8,1,2.8,2.9v4.8h-1
		v-0.8c0-0.4,0-0.6,0-0.6l0,0c0,0-0.6,1.6-2.5,1.6c-1.3,0-2.6-0.7-2.6-2.2C724.9,322.1,728.2,322,729.5,322z M727.6,326
		c1.4,0,2.3-1.5,2.3-2.8v-0.3h-0.4c-1.2,0-3.6,0-3.6,1.7C725.9,325.3,726.5,326,727.6,326z"/>
	<path d="M733.2,316.2h1v8.5c0,1,0.5,1.1,0.8,1.1c0.1,0,0.3,0,0.3,0v0.9c0,0-0.2,0-0.4,0c-0.6,0-1.7-0.2-1.7-1.8L733.2,316.2
		L733.2,316.2z"/>
	<path d="M736.9,316.2h1v8.5c0,1,0.5,1.1,0.8,1.1c0.1,0,0.3,0,0.3,0v0.9c0,0-0.2,0-0.4,0c-0.6,0-1.7-0.2-1.7-1.8L736.9,316.2
		L736.9,316.2z"/>
	<path d="M740,328.6c0,0,0.4,0.3,0.9,0.3c0.7,0,1.1-0.5,1.4-1.2l0.5-1.1l-3.2-7.5h1.1l2.2,5.5c0.2,0.4,0.3,0.8,0.3,0.8l0,0
		c0,0,0.1-0.4,0.3-0.8l2.2-5.5h1.1l-3.7,9.1c-0.4,1-1.2,1.6-2.2,1.6c-0.8,0-1.3-0.5-1.3-0.5L740,328.6z"/>
	<path d="M752.4,324.8c0,0,1.1,1.2,2.8,1.2c1.2,0,2.1-0.7,2.1-1.8c0-2.7-5.3-2-5.3-5.2c0-1.5,1.3-2.8,3.3-2.8c1.8,0,2.8,1,2.8,1
		l-0.5,0.9c0,0-0.9-0.9-2.3-0.9c-1.4,0-2.2,0.9-2.2,1.8c0,2.5,5.3,1.8,5.3,5.2c0,1.6-1.2,2.9-3.2,2.9c-2.2,0-3.3-1.4-3.3-1.4
		L752.4,324.8z"/>
	<path d="M763.5,319c2.1,0,3.1,1.6,3.1,3.5c0,0.2,0,0.5,0,0.5h-5.8c0,1.9,1.4,3,2.9,3c1.4,0,2.3-0.9,2.3-0.9l0.5,0.8
		c0,0-1.1,1.1-2.8,1.1c-2.2,0-3.9-1.6-3.9-3.9C759.8,320.5,761.5,319,763.5,319z M765.6,322.2c-0.1-1.6-1-2.3-2.1-2.3
		c-1.3,0-2.4,0.8-2.6,2.3H765.6z"/>
	<path d="M768.6,319.2h1v1.3c0,0.3,0,0.6,0,0.6l0,0c0.4-1.1,1.2-2,2.4-2c0.2,0,0.4,0,0.4,0v1c0,0-0.2,0-0.4,0
		c-1.1,0-1.9,0.8-2.2,1.9c-0.2,0.5-0.2,1-0.2,1.5v3.2h-1V319.2z"/>
	<path d="M772.9,319.2h1.1l2.1,5.5c0.1,0.4,0.3,0.9,0.3,0.9l0,0c0,0,0.1-0.5,0.3-0.9l2.1-5.5h1.1l-2.9,7.5h-1.1L772.9,319.2z"/>
	<path d="M784.4,319c2.1,0,3.1,1.6,3.1,3.5c0,0.2,0,0.5,0,0.5h-5.8c0,1.9,1.4,3,2.9,3c1.4,0,2.3-0.9,2.3-0.9l0.5,0.8
		c0,0-1.1,1.1-2.8,1.1c-2.2,0-3.9-1.6-3.9-3.9C780.7,320.5,782.4,319,784.4,319z M786.5,322.2c-0.1-1.6-1-2.3-2.1-2.3
		c-1.3,0-2.4,0.8-2.6,2.3H786.5z"/>
	<path d="M792.4,319c1.8,0,2.5,1.4,2.5,1.4l0,0c0,0,0-0.3,0-0.6v-3.7h1v10.5h-1v-0.8c0-0.3,0-0.5,0-0.5l0,0c0,0-0.6,1.5-2.6,1.5
		s-3.3-1.6-3.3-4C789,320.6,790.4,319,792.4,319z M792.4,326c1.3,0,2.4-0.9,2.4-3c0-1.5-0.8-3-2.4-3c-1.3,0-2.4,1.1-2.4,3
		C790.1,324.8,791,326,792.4,326z"/>
	<path d="M802.7,316.2h3.6c1.7,0,2.8,1,2.8,2.7c0,1.1-0.5,1.9-1.3,2.3l0,0c1.1,0.3,1.8,1.3,1.8,2.6c0,1.9-1.4,3-3.2,3h-3.7
		L802.7,316.2L802.7,316.2z M806.3,320.7c1.1,0,1.8-0.8,1.8-1.8c0-1.1-0.7-1.8-1.8-1.8h-2.6v3.6L806.3,320.7L806.3,320.7z
		 M806.4,325.8c1.3,0,2.1-0.8,2.1-2.1s-0.9-2.1-2.1-2.1h-2.7v4.1h2.7V325.8z"/>
	<path d="M811.8,319.2h1v1.3c0,0.3,0,0.6,0,0.6l0,0c0.4-1.1,1.2-2,2.4-2c0.2,0,0.4,0,0.4,0v1c0,0-0.2,0-0.4,0
		c-1.1,0-1.9,0.8-2.2,1.9c-0.2,0.5-0.2,1-0.2,1.5v3.2h-1V319.2z"/>
	<path d="M820.4,319c2.2,0,4,1.7,4,3.9c0,2.3-1.8,4-4,4s-4-1.7-4-4C816.5,320.7,818.2,319,820.4,319z M820.4,326
		c1.6,0,2.9-1.3,2.9-3.1c0-1.7-1.3-3-2.9-3s-2.9,1.3-2.9,3C817.5,324.7,818.8,326,820.4,326z"/>
	<path d="M825.4,319.2h1.1l1.8,5.6c0.1,0.4,0.2,0.8,0.2,0.8l0,0c0,0,0.1-0.5,0.2-0.8l1.9-5.6h1l1.9,5.6c0.1,0.4,0.2,0.8,0.2,0.8l0,0
		c0,0,0.1-0.4,0.2-0.8l1.8-5.6h1.1l-2.5,7.5h-1.1l-1.8-5.4c-0.1-0.4-0.2-0.8-0.2-0.8l0,0c0,0-0.1,0.4-0.2,0.8l-1.8,5.4h-1.1
		L825.4,319.2z"/>
	<path d="M838.3,325.1c0,0,0.8,0.9,2.2,0.9c0.8,0,1.5-0.4,1.5-1.2c0-1.6-4.1-1.2-4.1-3.7c0-1.4,1.2-2.1,2.6-2.1
		c1.6,0,2.3,0.8,2.3,0.8l-0.5,0.8c0,0-0.6-0.7-1.9-0.7c-0.8,0-1.5,0.3-1.5,1.2c0,1.7,4.1,1.2,4.1,3.7c0,1.2-1.1,2.1-2.6,2.1
		c-1.8,0-2.8-1.1-2.8-1.1L838.3,325.1z"/>
	<path d="M848.2,319c2.1,0,3.1,1.6,3.1,3.5c0,0.2,0,0.5,0,0.5h-5.8c0,1.9,1.4,3,2.9,3c1.4,0,2.3-0.9,2.3-0.9l0.5,0.8
		c0,0-1.1,1.1-2.8,1.1c-2.2,0-3.9-1.6-3.9-3.9C844.5,320.5,846.2,319,848.2,319z M850.3,322.2c-0.1-1.6-1-2.3-2.1-2.3
		c-1.3,0-2.4,0.8-2.6,2.3H850.3z"/>
	<path d="M853.3,319.2h1v1.3c0,0.3,0,0.6,0,0.6l0,0c0.4-1.1,1.2-2,2.4-2c0.2,0,0.4,0,0.4,0v1c0,0-0.2,0-0.4,0
		c-1.1,0-1.9,0.8-2.2,1.9c-0.2,0.5-0.2,1-0.2,1.5v3.2h-1V319.2z"/>
	<path d="M868.2,323.4H864l-1.2,3.4h-1.1l3.9-10.5h1.1l3.9,10.5h-1.1L868.2,323.4z M866,317.3c0,0-0.2,0.9-0.4,1.4l-1.4,3.8h3.6
		l-1.4-3.8C866.3,318.1,866.1,317.3,866,317.3L866,317.3z"/>
	<path d="M871.9,319.2h1v0.7c0,0.3,0,0.6,0,0.6l0,0c0,0,0.6-1.5,2.6-1.5s3.3,1.6,3.3,4s-1.4,3.9-3.4,3.9c-1.8,0-2.5-1.4-2.5-1.4l0,0
		c0,0,0,0.3,0,0.7v3.6h-1L871.9,319.2L871.9,319.2z M875.3,326c1.3,0,2.4-1.1,2.4-3c0-1.8-1-3-2.4-3c-1.3,0-2.4,0.9-2.4,3
		C872.9,324.5,873.7,326,875.3,326z"/>
	<path d="M880.7,319.2h1v0.7c0,0.3,0,0.6,0,0.6l0,0c0,0,0.6-1.5,2.6-1.5s3.3,1.6,3.3,4s-1.4,3.9-3.4,3.9c-1.8,0-2.5-1.4-2.5-1.4l0,0
		c0,0,0,0.3,0,0.7v3.6h-1L880.7,319.2L880.7,319.2z M884.1,326c1.3,0,2.4-1.1,2.4-3c0-1.8-1-3-2.4-3c-1.3,0-2.4,0.9-2.4,3
		C881.7,324.5,882.6,326,884.1,326z"/>
</g>
<rect x="18.2" y="977.5" class="st0" width="256.5" height="120.1"/>
<g>
	<path d="M91,1024.1l-3.6-6h1.2l2.2,3.8c0.3,0.5,0.6,1.3,0.6,1.3l0,0c0,0,0.3-0.7,0.6-1.3l2.2-3.8h1.2l-3.5,6v4.5h-1v-4.5H91z"/>
	<path d="M99.6,1020.9c2.2,0,4,1.7,4,3.9c0,2.3-1.8,4-4,4s-4-1.7-4-4S97.4,1020.9,99.6,1020.9z M99.6,1027.9c1.6,0,2.9-1.3,2.9-3.1
		c0-1.7-1.3-3-2.9-3s-2.9,1.3-2.9,3C96.6,1026.5,98,1027.9,99.6,1027.9z"/>
	<path d="M105.4,1021h1v4.5c0,1.2,0.2,2.2,1.6,2.2c1.7,0,2.8-1.5,2.8-3.1v-3.6h1v7.5h-1v-1.1c0-0.3,0-0.6,0-0.6l0,0
		c-0.3,0.7-1.3,1.9-3,1.9c-1.8,0-2.5-1-2.5-2.9L105.4,1021L105.4,1021z"/>
	<path d="M114.3,1021h1v1.3c0,0.3,0,0.6,0,0.6l0,0c0.4-1.1,1.2-2,2.4-2c0.2,0,0.4,0,0.4,0v1c0,0-0.2,0-0.4,0c-1.1,0-1.9,0.8-2.2,2
		c-0.1,0.5-0.2,1-0.2,1.5v3.2h-1C114.3,1028.6,114.3,1021,114.3,1021z"/>
	<path d="M124,1018h5.9v0.9H125v3.8h4v0.9h-4v3.9h5.2v0.9H124V1018z"/>
	<path d="M134.7,1025.3c0,0-0.1,0.2-0.3,0.4l-1.8,2.8h-1.2l2.7-3.9l-2.4-3.6h1.2l1.6,2.5c0.1,0.2,0.3,0.4,0.3,0.4l0,0
		c0,0,0.1-0.2,0.3-0.4l1.6-2.5h1.2l-2.4,3.6l2.7,3.9H137l-1.8-2.8C134.8,1025.6,134.7,1025.3,134.7,1025.3L134.7,1025.3
		L134.7,1025.3z"/>
	<path d="M139.6,1018h1.1v1.3h-1.1V1018z M139.6,1021h1v7.5h-1V1021z"/>
	<path d="M143,1026.9c0,0,0.8,0.9,2.2,0.9c0.8,0,1.5-0.4,1.5-1.2c0-1.7-4.1-1.2-4.1-3.7c0-1.3,1.2-2.1,2.6-2.1
		c1.6,0,2.3,0.8,2.3,0.8l-0.5,0.8c0,0-0.6-0.7-1.9-0.7c-0.8,0-1.5,0.3-1.5,1.2c0,1.7,4.1,1.2,4.1,3.7c0,1.2-1.1,2.1-2.6,2.1
		c-1.8,0-2.8-1.1-2.8-1.1L143,1026.9z"/>
	<path d="M150,1022h-1v-0.9h1v-2.2h1v2.2h1.9v0.9H151v3.8c0,1.8,1.1,2,1.7,2c0.2,0,0.3,0,0.3,0v0.9c0,0-0.2,0-0.4,0
		c-0.9,0-2.6-0.3-2.6-2.8V1022z"/>
	<path d="M154.7,1018h1.1v1.3h-1.1V1018z M154.8,1021h1v7.5h-1V1021z"/>
	<path d="M158.2,1021h1v1.1c0,0.3,0,0.6,0,0.6l0,0c0.3-0.7,1.2-1.9,3-1.9c1.9,0,2.5,1.1,2.5,2.9v4.8h-1v-4.5c0-1.2-0.2-2.2-1.6-2.2
		c-1.3,0-2.4,0.9-2.7,2.1c-0.1,0.3-0.1,0.7-0.1,1v3.6h-1L158.2,1021L158.2,1021z"/>
	<path d="M169.7,1030.8c1.5,0,2.6-0.7,2.6-2.4v-0.7c0-0.3,0-0.5,0-0.5l0,0c-0.5,0.8-1.2,1.3-2.4,1.3c-2,0-3.4-1.6-3.4-3.9
		s1.2-3.8,3.3-3.8c2,0,2.5,1.3,2.5,1.3l0,0c0,0,0-0.1,0-0.3v-0.8h1v7.4c0,2.4-1.8,3.3-3.6,3.3c-0.9,0-1.7-0.2-2.5-0.6l0.4-0.8
		C167.7,1030.3,168.6,1030.8,169.7,1030.8z M172.4,1024.7c0-2.2-1-2.9-2.4-2.9c-1.5,0-2.3,1.1-2.3,2.9s1,3,2.5,3
		C171.3,1027.6,172.4,1026.9,172.4,1024.7z"/>
	<path d="M185.4,1025.2h-4.2l-1.2,3.4h-1.1l3.9-10.5h1.1l3.9,10.5h-1.1L185.4,1025.2z M183.3,1019.1c0,0-0.2,0.9-0.4,1.4l-1.4,3.8
		h3.6l-1.4-3.8C183.5,1020,183.3,1019.1,183.3,1019.1L183.3,1019.1z"/>
	<path d="M189.1,1021h1v0.7c0,0.3,0,0.6,0,0.6l0,0c0,0,0.6-1.5,2.6-1.5s3.3,1.6,3.3,4c0,2.4-1.4,3.9-3.4,3.9c-1.8,0-2.5-1.4-2.5-1.4
		l0,0c0,0,0,0.3,0,0.7v3.6h-1L189.1,1021L189.1,1021z M192.5,1027.9c1.3,0,2.4-1.1,2.4-3c0-1.8-1-3-2.4-3c-1.3,0-2.4,0.9-2.4,3
		C190.1,1026.4,191,1027.9,192.5,1027.9z"/>
	<path d="M198,1021h1v0.7c0,0.3,0,0.6,0,0.6l0,0c0,0,0.6-1.5,2.6-1.5s3.3,1.6,3.3,4c0,2.4-1.4,3.9-3.4,3.9c-1.8,0-2.5-1.4-2.5-1.4
		l0,0c0,0,0,0.3,0,0.7v3.6h-1L198,1021L198,1021z M201.4,1027.9c1.3,0,2.4-1.1,2.4-3c0-1.8-1-3-2.4-3c-1.3,0-2.4,0.9-2.4,3
		C199,1026.4,199.8,1027.9,201.4,1027.9z"/>
	<path d="M116.1,1041.9c2.4,0,3.8,1.2,3.8,1.2l-0.6,0.8c0,0-1.2-1-3.1-1c-2.5,0-4.3,2-4.3,4.5c0,2.6,1.8,4.5,4.2,4.5
		c2.1,0,3.3-1.5,3.3-1.5v-1.8h-1.8v-0.9h2.8v5h-1v-0.8c0-0.2,0-0.5,0-0.5l0,0c0,0-1.2,1.4-3.4,1.4c-2.9,0-5.2-2.3-5.2-5.5
		C110.8,1044.3,113.1,1041.9,116.1,1041.9z"/>
	<path d="M126,1044.9c2.2,0,4,1.7,4,3.9c0,2.3-1.8,4-4,4s-4-1.7-4-4S123.8,1044.9,126,1044.9z M126,1051.9c1.6,0,2.9-1.3,2.9-3.1
		c0-1.7-1.3-3-2.9-3s-2.9,1.3-2.9,3C123.1,1050.5,124.4,1051.9,126,1051.9z"/>
	<path d="M135.1,1044.9c2.1,0,3.1,1.6,3.1,3.5c0,0.2,0,0.5,0,0.5h-5.8c0,1.9,1.4,3,2.9,3c1.4,0,2.3-0.9,2.3-0.9l0.5,0.8
		c0,0-1.1,1-2.8,1c-2.2,0-3.9-1.6-3.9-3.9C131.4,1046.4,133.1,1044.9,135.1,1044.9z M137.2,1048c-0.1-1.6-1-2.3-2.1-2.3
		c-1.3,0-2.4,0.8-2.6,2.3H137.2z"/>
	<path d="M140.2,1050.9c0,0,0.8,0.9,2.2,0.9c0.8,0,1.5-0.4,1.5-1.2c0-1.7-4.1-1.2-4.1-3.7c0-1.3,1.2-2.1,2.6-2.1
		c1.6,0,2.3,0.8,2.3,0.8l-0.5,0.8c0,0-0.6-0.7-1.9-0.7c-0.8,0-1.5,0.3-1.5,1.2c0,1.7,4.1,1.2,4.1,3.7c0,1.2-1.1,2.1-2.6,2.1
		c-1.8,0-2.8-1.1-2.8-1.1L140.2,1050.9z"/>
	<path d="M151.2,1042h1v4.8h6.1v-4.8h1v10.5h-1v-4.8h-6.1v4.8h-1V1042z"/>
	<path d="M165.4,1044.9c2.1,0,3.1,1.6,3.1,3.5c0,0.2,0,0.5,0,0.5h-5.8c0,1.9,1.4,3,2.9,3c1.4,0,2.3-0.9,2.3-0.9l0.5,0.8
		c0,0-1.1,1-2.8,1c-2.2,0-3.9-1.6-3.9-3.9C161.6,1046.4,163.3,1044.9,165.4,1044.9z M167.5,1048c-0.1-1.6-1-2.3-2.1-2.3
		c-1.3,0-2.4,0.8-2.6,2.3H167.5z"/>
	<path d="M170.5,1045h1v1.3c0,0.3,0,0.6,0,0.6l0,0c0.4-1.1,1.2-2,2.4-2c0.2,0,0.4,0,0.4,0v1c0,0-0.2,0-0.4,0c-1.1,0-1.9,0.8-2.2,2
		c-0.1,0.5-0.2,1-0.2,1.5v3.2h-1V1045z"/>
	<path d="M178.9,1044.9c2.1,0,3.1,1.6,3.1,3.5c0,0.2,0,0.5,0,0.5h-5.8c0,1.9,1.4,3,2.9,3c1.4,0,2.3-0.9,2.3-0.9l0.5,0.8
		c0,0-1.1,1-2.8,1c-2.2,0-3.9-1.6-3.9-3.9C175.2,1046.4,176.9,1044.9,178.9,1044.9z M181,1048c-0.1-1.6-1-2.3-2.1-2.3
		c-1.3,0-2.4,0.8-2.6,2.3H181z"/>
</g>
<rect x="274.6" y="977.5" class="st0" width="256.5" height="120.1"/>
<g>
	<path d="M381.5,1035.4h1v9.6h4.9v0.9h-5.9V1035.4z"/>
	<path d="M392.4,1038.2c2.2,0,4,1.7,4,3.9c0,2.3-1.8,4-4,4s-4-1.7-4-4C388.4,1039.9,390.2,1038.2,392.4,1038.2z M392.4,1045.2
		c1.6,0,2.9-1.3,2.9-3.1c0-1.7-1.3-3-2.9-3s-2.9,1.3-2.9,3C389.5,1043.9,390.8,1045.2,392.4,1045.2z"/>
	<path d="M400.9,1048.2c1.5,0,2.6-0.7,2.6-2.4v-0.7c0-0.3,0-0.5,0-0.5l0,0c-0.4,0.8-1.2,1.3-2.4,1.3c-2,0-3.4-1.6-3.4-3.9
		s1.2-3.8,3.3-3.8c2,0,2.5,1.3,2.5,1.3l0,0c0,0,0-0.1,0-0.3v-0.8h1v7.4c0,2.4-1.8,3.3-3.6,3.3c-0.9,0-1.7-0.2-2.5-0.6l0.4-0.8
		C398.9,1047.6,399.8,1048.2,400.9,1048.2z M403.6,1042c0-2.2-1-2.9-2.4-2.9c-1.5,0-2.3,1.1-2.3,2.9s1,3,2.5,3
		C402.5,1045,403.6,1044.2,403.6,1042z"/>
	<path d="M409.6,1048.2c1.5,0,2.6-0.7,2.6-2.4v-0.7c0-0.3,0-0.5,0-0.5l0,0c-0.5,0.8-1.2,1.3-2.4,1.3c-2,0-3.4-1.6-3.4-3.9
		s1.2-3.8,3.3-3.8c2,0,2.5,1.3,2.5,1.3l0,0c0,0,0-0.1,0-0.3v-0.8h1v7.4c0,2.4-1.8,3.3-3.6,3.3c-0.9,0-1.7-0.2-2.5-0.6l0.4-0.8
		C407.6,1047.6,408.5,1048.2,409.6,1048.2z M412.3,1042c0-2.2-1-2.9-2.4-2.9c-1.5,0-2.3,1.1-2.3,2.9s1,3,2.5,3
		C411.2,1045,412.3,1044.2,412.3,1042z"/>
	<path d="M415.7,1035.4h1v8.5c0,1,0.5,1.1,0.8,1.1c0.1,0,0.3,0,0.3,0v0.9c0,0-0.2,0-0.4,0c-0.6,0-1.7-0.2-1.7-1.8L415.7,1035.4
		L415.7,1035.4z"/>
	<path d="M418.7,1047.8c0,0,0.4,0.3,0.9,0.3c0.7,0,1.1-0.5,1.4-1.2l0.5-1.1l-3.1-7.5h1.1l2.2,5.5c0.1,0.4,0.3,0.8,0.3,0.8l0,0
		c0,0,0.1-0.4,0.3-0.8l2.2-5.5h1.1l-3.7,9.1c-0.4,1-1.2,1.6-2.2,1.6c-0.8,0-1.3-0.4-1.3-0.4L418.7,1047.8z"/>
</g>
<rect x="531.1" y="977.5" class="st0" width="256.5" height="120.1"/>
<g>
	<path d="M650.6,1025.2h-4.2l-1.2,3.4h-1.1l3.9-10.5h1.1l3.9,10.5h-1.1L650.6,1025.2z M648.5,1019.1c0,0-0.2,0.9-0.4,1.4l-1.4,3.8
		h3.6l-1.4-3.8C648.7,1020,648.5,1019.1,648.5,1019.1L648.5,1019.1z"/>
	<path d="M659.7,1019.6c0,0-0.2,0.9-0.3,1.6l-2,7.4h-1.2l-2.7-10.5h1.1l2,8.2c0.1,0.5,0.2,1.1,0.2,1.1l0,0c0,0,0.1-0.6,0.2-1.1
		l2.2-8.2h1l2.2,8.2c0.2,0.5,0.2,1.1,0.2,1.1l0,0c0,0,0.1-0.6,0.2-1.1l2.1-8.2h1.1l-2.8,10.5H662l-2-7.4
		C659.9,1020.5,659.7,1019.6,659.7,1019.6L659.7,1019.6z"/>
	<path d="M668,1026.6c0,0,1.1,1.2,2.8,1.2c1.2,0,2.1-0.7,2.1-1.8c0-2.7-5.3-2-5.3-5.2c0-1.5,1.3-2.8,3.3-2.8c1.8,0,2.8,1,2.8,1
		l-0.5,0.9c0,0-0.9-0.9-2.3-0.9c-1.4,0-2.2,0.9-2.2,1.8c0,2.5,5.3,1.8,5.3,5.2c0,1.6-1.2,2.8-3.2,2.8c-2.2,0-3.3-1.3-3.3-1.3
		L668,1026.6z"/>
	<path d="M616.6,1042h5.9v0.9h-4.9v3.8h4v0.9h-4v3.9h5.2v0.9h-6.2V1042z"/>
	<path d="M624.7,1042h1v8.5c0,1,0.5,1.1,0.8,1.1c0.1,0,0.3,0,0.3,0v0.9c0,0-0.2,0-0.4,0c-0.6,0-1.7-0.2-1.7-1.8L624.7,1042
		L624.7,1042z"/>
	<path d="M632.5,1047.9h0.4v-0.2c0-1.5-0.8-2-1.9-2c-1.2,0-2.1,0.7-2.1,0.7l-0.5-0.8c0,0,1-0.9,2.7-0.9c1.8,0,2.8,1,2.8,2.9v4.8h-1
		v-0.8c0-0.4,0-0.6,0-0.6l0,0c0,0-0.6,1.6-2.5,1.6c-1.3,0-2.6-0.7-2.6-2.2C627.9,1048,631.2,1047.9,632.5,1047.9z M630.6,1051.9
		c1.4,0,2.3-1.5,2.3-2.8v-0.3h-0.4c-1.2,0-3.6,0-3.6,1.7C629,1051.2,629.5,1051.9,630.6,1051.9z"/>
	<path d="M636.3,1050.9c0,0,0.8,0.9,2.2,0.9c0.8,0,1.5-0.4,1.5-1.2c0-1.7-4.1-1.2-4.1-3.7c0-1.3,1.2-2.1,2.6-2.1
		c1.6,0,2.3,0.8,2.3,0.8l-0.5,0.8c0,0-0.6-0.7-1.9-0.7c-0.8,0-1.5,0.3-1.5,1.2c0,1.7,4.1,1.2,4.1,3.7c0,1.2-1.1,2.1-2.6,2.1
		c-1.8,0-2.8-1.1-2.8-1.1L636.3,1050.9z"/>
	<path d="M643.2,1046h-1v-0.9h1v-2.2h1v2.2h1.9v0.9h-1.9v3.8c0,1.8,1.1,2,1.7,2c0.2,0,0.3,0,0.3,0v0.9c0,0-0.2,0-0.4,0
		c-0.9,0-2.6-0.3-2.6-2.8V1046z"/>
	<path d="M648,1042h1.1v1.3H648V1042z M648,1045h1v7.5h-1V1045z"/>
	<path d="M654.9,1044.9c1.8,0,2.8,1.1,2.8,1.1l-0.5,0.8c0,0-0.8-0.9-2.2-0.9c-1.6,0-2.9,1.2-2.9,3s1.3,3,3,3c1.5,0,2.4-1.1,2.4-1.1
		l0.5,0.8c0,0-1,1.2-2.9,1.2c-2.2,0-4-1.6-4-3.9C650.9,1046.5,652.7,1044.9,654.9,1044.9z"/>
	<path d="M659.6,1050.9c0,0,0.8,0.9,2.2,0.9c0.8,0,1.5-0.4,1.5-1.2c0-1.7-4.1-1.2-4.1-3.7c0-1.3,1.2-2.1,2.6-2.1
		c1.6,0,2.3,0.8,2.3,0.8l-0.5,0.8c0,0-0.6-0.7-1.9-0.7c-0.8,0-1.5,0.3-1.5,1.2c0,1.7,4.1,1.2,4.1,3.7c0,1.2-1.1,2.1-2.6,2.1
		c-1.8,0-2.8-1.1-2.8-1.1L659.6,1050.9z"/>
	<path d="M669.5,1044.9c2.1,0,3.1,1.6,3.1,3.5c0,0.2,0,0.5,0,0.5h-5.8c0,1.9,1.4,3,2.9,3c1.4,0,2.3-0.9,2.3-0.9l0.5,0.8
		c0,0-1.1,1-2.8,1c-2.2,0-3.9-1.6-3.9-3.9C665.8,1046.4,667.5,1044.9,669.5,1044.9z M671.7,1048c-0.1-1.6-1-2.3-2.1-2.3
		c-1.3,0-2.4,0.8-2.6,2.3H671.7z"/>
	<path d="M678.6,1047.9h0.4v-0.2c0-1.5-0.8-2-1.9-2c-1.2,0-2.1,0.7-2.1,0.7l-0.5-0.8c0,0,1-0.9,2.7-0.9c1.8,0,2.8,1,2.8,2.9v4.8h-1
		v-0.8c0-0.4,0-0.6,0-0.6l0,0c0,0-0.6,1.6-2.5,1.6c-1.3,0-2.6-0.7-2.6-2.2C674,1048,677.3,1047.9,678.6,1047.9z M676.8,1051.9
		c1.4,0,2.3-1.5,2.3-2.8v-0.3h-0.4c-1.2,0-3.6,0-3.6,1.7C675.1,1051.2,675.6,1051.9,676.8,1051.9z"/>
	<path d="M682.4,1045h1v1.3c0,0.3,0,0.6,0,0.6l0,0c0.4-1.1,1.2-2,2.4-2c0.2,0,0.4,0,0.4,0v1c0,0-0.2,0-0.4,0c-1.1,0-1.9,0.8-2.2,2
		c-0.2,0.5-0.2,1-0.2,1.5v3.2h-1V1045z"/>
	<path d="M691.1,1044.9c1.8,0,2.8,1.1,2.8,1.1l-0.5,0.8c0,0-0.8-0.9-2.2-0.9c-1.6,0-2.9,1.2-2.9,3s1.3,3,3,3c1.5,0,2.4-1.1,2.4-1.1
		l0.5,0.8c0,0-1,1.2-2.9,1.2c-2.2,0-4-1.6-4-3.9C687.2,1046.5,688.9,1044.9,691.1,1044.9z"/>
	<path d="M695.9,1042h1v4.1c0,0.3,0,0.6,0,0.6l0,0c0.3-0.7,1.3-1.9,3-1.9c1.9,0,2.5,1.1,2.5,2.9v4.8h-1v-4.5c0-1.2-0.2-2.2-1.6-2.2
		c-1.3,0-2.4,0.9-2.7,2.1c-0.1,0.3-0.1,0.6-0.1,1v3.6h-1V1042H695.9z"/>
</g>
<rect x="787.5" y="977.5" class="st0" width="256.5" height="120.1"/>
<g>
	<path d="M907.1,1025.2h-4.2l-1.2,3.4h-1.1l3.9-10.5h1.1l3.9,10.5h-1.1L907.1,1025.2z M904.9,1019.1c0,0-0.2,0.9-0.4,1.4l-1.4,3.8
		h3.6l-1.4-3.8C905.2,1020,905,1019.1,904.9,1019.1L904.9,1019.1z"/>
	<path d="M916.2,1019.6c0,0-0.2,0.9-0.3,1.6l-2,7.4h-1.2l-2.7-10.5h1.1l2,8.2c0.1,0.5,0.2,1.1,0.2,1.1l0,0c0,0,0.1-0.6,0.2-1.1
		l2.2-8.2h1l2.2,8.2c0.2,0.5,0.2,1.1,0.2,1.1l0,0c0,0,0.1-0.6,0.2-1.1l2.1-8.2h1.1l-2.8,10.5h-1.2l-2-7.4
		C916.3,1020.5,916.2,1019.6,916.2,1019.6L916.2,1019.6z"/>
	<path d="M924.5,1026.6c0,0,1.1,1.2,2.8,1.2c1.2,0,2.1-0.7,2.1-1.8c0-2.7-5.3-2-5.3-5.2c0-1.5,1.3-2.8,3.3-2.8c1.8,0,2.8,1,2.8,1
		l-0.5,0.9c0,0-0.9-0.9-2.3-0.9c-1.4,0-2.2,0.9-2.2,1.8c0,2.5,5.3,1.8,5.3,5.2c0,1.6-1.2,2.8-3.2,2.8c-2.2,0-3.3-1.3-3.3-1.3
		L924.5,1026.6z"/>
	<path d="M887.9,1042h3.6c1.9,0,3.3,1.2,3.3,3.2s-1.4,3.2-3.3,3.2h-2.6v4.1h-1V1042z M891.4,1047.5c1.4,0,2.3-0.9,2.3-2.3
		s-0.9-2.2-2.3-2.2h-2.5v4.5H891.4z"/>
	<path d="M900,1044.9c2.2,0,4,1.7,4,3.9c0,2.3-1.8,4-4,4s-4-1.7-4-4S897.8,1044.9,900,1044.9z M900,1051.9c1.6,0,2.9-1.3,2.9-3.1
		c0-1.7-1.3-3-2.9-3s-2.9,1.3-2.9,3C897,1050.5,898.3,1051.9,900,1051.9z"/>
	<path d="M905.8,1050.9c0,0,0.8,0.9,2.2,0.9c0.8,0,1.5-0.4,1.5-1.2c0-1.7-4.1-1.2-4.1-3.7c0-1.3,1.2-2.1,2.6-2.1
		c1.6,0,2.3,0.8,2.3,0.8l-0.5,0.8c0,0-0.6-0.7-1.9-0.7c-0.8,0-1.5,0.3-1.5,1.2c0,1.7,4.1,1.2,4.1,3.7c0,1.2-1.1,2.1-2.6,2.1
		c-1.8,0-2.8-1.1-2.8-1.1L905.8,1050.9z"/>
	<path d="M912.8,1046h-1v-0.9h1v-2.2h1v2.2h1.9v0.9h-1.9v3.8c0,1.8,1.1,2,1.7,2c0.2,0,0.3,0,0.3,0v0.9c0,0-0.2,0-0.4,0
		c-0.9,0-2.6-0.3-2.6-2.8V1046z"/>
	<path d="M920.1,1054.8c1.5,0,2.6-0.7,2.6-2.4v-0.7c0-0.3,0-0.5,0-0.5l0,0c-0.5,0.8-1.2,1.3-2.4,1.3c-2,0-3.4-1.6-3.4-3.9
		s1.2-3.8,3.3-3.8c2,0,2.5,1.3,2.5,1.3l0,0c0,0,0-0.1,0-0.3v-0.8h1v7.4c0,2.4-1.8,3.3-3.6,3.3c-0.9,0-1.7-0.2-2.5-0.6l0.4-0.8
		C918.1,1054.3,919,1054.8,920.1,1054.8z M922.8,1048.7c0-2.2-1.1-2.9-2.4-2.9c-1.5,0-2.3,1.1-2.3,2.9s1,3,2.5,3
		C921.7,1051.6,922.8,1050.9,922.8,1048.7z"/>
	<path d="M926.3,1045h1v1.3c0,0.3,0,0.6,0,0.6l0,0c0.4-1.1,1.2-2,2.4-2c0.2,0,0.4,0,0.4,0v1c0,0-0.2,0-0.4,0c-1.1,0-1.9,0.8-2.2,2
		c-0.2,0.5-0.2,1-0.2,1.5v3.2h-1V1045z"/>
	<path d="M934.7,1044.9c2.1,0,3.1,1.6,3.1,3.5c0,0.2,0,0.5,0,0.5H932c0,1.9,1.4,3,2.9,3c1.4,0,2.3-0.9,2.3-0.9l0.5,0.8
		c0,0-1.1,1-2.8,1c-2.2,0-3.9-1.6-3.9-3.9C931,1046.4,932.7,1044.9,934.7,1044.9z M936.8,1048c-0.1-1.6-1-2.3-2.1-2.3
		c-1.3,0-2.4,0.8-2.6,2.3H936.8z"/>
	<path d="M939.7,1050.9c0,0,0.8,0.9,2.2,0.9c0.8,0,1.5-0.4,1.5-1.2c0-1.7-4.1-1.2-4.1-3.7c0-1.3,1.2-2.1,2.6-2.1
		c1.6,0,2.3,0.8,2.3,0.8l-0.5,0.8c0,0-0.6-0.7-1.9-0.7c-0.8,0-1.5,0.3-1.5,1.2c0,1.7,4.1,1.2,4.1,3.7c0,1.2-1.1,2.1-2.6,2.1
		c-1.8,0-2.8-1.1-2.8-1.1L939.7,1050.9z"/>
</g>
<g>
	<path d="M252.5,256.1h1v4.8h6.1v-4.8h1v10.5h-1v-4.8h-6.1v4.8h-1V256.1z"/>
	<path d="M266.1,257h-3.8v-0.9h8.6v0.9h-3.8v9.6h-1L266.1,257L266.1,257z"/>
	<path d="M275.2,257h-3.8v-0.9h8.6v0.9h-3.8v9.6h-1L275.2,257L275.2,257z"/>
	<path d="M284.4,257h-3.8v-0.9h8.6v0.9h-3.8v9.6h-1L284.4,257L284.4,257z"/>
	<path d="M290.8,256.1h3.6c1.9,0,3.3,1.2,3.3,3.2s-1.4,3.2-3.3,3.2h-2.6v4.1h-1V256.1z M294.4,261.6c1.4,0,2.3-0.9,2.3-2.3
		s-0.9-2.2-2.3-2.2h-2.5v4.5H294.4z"/>
</g>
</svg>
