<?xml version="1.0" encoding="utf-8"?>
<!-- Generator: Adobe Illustrator 19.1.0, SVG Export Plug-In . SVG Version: 6.00 Build 0)  -->
<svg version="1.2" baseProfile="tiny" id="Layer_1" xmlns="http://www.w3.org/2000/svg" xmlns:xlink="http://www.w3.org/1999/xlink"
	 x="0px" y="0px" viewBox="0 0 200 40" xml:space="preserve">
<g>
	<path fill="#FFFFFF" d="M31.9,8.9l-4.6,26.2c-0.1,0.4-0.3,0.5-0.6,0.5h-3.4c-0.4,0-0.6-0.2-0.6-0.5L18,8.9
		c-0.1-0.4,0.1-0.5,0.5-0.5h4.2c0.3,0,0.5,0.2,0.6,0.5l1.6,16.6H25l1.6-16.6c0.1-0.4,0.2-0.5,0.6-0.5h4.2C31.8,8.4,32,8.6,31.9,8.9z
		"/>
	<path fill="#FFFFFF" d="M38,35.2c0,0.4-0.2,0.5-0.5,0.5H34c-0.4,0-0.5-0.2-0.5-0.5V12.8c0-0.4,0.2-0.5,0.5-0.5h3.5
		c0.4,0,0.5,0.2,0.5,0.5V35.2z"/>
	<path fill="#FFFFFF" d="M45.1,35.2c0,0.4-0.2,0.5-0.6,0.5H41c-0.3,0-0.5-0.2-0.5-0.5V12.8c0-0.4,0.2-0.5,0.5-0.5h5.9
		c0.7,0,1.3,0.1,1.9,0.4c0.6,0.3,1.1,0.6,1.6,1.1c0.4,0.4,0.8,1,1.1,1.6c0.3,0.6,0.4,1.2,0.4,1.9V22c0,1-0.3,1.8-0.9,2.6
		c-0.6,0.8-1.3,1.4-2.1,1.8l3.7,8.8c0.1,0.4-0.1,0.5-0.4,0.5h-3.6c-0.2,0-0.3-0.1-0.4-0.2c-0.1-0.1-0.2-0.2-0.3-0.4l-2.9-7.2V35.2z
		 M45.1,22.7h1.2c0.3,0,0.5-0.1,0.7-0.3c0.2-0.2,0.3-0.4,0.3-0.7v-4.4c0-0.3-0.1-0.5-0.3-0.7c-0.2-0.2-0.4-0.3-0.7-0.3h-1.2V22.7z"
		/>
	<path fill="#FFFFFF" d="M65,12.8v3.5c0,0.4-0.2,0.5-0.5,0.5h-2.8v18.3c0,0.4-0.2,0.5-0.5,0.5h-3.5c-0.1,0-0.3-0.1-0.4-0.2
		c-0.1-0.1-0.2-0.2-0.2-0.4V16.8h-2.7c-0.4,0-0.5-0.2-0.5-0.5v-3.5c0-0.4,0.2-0.5,0.5-0.5h10.1C64.8,12.3,65,12.5,65,12.8z"/>
	<path fill="#FFFFFF" d="M78.2,12.8v18.2c0,0.7-0.1,1.3-0.4,1.9c-0.3,0.6-0.6,1.1-1.1,1.6c-0.4,0.4-1,0.8-1.6,1.1
		C74.6,35.9,74,36,73.3,36h-1.5c-0.7,0-1.3-0.1-1.9-0.4c-0.6-0.3-1.1-0.6-1.6-1.1c-0.4-0.4-0.8-1-1.1-1.6c-0.3-0.6-0.4-1.2-0.4-1.9
		V12.8c0-0.4,0.2-0.5,0.5-0.5h3.5c0.4,0,0.5,0.2,0.5,0.5v18c0,0.3,0.1,0.5,0.3,0.7c0.2,0.2,0.4,0.3,0.7,0.3h0.3
		c0.3,0,0.5-0.1,0.7-0.3c0.2-0.2,0.3-0.4,0.3-0.7v-18c0-0.4,0.2-0.5,0.5-0.5h3.5C78,12.3,78.2,12.5,78.2,12.8z"/>
	<path fill="#FFFFFF" d="M92.1,35.2c0.1,0.4-0.1,0.5-0.5,0.5H88c-0.3,0-0.5-0.2-0.6-0.5l-0.3-3.8h-2.4l-0.3,3.8
		c-0.1,0.4-0.2,0.5-0.6,0.5h-3.6c-0.4,0-0.5-0.2-0.5-0.5l2.9-22.3c0.1-0.4,0.3-0.5,0.6-0.5h5.2c0.4,0,0.6,0.2,0.6,0.5L92.1,35.2z
		 M86.8,27l-0.7-8.6h-0.3L85,27H86.8z"/>
	<path fill="#FFFFFF" d="M104.1,31.7v3.5c0,0.4-0.2,0.5-0.5,0.5h-5.3h-0.1h0h-3.5c-0.4,0-0.5-0.2-0.5-0.5V12.8
		c0-0.4,0.2-0.5,0.5-0.5h3.5c0.4,0,0.5,0.2,0.5,0.5v18.3h4.8C103.9,31.1,104.1,31.3,104.1,31.7z"/>
	<path fill="#FFFFFF" d="M122.4,8.9v3.5c0,0.4-0.2,0.5-0.5,0.5h-2.8v22.2c0,0.4-0.2,0.5-0.5,0.5h-3.5c-0.1,0-0.3-0.1-0.4-0.2
		c-0.1-0.1-0.2-0.2-0.2-0.4V12.9h-2.7c-0.4,0-0.5-0.2-0.5-0.5V8.9c0-0.4,0.2-0.5,0.5-0.5h10.1C122.2,8.4,122.4,8.6,122.4,8.9z"/>
	<path fill="#FFFFFF" d="M135.6,12.8v18.2c0,0.7-0.1,1.3-0.4,1.9c-0.3,0.6-0.6,1.1-1.1,1.6c-0.4,0.4-1,0.8-1.6,1.1
		c-0.6,0.3-1.2,0.4-1.9,0.4h-1.5c-0.7,0-1.3-0.1-1.9-0.4c-0.6-0.3-1.1-0.6-1.6-1.1c-0.4-0.4-0.8-1-1.1-1.6c-0.3-0.6-0.4-1.2-0.4-1.9
		V12.8c0-0.4,0.2-0.5,0.5-0.5h3.5c0.4,0,0.5,0.2,0.5,0.5v18c0,0.3,0.1,0.5,0.3,0.7c0.2,0.2,0.4,0.3,0.7,0.3h0.3
		c0.3,0,0.5-0.1,0.7-0.3c0.2-0.2,0.3-0.4,0.3-0.7v-18c0-0.4,0.2-0.5,0.5-0.5h3.5C135.4,12.3,135.6,12.5,135.6,12.8z"/>
	<path fill="#FFFFFF" d="M150.4,12.8v22.3c0,0.4-0.2,0.5-0.5,0.5h-2.5c-0.2,0-0.3-0.1-0.4-0.2c-0.1-0.1-0.2-0.2-0.3-0.4L142.5,25
		v10.2c0,0.4-0.2,0.5-0.5,0.5h-3.5c-0.4,0-0.5-0.2-0.5-0.5V12.8c0-0.4,0.2-0.5,0.5-0.5h2.6c0.2,0,0.3,0.1,0.4,0.2
		c0.1,0.1,0.2,0.2,0.3,0.4l4.1,11.4V12.8c0-0.4,0.2-0.5,0.5-0.5h3.5C150.3,12.3,150.4,12.5,150.4,12.8z"/>
	<path fill="#FFFFFF" d="M162.5,31.7v3.5c0,0.4-0.2,0.5-0.5,0.5h-8.5c-0.4,0-0.5-0.2-0.5-0.5V12.8c0-0.4,0.2-0.5,0.5-0.5h8.5
		c0.4,0,0.5,0.2,0.5,0.5v3.5c0,0.4-0.2,0.5-0.5,0.5h-4.5v4.5h3.9c0.4,0,0.5,0.2,0.5,0.5v3.5c0,0.4-0.2,0.5-0.5,0.5h-3.9v5.3h4.5
		C162.3,31.1,162.5,31.3,162.5,31.7z"/>
	<path fill="#FFFFFF" d="M176,8.9v22.1c0,0.7-0.1,1.3-0.4,1.9c-0.3,0.6-0.6,1.1-1.1,1.6c-0.4,0.4-1,0.8-1.6,1.1
		c-0.6,0.3-1.2,0.4-1.9,0.4h-1.5c-0.7,0-1.3-0.1-1.9-0.4c-0.6-0.3-1.1-0.6-1.6-1.1c-0.4-0.4-0.8-1-1.1-1.6c-0.3-0.6-0.4-1.2-0.4-1.9
		V8.9c0-0.4,0.2-0.5,0.5-0.5h3.5c0.4,0,0.5,0.2,0.5,0.5v22c0,0.3,0.1,0.5,0.3,0.7c0.2,0.2,0.4,0.3,0.7,0.3h0.3
		c0.3,0,0.5-0.1,0.7-0.3c0.2-0.2,0.3-0.4,0.3-0.7v-22c0-0.4,0.2-0.5,0.5-0.5h3.5C175.8,8.4,176,8.6,176,8.9z"/>
	<path fill="#FFFFFF" d="M184.7,12.3c0.7,0,1.3,0.1,1.9,0.4c0.6,0.3,1.1,0.6,1.6,1.1c0.4,0.4,0.8,1,1.1,1.6c0.3,0.6,0.4,1.2,0.4,1.9
		v5.2c0,0.7-0.1,1.3-0.4,1.9c-0.3,0.6-0.6,1.1-1.1,1.6c-0.4,0.4-1,0.8-1.6,1.1c-0.6,0.3-1.2,0.4-1.9,0.4h-1.8v7.9
		c0,0.4-0.2,0.5-0.5,0.5h-3.5c-0.4,0-0.5-0.2-0.5-0.5V12.8c0-0.4,0.2-0.5,0.5-0.5H184.7z M185,17.4c0-0.3-0.1-0.5-0.3-0.7
		c-0.2-0.2-0.4-0.3-0.7-0.3h-1.2v6.7h1.2c0.3,0,0.5-0.1,0.7-0.3c0.2-0.2,0.3-0.4,0.3-0.7V17.4z"/>
</g>
</svg>
