<?xml version="1.0" encoding="utf-8"?>
<!-- Generator: Adobe Illustrator 20.1.0, SVG Export Plug-In . SVG Version: 6.00 Build 0)  -->
<svg version="1.1" baseProfile="tiny" id="Layer_1" xmlns="http://www.w3.org/2000/svg" xmlns:xlink="http://www.w3.org/1999/xlink"
	 x="0px" y="0px" viewBox="0 0 400 110" xml:space="preserve">
<g>
	<path fill="#1D1C1A" d="M41.7,32.2v-5c0-6.9-3.4-11.2-8.7-11.2c-6.3,0-9.4,5.7-9.4,16.2v49.6c0,7.9,3.8,12.9,9.4,12.9
		c3.8,0,6.9-0.5,8.7-1V64.8h-9V53.4h22.6v49.5c-5.3,1.2-14.7,2.5-22.5,2.5c-17.3,0-22.9-9.1-22.9-24.4V31.3
		c0-18.4,5.6-25.9,23.2-25.9c14.6,0,22.2,5.3,22.2,17.9v9H41.7V32.2z"/>
	<path fill="#1D1C1A" d="M64.9,53.7c0-11.6,6.7-18.4,18.1-18.4c9.8,0,18.3,4.4,18.3,17V87c0,11.6-6.7,18.4-18.1,18.4
		c-9.8,0-18.3-4.4-18.3-17C64.9,88.4,64.9,53.7,64.9,53.7z M77.7,87.8c0,5.5,1.4,8.6,5.5,8.6c4,0,5.3-3.1,5.3-8.6V52.9
		c0-5.5-1.4-8.6-5.3-8.6c-4.1,0-5.5,3.1-5.5,8.6V87.8z"/>
	<path fill="#8E9090" d="M112.9,45.1h-6.4v-9h6.4V20c0-9.7,2.7-13.9,16.4-13.9h4.4v9.8h-2.3c-4,0-5.6,1.9-5.6,5.9v14.3h7.9v9h-7.9
		v59.4H113L112.9,45.1L112.9,45.1z"/>
	<path fill="#8E9090" d="M138,50.2c0-10.1,6.1-14.9,18.3-14.9c11.7,0,18.1,4.6,18.1,16.6v52.6h-12v-7.1c-1.5,1.5-2.3,2.9-3.7,4.2
		c-2.3,2.3-5.9,3.7-9.1,3.7c-7.6,0-12.5-2.3-12.5-18.7c0-13.8,1.1-16.9,4.6-20.6c3-3.1,5.2-4.2,19.9-4.2v-11c0-4-1-6.5-5.3-6.5
		c-3.5,0-5.5,1.5-5.5,5.7v6.3H138V50.2z M157.5,70.9c-6,0-7.6,3.3-7.6,14c0,10.1,1,11.4,5,11.4c4.4,0,6.7-3.3,6.7-7.9V70.8h-4.1
		V70.9z"/>
	<path fill="#8E9090" d="M203.8,58.2v-6.5c0-5.3-1.1-7.4-4.5-7.4s-4.4,1.5-4.4,6.3c0,6.9,0.5,7.4,9.1,14.9
		c9.9,8.7,11.9,11.6,11.9,21.5c0,13.4-4.6,18.4-18.3,18.4c-9.8,0-15.3-4.1-15.3-14v-9.7h12v9.4c0,4.2,1.8,5.3,4.8,5.3
		c4.2,0,4.8-2.2,4.8-7.6c0-7.4-0.4-8.5-7.8-14.7l-2.9-2.5c-10.2-8.7-10.4-9.8-10.4-19.2c0-12.9,6.3-17,17.7-17
		c9.5,0,14.6,4.2,14.6,12.4v10.5L203.8,58.2L203.8,58.2z"/>
	<path fill="#8E9090" d="M226.5,45.1h-6.4v-9h6.4V23.2l12.8-4.5v17.4h7.9v9h-7.9v44.3c0,5.2,2.3,6.1,6.1,6.1c1.5,0,2.5-0.1,3.3-0.4
		v9c-1.5,0.1-4.8,0.4-8.3,0.4c-10.2,0-13.9-3-13.9-9.1V45.1z"/>
	<path fill="#1D1C1A" d="M255,6.2h21.9c22.1,0,23.8,7.4,23.8,36v29.3c0,25.2-4.5,33.1-26,33.1H255V6.2z M268.6,93.1h6.5
		c10.1,0,12-5.3,12-22.2V37.1c0-14.6-1.5-19.5-13.1-19.5h-5.5v75.5H268.6z"/>
	<path fill="#1D1C1A" d="M309.5,53.7c0-11.6,6.7-18.4,18.5-18.4c10.2,0,18.7,4.4,18.7,17v22.1h-24.4V89c0,6.4,2.2,8.2,6.3,8.2
		c4.8,0,6.1-3.4,6.1-8.9V82h12v9.7c0,7-4.9,13.6-19.1,13.6c-9.7,0-18.1-4.4-18.1-17V53.7z M322.3,65.4h12.4V52
		c0-6.1-1.8-8.6-6.1-8.6c-4.8,0-6.3,2.6-6.3,7.5V65.4z"/>
	<path fill="#1D1C1A" d="M350.6,36.1h13.2l8.9,55.6h0.3l8.9-55.6h12.8l-15.3,68.4h-15L350.6,36.1z"/>
</g>
</svg>
